<?xml version="1.0" encoding="utf-8"?>
<!-- Generator: Adobe Illustrator 21.0.0, SVG Export Plug-In . SVG Version: 6.00 Build 0)  -->
<svg version="1.1" id="Layer_1" xmlns="http://www.w3.org/2000/svg" xmlns:xlink="http://www.w3.org/1999/xlink" x="0px" y="0px"
	 viewBox="0 0 238 65.5" style="enable-background:new 0 0 238 65.5;" xml:space="preserve">
<style type="text/css">
	.st0{fill:#FFFFFF;}
	.st1{fill:#636D7F;}
	.st2{opacity:0.6;fill:#FFFFFF;enable-background:new    ;}
</style>
<g>
	<path class="st0" d="M76,24.5c0.1,0.3,0.3,0.6,0.4,0.9c0.1-0.3,0.2-0.6,0.4-0.9c0.1-0.3,0.3-0.6,0.4-0.8L81,16
		c0.1-0.1,0.1-0.2,0.2-0.3s0.2-0.1,0.2-0.2s0.2-0.1,0.3-0.1s0.2,0,0.4,0h2.7v15.1h-3.1v-8.7c0-0.4,0-0.9,0.1-1.4l-4,7.8
		c-0.1,0.2-0.3,0.4-0.5,0.6C77.1,29,76.9,29,76.6,29h-0.5c-0.3,0-0.5-0.1-0.7-0.2s-0.4-0.3-0.5-0.6l-4-7.8c0,0.2,0,0.5,0.1,0.7
		c0,0.2,0,0.5,0,0.7v8.7h-3.1v-15h2.7c0.2,0,0.3,0,0.4,0s0.2,0,0.3,0.1c0.1,0,0.2,0.1,0.2,0.2c0.1,0.1,0.1,0.2,0.2,0.3l3.9,7.7
		C75.7,23.9,75.9,24.2,76,24.5z"/>
	<path class="st0" d="M94.8,30.6c-0.3,0-0.5,0-0.7-0.1s-0.3-0.3-0.4-0.5l-0.2-0.6c-0.3,0.2-0.5,0.4-0.8,0.6
		c-0.2,0.2-0.5,0.3-0.8,0.4s-0.6,0.2-0.9,0.3c-0.3,0.1-0.6,0.1-1,0.1c-0.5,0-0.9-0.1-1.3-0.2s-0.7-0.3-1-0.6
		c-0.3-0.3-0.5-0.6-0.6-0.9s-0.2-0.8-0.2-1.3c0-0.4,0.1-0.8,0.3-1.2s0.5-0.8,1-1.1c0.5-0.3,1.1-0.6,1.9-0.8s1.8-0.3,3.1-0.3v-0.5
		c0-0.6-0.1-1.1-0.4-1.4s-0.6-0.4-1.1-0.4c-0.4,0-0.7,0-0.9,0.1c-0.2,0.1-0.5,0.2-0.6,0.3c-0.2,0.1-0.4,0.2-0.6,0.3
		c-0.2,0.1-0.4,0.1-0.6,0.1s-0.4-0.1-0.6-0.2s-0.3-0.2-0.4-0.4l-0.6-1c0.7-0.6,1.4-1,2.2-1.3c0.8-0.3,1.6-0.4,2.6-0.4
		c0.7,0,1.2,0.1,1.8,0.3c0.5,0.2,1,0.5,1.3,0.9c0.4,0.4,0.6,0.8,0.8,1.3c0.2,0.5,0.3,1.1,0.3,1.7v6.7h-1.6V30.6z M91.1,28.6
		c0.4,0,0.8-0.1,1.1-0.2c0.3-0.1,0.6-0.4,0.9-0.7v-1.5c-0.6,0-1.2,0-1.6,0.1s-0.7,0.2-1,0.3c-0.2,0.1-0.4,0.3-0.5,0.4
		c-0.1,0.2-0.1,0.3-0.1,0.5c0,0.4,0.1,0.6,0.3,0.8C90.4,28.5,90.7,28.6,91.1,28.6z"/>
	<path class="st0" d="M105.1,22.2c-0.1,0.1-0.2,0.2-0.3,0.3c-0.1,0.1-0.2,0.1-0.4,0.1c-0.2,0-0.3,0-0.5-0.1s-0.3-0.1-0.5-0.2
		s-0.4-0.1-0.6-0.2S102.3,22,102,22c-0.4,0-0.7,0.1-0.9,0.2c-0.2,0.2-0.3,0.4-0.3,0.6s0.1,0.4,0.2,0.5s0.3,0.2,0.6,0.3
		c0.2,0.1,0.5,0.2,0.8,0.3c0.3,0.1,0.6,0.2,0.9,0.3c0.3,0.1,0.6,0.2,0.9,0.4c0.3,0.1,0.6,0.3,0.8,0.6c0.2,0.2,0.4,0.5,0.6,0.8
		s0.2,0.7,0.2,1.1c0,0.5-0.1,1-0.3,1.5s-0.5,0.8-0.9,1.2c-0.4,0.3-0.9,0.6-1.4,0.8c-0.6,0.2-1.2,0.3-1.9,0.3c-0.4,0-0.7,0-1.1-0.1
		s-0.7-0.2-1.1-0.3c-0.3-0.1-0.7-0.3-1-0.4c-0.3-0.2-0.5-0.3-0.7-0.5l0.7-1.2c0.1-0.1,0.2-0.2,0.3-0.3c0.1-0.1,0.3-0.1,0.5-0.1
		s0.4,0,0.5,0.1s0.3,0.2,0.5,0.3c0.2,0.1,0.4,0.2,0.6,0.3s0.5,0.1,0.9,0.1c0.2,0,0.5,0,0.6-0.1c0.2-0.1,0.3-0.1,0.4-0.2
		s0.2-0.2,0.2-0.3s0.1-0.2,0.1-0.3c0-0.2-0.1-0.4-0.2-0.5s-0.3-0.3-0.6-0.4c-0.2-0.1-0.5-0.2-0.8-0.3s-0.6-0.2-0.9-0.3
		c-0.3-0.1-0.6-0.2-0.9-0.4c-0.3-0.2-0.6-0.4-0.8-0.6s-0.4-0.5-0.6-0.9c-0.1-0.3-0.2-0.8-0.2-1.3s0.1-0.9,0.3-1.3
		c0.2-0.4,0.4-0.8,0.8-1.1s0.8-0.6,1.3-0.7s1.2-0.3,1.9-0.3c0.4,0,0.8,0,1.1,0.1s0.7,0.2,1,0.3c0.3,0.1,0.6,0.3,0.9,0.4
		c0.3,0.2,0.5,0.4,0.7,0.6L105.1,22.2z"/>
	<path class="st0" d="M111.5,30.7c-0.5,0-1-0.1-1.4-0.2s-0.7-0.4-1-0.6c-0.3-0.3-0.5-0.6-0.6-1s-0.2-0.8-0.2-1.3V22h-0.9
		c-0.2,0-0.3-0.1-0.4-0.2s-0.2-0.3-0.2-0.5V20l1.7-0.3l0.6-2.6c0.1-0.3,0.3-0.5,0.7-0.5h1.7v3.1h2.6V22h-2.6v5.3
		c0,0.2,0.1,0.5,0.2,0.6c0.1,0.2,0.3,0.2,0.5,0.2c0.1,0,0.2,0,0.3,0c0.1,0,0.1-0.1,0.2-0.1s0.1-0.1,0.2-0.1s0.1,0,0.2,0
		s0.2,0,0.2,0.1c0.1,0,0.1,0.1,0.2,0.2l1,1.5c-0.4,0.3-0.9,0.5-1.4,0.7S112,30.7,111.5,30.7z"/>
	<path class="st0" d="M120.6,19.6c0.7,0,1.4,0.1,2,0.3c0.6,0.2,1.1,0.5,1.5,1c0.4,0.4,0.8,0.9,1,1.6c0.2,0.6,0.4,1.3,0.4,2.1
		c0,0.2,0,0.4,0,0.6s-0.1,0.3-0.1,0.4c-0.1,0.1-0.1,0.2-0.2,0.2s-0.2,0.1-0.4,0.1h-6.2c0.1,0.9,0.4,1.6,0.8,2s1,0.6,1.7,0.6
		c0.4,0,0.7,0,1-0.1s0.5-0.2,0.7-0.3c0.2-0.1,0.4-0.2,0.6-0.3s0.4-0.1,0.6-0.1c0.3,0,0.5,0.1,0.6,0.3l0.9,1.2
		c-0.3,0.4-0.7,0.7-1.1,0.9c-0.4,0.2-0.8,0.4-1.2,0.6c-0.4,0.1-0.8,0.2-1.2,0.3c-0.4,0.1-0.8,0.1-1.2,0.1c-0.8,0-1.5-0.1-2.1-0.4
		s-1.2-0.6-1.7-1.1s-0.9-1.1-1.2-1.8c-0.3-0.7-0.4-1.6-0.4-2.5c0-0.7,0.1-1.4,0.4-2c0.2-0.6,0.6-1.2,1.1-1.7s1-0.9,1.7-1.2
		C119.1,19.8,119.8,19.6,120.6,19.6z M120.7,21.9c-0.6,0-1.1,0.2-1.4,0.5s-0.6,0.9-0.7,1.5h4c0-0.3,0-0.5-0.1-0.7s-0.2-0.5-0.3-0.6
		s-0.3-0.3-0.6-0.5C121.3,21.9,121,21.9,120.7,21.9z"/>
	<path class="st0" d="M127.3,30.6V19.8h1.9c0.2,0,0.3,0,0.4,0c0.1,0,0.2,0.1,0.3,0.1c0.1,0.1,0.1,0.1,0.2,0.2c0,0.1,0.1,0.2,0.1,0.4
		l0.2,1c0.4-0.6,0.8-1.1,1.3-1.4s1-0.5,1.6-0.5c0.5,0,0.9,0.1,1.2,0.4l-0.4,2.4c0,0.1-0.1,0.2-0.2,0.3c-0.1,0.1-0.2,0.1-0.3,0.1
		s-0.3,0-0.4,0s-0.4,0-0.6,0c-0.8,0-1.5,0.5-2,1.4v6.6h-3.3V30.6z"/>
	<path class="st0" d="M142.5,22.2c-0.1,0.1-0.2,0.2-0.3,0.3c-0.1,0.1-0.2,0.1-0.4,0.1s-0.3,0-0.5-0.1s-0.3-0.1-0.5-0.2
		s-0.4-0.1-0.6-0.2s-0.5-0.1-0.8-0.1c-0.4,0-0.7,0.1-0.9,0.2c-0.2,0.2-0.3,0.4-0.3,0.6s0.1,0.4,0.2,0.5c0.1,0.1,0.3,0.2,0.6,0.3
		c0.2,0.1,0.5,0.2,0.8,0.3c0.3,0.1,0.6,0.2,0.9,0.3c0.3,0.1,0.6,0.2,0.9,0.4c0.3,0.1,0.6,0.3,0.8,0.6c0.2,0.2,0.4,0.5,0.6,0.8
		s0.2,0.7,0.2,1.1c0,0.5-0.1,1-0.3,1.5s-0.5,0.8-0.9,1.2c-0.4,0.3-0.9,0.6-1.4,0.8c-0.6,0.2-1.2,0.3-1.9,0.3c-0.4,0-0.7,0-1.1-0.1
		c-0.4-0.1-0.7-0.2-1.1-0.3c-0.3-0.1-0.7-0.3-1-0.4c-0.3-0.2-0.5-0.3-0.7-0.5l0.7-1.2c0.1-0.1,0.2-0.2,0.3-0.3
		c0.1-0.1,0.3-0.1,0.5-0.1s0.4,0,0.5,0.1s0.3,0.2,0.5,0.3c0.2,0.1,0.4,0.2,0.6,0.3s0.5,0.1,0.9,0.1c0.2,0,0.5,0,0.6-0.1
		c0.2-0.1,0.3-0.1,0.4-0.2s0.2-0.2,0.2-0.3s0.1-0.2,0.1-0.3c0-0.2-0.1-0.4-0.2-0.5c-0.1-0.1-0.3-0.3-0.6-0.4
		c-0.2-0.1-0.5-0.2-0.8-0.3s-0.6-0.2-0.9-0.3c-0.3-0.1-0.6-0.2-0.9-0.4c-0.3-0.2-0.6-0.4-0.8-0.6s-0.4-0.5-0.6-0.9
		c-0.1-0.3-0.2-0.8-0.2-1.3s0.1-0.9,0.3-1.3s0.4-0.8,0.8-1.1s0.8-0.6,1.3-0.7s1.2-0.3,1.9-0.3c0.4,0,0.8,0,1.1,0.1s0.7,0.2,1,0.3
		c0.3,0.1,0.6,0.3,0.9,0.4c0.3,0.2,0.5,0.4,0.7,0.6L142.5,22.2z"/>
	<path class="st0" d="M163.1,30.6h-2.7c-0.3,0-0.6-0.1-0.8-0.2s-0.3-0.3-0.4-0.5l-0.9-2.6h-5.8l-0.9,2.6c-0.1,0.2-0.2,0.4-0.4,0.5
		c-0.2,0.2-0.4,0.2-0.7,0.2h-2.7l5.9-15.1h3.6L163.1,30.6z M153.4,24.8h4.1l-1.4-4.1c-0.1-0.3-0.2-0.6-0.3-0.9
		c-0.1-0.4-0.2-0.7-0.4-1.2c-0.1,0.4-0.2,0.8-0.3,1.2c-0.1,0.4-0.2,0.7-0.3,0.9L153.4,24.8z"/>
	<path class="st0" d="M172.1,22.4c-0.1,0.1-0.2,0.2-0.3,0.3s-0.2,0.1-0.4,0.1s-0.3,0-0.4-0.1s-0.3-0.2-0.4-0.3
		c-0.2-0.1-0.3-0.2-0.6-0.3c-0.2-0.1-0.5-0.1-0.8-0.1c-0.4,0-0.7,0.1-1,0.2s-0.5,0.4-0.7,0.6s-0.3,0.6-0.4,1s-0.1,0.8-0.1,1.3
		c0,1,0.2,1.8,0.6,2.4c0.4,0.6,0.9,0.8,1.6,0.8c0.4,0,0.7,0,0.9-0.1s0.4-0.2,0.6-0.3c0.2-0.1,0.3-0.2,0.4-0.3
		c0.1-0.1,0.3-0.1,0.5-0.1c0.3,0,0.5,0.1,0.6,0.3l0.9,1.2c-0.3,0.4-0.7,0.7-1,0.9c-0.4,0.2-0.7,0.4-1.1,0.6
		c-0.4,0.1-0.8,0.2-1.2,0.3c-0.4,0.1-0.8,0.1-1.1,0.1c-0.7,0-1.3-0.1-1.9-0.4c-0.6-0.2-1.1-0.6-1.6-1.1s-0.8-1.1-1.1-1.8
		s-0.4-1.5-0.4-2.4c0-0.8,0.1-1.5,0.3-2.2s0.6-1.3,1-1.8c0.5-0.5,1-0.9,1.7-1.2c0.7-0.3,1.4-0.4,2.3-0.4c0.8,0,1.6,0.1,2.2,0.4
		c0.6,0.3,1.2,0.7,1.7,1.2L172.1,22.4z"/>
	<path class="st0" d="M181.9,30.6c-0.3,0-0.5,0-0.7-0.1s-0.3-0.3-0.4-0.5l-0.2-0.6c-0.3,0.2-0.5,0.4-0.8,0.6
		c-0.2,0.2-0.5,0.3-0.8,0.4s-0.6,0.2-0.9,0.3c-0.3,0.1-0.6,0.1-1,0.1c-0.5,0-0.9-0.1-1.3-0.2c-0.4-0.1-0.7-0.3-1-0.6
		c-0.3-0.3-0.5-0.6-0.6-0.9s-0.2-0.8-0.2-1.3c0-0.4,0.1-0.8,0.3-1.2s0.5-0.8,1-1.1c0.5-0.3,1.1-0.6,1.9-0.8s1.8-0.3,3.1-0.3v-0.5
		c0-0.6-0.1-1.1-0.4-1.4c-0.3-0.3-0.6-0.4-1.1-0.4c-0.4,0-0.7,0-0.9,0.1s-0.5,0.2-0.6,0.3c-0.2,0.1-0.4,0.2-0.6,0.3
		c-0.2,0.1-0.4,0.1-0.6,0.1c-0.2,0-0.4-0.1-0.6-0.2c-0.2-0.1-0.3-0.2-0.4-0.4l-0.6-1c0.7-0.6,1.4-1,2.2-1.3s1.6-0.4,2.6-0.4
		c0.7,0,1.2,0.1,1.8,0.3c0.5,0.2,1,0.5,1.3,0.9c0.4,0.4,0.6,0.8,0.8,1.3s0.3,1.1,0.3,1.7v6.7h-1.6V30.6z M178.2,28.6
		c0.4,0,0.8-0.1,1.1-0.2s0.6-0.4,0.9-0.7v-1.5c-0.6,0-1.2,0-1.6,0.1c-0.4,0.1-0.7,0.2-1,0.3c-0.2,0.1-0.4,0.3-0.5,0.4
		c-0.1,0.2-0.1,0.3-0.1,0.5c0,0.4,0.1,0.6,0.3,0.8C177.5,28.5,177.8,28.6,178.2,28.6z"/>
	<path class="st0" d="M193.2,30.6c-0.2,0-0.4,0-0.5-0.1s-0.2-0.2-0.3-0.4l-0.2-0.8c-0.2,0.2-0.4,0.4-0.7,0.6s-0.5,0.3-0.8,0.5
		c-0.3,0.1-0.6,0.2-0.9,0.3c-0.3,0.1-0.7,0.1-1,0.1c-0.6,0-1.1-0.1-1.6-0.4c-0.5-0.2-0.9-0.6-1.2-1.1s-0.6-1-0.8-1.7
		s-0.3-1.5-0.3-2.3s0.1-1.5,0.3-2.2s0.5-1.3,0.9-1.8s0.9-0.9,1.5-1.2c0.6-0.3,1.2-0.4,1.9-0.4c0.6,0,1,0.1,1.4,0.2s0.7,0.4,1,0.6V15
		h3.2v15.5h-1.9V30.6z M189.9,28.3c0.2,0,0.4,0,0.6-0.1c0.2,0,0.4-0.1,0.5-0.2s0.3-0.2,0.5-0.3c0.1-0.1,0.3-0.3,0.4-0.4v-4.6
		c-0.2-0.3-0.5-0.5-0.8-0.6s-0.6-0.2-0.9-0.2c-0.3,0-0.6,0.1-0.8,0.2s-0.5,0.3-0.6,0.6c-0.2,0.3-0.3,0.6-0.4,1s-0.2,0.9-0.2,1.5
		s0,1,0.1,1.4s0.2,0.7,0.3,0.9c0.1,0.2,0.3,0.4,0.5,0.5C189.4,28.2,189.7,28.3,189.9,28.3z"/>
	<path class="st0" d="M202.3,19.6c0.7,0,1.4,0.1,2,0.3c0.6,0.2,1.1,0.5,1.5,1c0.4,0.4,0.8,0.9,1,1.6c0.2,0.6,0.4,1.3,0.4,2.1
		c0,0.2,0,0.4,0,0.6s-0.1,0.3-0.1,0.4c-0.1,0.1-0.1,0.2-0.2,0.2c-0.1,0-0.2,0.1-0.4,0.1h-6.2c0.1,0.9,0.4,1.6,0.8,2
		c0.4,0.4,1,0.6,1.7,0.6c0.4,0,0.7,0,1-0.1s0.5-0.2,0.7-0.3c0.2-0.1,0.4-0.2,0.6-0.3s0.4-0.1,0.6-0.1c0.3,0,0.5,0.1,0.6,0.3l0.9,1.2
		c-0.3,0.4-0.7,0.7-1.1,0.9c-0.4,0.2-0.8,0.4-1.2,0.6c-0.4,0.1-0.8,0.2-1.2,0.3c-0.4,0.1-0.8,0.1-1.2,0.1c-0.8,0-1.5-0.1-2.1-0.4
		s-1.2-0.6-1.7-1.1s-0.9-1.1-1.2-1.8c-0.3-0.7-0.4-1.6-0.4-2.5c0-0.7,0.1-1.4,0.4-2c0.2-0.6,0.6-1.2,1.1-1.7s1-0.9,1.7-1.2
		C200.7,19.8,201.5,19.6,202.3,19.6z M202.4,21.9c-0.6,0-1.1,0.2-1.4,0.5s-0.6,0.9-0.7,1.5h4c0-0.3,0-0.5-0.1-0.7s-0.2-0.5-0.3-0.6
		s-0.3-0.3-0.6-0.5C203,21.9,202.7,21.9,202.4,21.9z"/>
	<path class="st0" d="M209,30.6V19.8h2c0.2,0,0.4,0,0.5,0.1s0.2,0.2,0.3,0.4l0.2,0.6c0.2-0.2,0.4-0.4,0.6-0.5s0.4-0.3,0.6-0.4
		s0.5-0.2,0.7-0.3c0.3-0.1,0.5-0.1,0.9-0.1c0.7,0,1.2,0.2,1.6,0.5s0.7,0.8,1,1.3c0.2-0.3,0.4-0.6,0.7-0.9c0.3-0.2,0.5-0.4,0.8-0.6
		s0.6-0.3,1-0.3s0.7-0.1,1-0.1c0.6,0,1.2,0.1,1.6,0.3c0.5,0.2,0.9,0.5,1.2,0.8s0.6,0.8,0.7,1.3c0.2,0.5,0.2,1.1,0.2,1.7v6.8h-3.2
		v-6.8c0-1.1-0.5-1.7-1.4-1.7c-0.4,0-0.8,0.1-1.1,0.4s-0.4,0.7-0.4,1.2v6.8h-3.2v-6.8c0-0.6-0.1-1-0.4-1.3c-0.2-0.2-0.6-0.4-1.1-0.4
		c-0.3,0-0.6,0.1-0.8,0.2s-0.5,0.3-0.7,0.5v7.8H209V30.6z"/>
	<path class="st0" d="M230.9,33.4c-0.1,0.2-0.2,0.4-0.4,0.5c-0.1,0.1-0.4,0.2-0.7,0.2h-2.4l2.1-4.4l-4.3-9.8h2.8
		c0.2,0,0.4,0.1,0.6,0.2c0.1,0.1,0.2,0.2,0.3,0.4l1.8,4.6c0.2,0.4,0.3,0.9,0.4,1.3c0.1-0.2,0.1-0.4,0.2-0.7c0.1-0.2,0.2-0.4,0.2-0.7
		l1.6-4.6c0.1-0.2,0.2-0.3,0.3-0.4c0.2-0.1,0.3-0.2,0.5-0.2h2.6L230.9,33.4z"/>
</g>
<g>
	<g>
		<path class="st1" d="M68.7,50V39.1h1.8v4.3c0.3-0.3,0.6-0.6,1-0.8s0.8-0.3,1.3-0.3c0.4,0,0.8,0.1,1.1,0.3c0.3,0.2,0.6,0.4,0.9,0.7
			s0.4,0.7,0.6,1.2s0.2,1,0.2,1.6s-0.1,1.1-0.2,1.6c-0.2,0.5-0.4,0.9-0.7,1.3c-0.3,0.4-0.6,0.6-1,0.8s-0.8,0.3-1.3,0.3
			c-0.2,0-0.4,0-0.6-0.1s-0.4-0.1-0.5-0.2c-0.2-0.1-0.3-0.2-0.4-0.3s-0.3-0.3-0.4-0.4l-0.1,0.5c0,0.1-0.1,0.2-0.2,0.3
			C70.1,50,70,50,69.9,50H68.7z M72.2,43.8c-0.4,0-0.7,0.1-1,0.2c-0.3,0.2-0.5,0.4-0.7,0.7v3.4c0.2,0.3,0.4,0.4,0.7,0.5
			c0.2,0.1,0.5,0.2,0.8,0.2s0.5-0.1,0.7-0.2s0.4-0.3,0.6-0.5s0.3-0.5,0.4-0.8s0.1-0.7,0.1-1.1c0-0.4,0-0.8-0.1-1.1s-0.2-0.6-0.3-0.7
			c-0.1-0.2-0.3-0.3-0.5-0.4C72.7,43.8,72.4,43.8,72.2,43.8z"/>
		<path class="st1" d="M79.5,52.1c-0.1,0.1-0.1,0.2-0.2,0.3s-0.2,0.1-0.4,0.1h-1.4l1.4-3l-3.1-7h1.6c0.1,0,0.3,0,0.3,0.1
			c0.1,0.1,0.1,0.1,0.2,0.2l1.6,3.9c0.1,0.1,0.1,0.3,0.1,0.4c0,0.1,0.1,0.3,0.1,0.4c0-0.1,0.1-0.3,0.1-0.4s0.1-0.3,0.2-0.4l1.5-3.9
			c0-0.1,0.1-0.2,0.2-0.2c0.1-0.1,0.2-0.1,0.3-0.1h1.5L79.5,52.1z"/>
		<path class="st1" d="M93.3,41.3c-0.1,0.1-0.1,0.2-0.2,0.2s-0.2,0.1-0.3,0.1s-0.2,0-0.3-0.1c-0.1-0.1-0.3-0.2-0.4-0.3
			c-0.2-0.1-0.4-0.2-0.6-0.3s-0.5-0.1-0.8-0.1s-0.5,0-0.7,0.1s-0.4,0.2-0.5,0.3s-0.2,0.3-0.3,0.4c-0.1,0.2-0.1,0.3-0.1,0.5
			c0,0.3,0.1,0.5,0.2,0.6c0.1,0.2,0.3,0.3,0.6,0.4s0.5,0.2,0.8,0.3s0.6,0.2,0.9,0.3s0.6,0.2,0.9,0.4c0.3,0.1,0.6,0.3,0.8,0.5
			c0.2,0.2,0.4,0.5,0.6,0.8c0.1,0.3,0.2,0.7,0.2,1.1c0,0.5-0.1,0.9-0.2,1.3c-0.2,0.4-0.4,0.8-0.7,1.1c-0.3,0.3-0.7,0.6-1.2,0.7
			c-0.5,0.2-1,0.3-1.6,0.3c-0.3,0-0.7,0-1-0.1s-0.6-0.2-0.9-0.3s-0.6-0.3-0.8-0.4c-0.3-0.2-0.5-0.4-0.7-0.6l0.6-0.9
			c0.1-0.1,0.1-0.1,0.2-0.2c0.1,0,0.2-0.1,0.3-0.1c0.1,0,0.3,0.1,0.4,0.2s0.3,0.2,0.5,0.3s0.4,0.2,0.7,0.3c0.3,0.1,0.6,0.2,0.9,0.2
			c0.6,0,1-0.1,1.3-0.4c0.3-0.3,0.5-0.7,0.5-1.2c0-0.3-0.1-0.5-0.2-0.7s-0.3-0.3-0.6-0.4c-0.2-0.1-0.5-0.2-0.8-0.3s-0.6-0.2-0.9-0.3
			s-0.6-0.2-0.9-0.4c-0.3-0.1-0.6-0.3-0.8-0.5s-0.4-0.5-0.6-0.8s-0.2-0.7-0.2-1.2c0-0.4,0.1-0.8,0.2-1.1c0.2-0.4,0.4-0.7,0.7-1
			c0.3-0.3,0.7-0.5,1.1-0.7s0.9-0.3,1.5-0.3s1.2,0.1,1.7,0.3s1,0.5,1.4,0.8L93.3,41.3z"/>
		<path class="st1" d="M97.9,50.1c-0.7,0-1.2-0.2-1.5-0.6s-0.5-0.9-0.5-1.5v-4.2h-0.8c-0.1,0-0.2,0-0.3-0.1
			c-0.1-0.1-0.1-0.2-0.1-0.3v-0.7l1.2-0.2l0.4-2.1c0-0.1,0.1-0.2,0.1-0.2c0.1-0.1,0.2-0.1,0.3-0.1h0.9v2.4h2v1.3h-2v4.1
			c0,0.2,0.1,0.4,0.2,0.6s0.3,0.2,0.5,0.2c0.1,0,0.2,0,0.3,0c0.1,0,0.1-0.1,0.2-0.1s0.1-0.1,0.2-0.1h0.1c0.1,0,0.1,0,0.1,0l0.1,0.1
			l0.5,0.9c-0.3,0.2-0.6,0.4-0.9,0.5C98.6,50.1,98.2,50.1,97.9,50.1z"/>
		<path class="st1" d="M107,50h-0.8c-0.2,0-0.3,0-0.4-0.1s-0.2-0.2-0.2-0.3l-0.2-0.5c-0.2,0.2-0.4,0.3-0.6,0.5s-0.4,0.2-0.6,0.3
			s-0.4,0.2-0.6,0.2s-0.5,0.1-0.7,0.1c-0.3,0-0.6,0-0.9-0.1s-0.5-0.2-0.7-0.4s-0.3-0.4-0.5-0.6c-0.1-0.3-0.2-0.6-0.2-0.9
			c0-0.3,0.1-0.6,0.2-0.8c0.1-0.3,0.4-0.5,0.7-0.8c0.3-0.2,0.8-0.4,1.4-0.6c0.6-0.1,1.3-0.2,2.2-0.2v-0.4c0-0.5-0.1-0.9-0.3-1.1
			c-0.2-0.2-0.5-0.4-0.9-0.4c-0.3,0-0.5,0-0.7,0.1s-0.4,0.1-0.5,0.2s-0.3,0.2-0.4,0.2c-0.1,0.1-0.3,0.1-0.4,0.1s-0.2,0-0.3-0.1
			c-0.1-0.1-0.2-0.1-0.2-0.2l-0.3-0.6c0.9-0.8,1.9-1.2,3.1-1.2c0.4,0,0.8,0.1,1.2,0.2s0.6,0.3,0.9,0.6c0.2,0.3,0.4,0.6,0.5,0.9
			s0.2,0.8,0.2,1.2C107,45.3,107,50,107,50z M103.4,48.9c0.2,0,0.4,0,0.5-0.1c0.2,0,0.3-0.1,0.4-0.2c0.1-0.1,0.3-0.2,0.4-0.2
			s0.3-0.2,0.4-0.4v-1.3c-0.5,0-1,0-1.3,0.1c-0.4,0.1-0.6,0.2-0.9,0.3c-0.2,0.1-0.4,0.2-0.5,0.4s-0.1,0.3-0.1,0.5
			c0,0.3,0.1,0.6,0.3,0.7C102.9,48.8,103.1,48.9,103.4,48.9z"/>
		<path class="st1" d="M108.8,50v-7.5h1.1c0.2,0,0.3,0,0.4,0.1s0.1,0.2,0.1,0.4l0.1,0.9c0.3-0.5,0.6-0.8,0.9-1.1s0.8-0.4,1.2-0.4
			c0.4,0,0.7,0.1,0.9,0.3l-0.2,1.4c0,0.1,0,0.2-0.1,0.2c0,0-0.1,0.1-0.2,0.1s-0.2,0-0.3-0.1s-0.3-0.1-0.5-0.1c-0.4,0-0.7,0.1-1,0.3
			s-0.5,0.5-0.7,0.9V50H108.8z"/>
		<path class="st1" d="M117.3,50.1c-0.7,0-1.2-0.2-1.5-0.6s-0.5-0.9-0.5-1.5v-4.2h-0.8c-0.1,0-0.2,0-0.3-0.1
			c-0.1-0.1-0.1-0.2-0.1-0.3v-0.7l1.2-0.2l0.4-2.1c0-0.1,0.1-0.2,0.1-0.2c0.1-0.1,0.2-0.1,0.3-0.1h0.9v2.4h2v1.3h-2v4.1
			c0,0.2,0.1,0.4,0.2,0.6s0.3,0.2,0.5,0.2c0.1,0,0.2,0,0.3,0c0.1,0,0.1-0.1,0.2-0.1s0.1-0.1,0.2-0.1h0.1c0.1,0,0.1,0,0.1,0l0.1,0.1
			l0.5,0.9c-0.3,0.2-0.6,0.4-0.9,0.5C118,50.1,117.6,50.1,117.3,50.1z"/>
		<path class="st1" d="M122.1,42.5v4.8c0,0.5,0.1,0.8,0.3,1.1c0.2,0.3,0.5,0.4,1,0.4c0.3,0,0.6-0.1,0.9-0.2s0.5-0.3,0.8-0.6v-5.5
			h1.8V50h-1.1c-0.2,0-0.4-0.1-0.5-0.3l-0.1-0.6c-0.2,0.2-0.3,0.3-0.5,0.4c-0.2,0.1-0.3,0.2-0.5,0.3s-0.4,0.2-0.6,0.2
			c-0.2,0.1-0.5,0.1-0.7,0.1c-0.4,0-0.8-0.1-1.1-0.2c-0.3-0.1-0.6-0.3-0.8-0.6s-0.4-0.6-0.5-0.9s-0.2-0.7-0.2-1.2v-4.8L122.1,42.5
			L122.1,42.5z"/>
		<path class="st1" d="M128.8,52.5v-10h1.1c0.1,0,0.2,0,0.3,0.1s0.1,0.1,0.2,0.3l0.1,0.7c0.3-0.3,0.7-0.6,1-0.8
			c0.4-0.2,0.9-0.3,1.4-0.3c0.4,0,0.8,0.1,1.1,0.3s0.6,0.4,0.9,0.7c0.2,0.3,0.4,0.7,0.6,1.2s0.2,1,0.2,1.6s-0.1,1.1-0.2,1.6
			c-0.2,0.5-0.4,0.9-0.7,1.3c-0.3,0.4-0.6,0.6-1,0.8s-0.8,0.3-1.3,0.3c-0.4,0-0.8-0.1-1.1-0.2c-0.3-0.1-0.6-0.3-0.8-0.5v3.1h-1.8
			V52.5z M132.4,43.8c-0.4,0-0.7,0.1-1,0.2c-0.3,0.2-0.5,0.4-0.7,0.7v3.4c0.2,0.3,0.4,0.4,0.7,0.5c0.2,0.1,0.5,0.2,0.8,0.2
			s0.5-0.1,0.7-0.2s0.4-0.3,0.6-0.5s0.3-0.5,0.4-0.8c0.1-0.3,0.1-0.7,0.1-1.1c0-0.4,0-0.8-0.1-1.1s-0.2-0.6-0.3-0.7
			c-0.1-0.2-0.3-0.3-0.5-0.4C132.8,43.8,132.6,43.8,132.4,43.8z"/>
		<path class="st1" d="M145.7,46.1c0.1,0.2,0.1,0.3,0.2,0.5c0.1-0.2,0.1-0.4,0.2-0.5c0.1-0.2,0.2-0.3,0.2-0.5l3.1-5.9
			c0-0.1,0.1-0.1,0.1-0.2s0.1-0.1,0.1-0.1c0.1,0,0.1,0,0.2,0c0.1,0,0.1,0,0.2,0h1.5V50h-1.7v-6.9c0-0.1,0-0.3,0-0.4s0-0.3,0-0.5
			l-3.2,6c-0.1,0.1-0.2,0.2-0.3,0.3s-0.3,0.1-0.4,0.1h-0.3c-0.2,0-0.3,0-0.4-0.1s-0.2-0.2-0.3-0.3l-3.3-6.1c0,0.2,0,0.3,0,0.5
			s0,0.3,0,0.4v7h-1.7V39.4h1.5c0.1,0,0.2,0,0.2,0c0.1,0,0.1,0,0.2,0c0.1,0,0.1,0.1,0.1,0.1s0.1,0.1,0.1,0.2l3.2,5.9
			C145.5,45.8,145.6,45.9,145.7,46.1z"/>
		<path class="st1" d="M159.6,50h-0.8c-0.2,0-0.3,0-0.4-0.1c-0.1-0.1-0.2-0.2-0.2-0.3l-0.2-0.5c-0.2,0.2-0.4,0.3-0.6,0.5
			s-0.4,0.2-0.6,0.3c-0.2,0.1-0.4,0.2-0.6,0.2c-0.2,0-0.5,0.1-0.7,0.1c-0.3,0-0.6,0-0.9-0.1c-0.3-0.1-0.5-0.2-0.7-0.4
			s-0.3-0.4-0.5-0.6c-0.1-0.3-0.2-0.6-0.2-0.9c0-0.3,0.1-0.6,0.2-0.8c0.1-0.3,0.4-0.5,0.7-0.8c0.3-0.2,0.8-0.4,1.4-0.6
			c0.6-0.1,1.3-0.2,2.2-0.2v-0.4c0-0.5-0.1-0.9-0.3-1.1c-0.2-0.2-0.5-0.4-0.9-0.4c-0.3,0-0.5,0-0.7,0.1s-0.4,0.1-0.5,0.2
			s-0.3,0.2-0.4,0.2c-0.1,0.1-0.3,0.1-0.4,0.1c-0.1,0-0.2,0-0.3-0.1s-0.2-0.1-0.2-0.2l-0.3-0.6c0.9-0.8,1.9-1.2,3.1-1.2
			c0.4,0,0.8,0.1,1.2,0.2s0.6,0.3,0.9,0.6c0.2,0.3,0.4,0.6,0.5,0.9s0.2,0.8,0.2,1.2V50z M156,48.9c0.2,0,0.4,0,0.5-0.1
			c0.2,0,0.3-0.1,0.4-0.2c0.1-0.1,0.3-0.2,0.4-0.2s0.3-0.2,0.4-0.4v-1.3c-0.5,0-1,0-1.3,0.1c-0.4,0.1-0.6,0.2-0.9,0.3
			c-0.2,0.1-0.4,0.2-0.5,0.4s0,0.3,0,0.5c0,0.3,0.1,0.6,0.3,0.7C155.5,48.8,155.7,48.9,156,48.9z"/>
		<path class="st1" d="M165.8,43.9c0,0.1-0.1,0.1-0.2,0.2c-0.1,0-0.1,0-0.2,0c-0.1,0-0.2,0-0.3-0.1c-0.1,0-0.2-0.1-0.3-0.2
			c-0.1-0.1-0.3-0.1-0.5-0.2c-0.2,0-0.4-0.1-0.6-0.1c-0.4,0-0.6,0.1-0.8,0.2c-0.2,0.2-0.3,0.4-0.3,0.6c0,0.2,0.1,0.3,0.2,0.4
			c0.1,0.1,0.2,0.2,0.4,0.3s0.4,0.2,0.6,0.2s0.4,0.1,0.7,0.2c0.2,0.1,0.5,0.2,0.7,0.3s0.4,0.2,0.6,0.4c0.2,0.2,0.3,0.3,0.4,0.6
			c0.1,0.2,0.2,0.5,0.2,0.8c0,0.4-0.1,0.7-0.2,1s-0.3,0.6-0.6,0.8s-0.6,0.4-0.9,0.5s-0.8,0.2-1.3,0.2c-0.3,0-0.5,0-0.8-0.1
			c-0.2,0-0.5-0.1-0.7-0.2s-0.4-0.2-0.6-0.3c-0.2-0.1-0.4-0.2-0.5-0.4l0.4-0.7c0.1-0.1,0.1-0.1,0.2-0.2c0.1,0,0.2-0.1,0.3-0.1
			s0.2,0,0.3,0.1s0.2,0.1,0.3,0.2c0.1,0.1,0.3,0.1,0.5,0.2c0.2,0.1,0.4,0.1,0.7,0.1c0.2,0,0.4,0,0.6-0.1c0.2-0.1,0.3-0.1,0.4-0.2
			c0.1-0.1,0.2-0.2,0.2-0.3s0.1-0.2,0.1-0.3c0-0.2-0.1-0.3-0.2-0.4s-0.2-0.2-0.4-0.3s-0.4-0.2-0.6-0.2c-0.2-0.1-0.5-0.1-0.7-0.2
			s-0.5-0.2-0.7-0.3s-0.4-0.2-0.6-0.4c-0.2-0.2-0.3-0.4-0.4-0.6s-0.2-0.5-0.2-0.9c0-0.3,0.1-0.6,0.2-0.9c0.1-0.3,0.3-0.5,0.5-0.7
			s0.5-0.4,0.9-0.5s0.8-0.2,1.2-0.2c0.5,0,1,0.1,1.4,0.3s0.8,0.4,1.1,0.7L165.8,43.9z"/>
		<path class="st1" d="M170.3,50.1c-0.7,0-1.2-0.2-1.5-0.6s-0.5-0.9-0.5-1.5v-4.2h-0.8c-0.1,0-0.2,0-0.3-0.1s-0.1-0.2-0.1-0.3v-0.7
			l1.2-0.2l0.4-2.1c0-0.1,0.1-0.2,0.1-0.2c0.1-0.1,0.2-0.1,0.3-0.1h0.9v2.4h2v1.3h-2v4.1c0,0.2,0.1,0.4,0.2,0.6s0.3,0.2,0.5,0.2
			c0.1,0,0.2,0,0.3,0s0.1-0.1,0.2-0.1c0.1,0,0.1-0.1,0.2-0.1h0.1c0.1,0,0.1,0,0.1,0l0.1,0.1l0.5,0.9c-0.3,0.2-0.6,0.4-0.9,0.5
			C171,50.1,170.6,50.1,170.3,50.1z"/>
		<path class="st1" d="M176.6,42.3c0.5,0,0.9,0.1,1.3,0.2c0.4,0.2,0.7,0.4,1,0.7s0.5,0.6,0.7,1.1c0.2,0.4,0.2,0.9,0.2,1.5
			c0,0.1,0,0.3,0,0.3s0,0.2-0.1,0.2c0,0.1-0.1,0.1-0.1,0.1c-0.1,0-0.1,0-0.2,0h-4.7c0.1,0.8,0.3,1.3,0.6,1.7s0.8,0.5,1.4,0.5
			c0.3,0,0.5,0,0.8-0.1c0.2-0.1,0.4-0.1,0.6-0.2c0.2-0.1,0.3-0.2,0.4-0.2c0.1-0.1,0.2-0.1,0.3-0.1s0.1,0,0.2,0
			c0.1,0,0.1,0.1,0.1,0.1l0.5,0.7c-0.2,0.2-0.4,0.4-0.7,0.6s-0.5,0.3-0.8,0.4c-0.3,0.1-0.5,0.2-0.8,0.2s-0.6,0.1-0.8,0.1
			c-0.5,0-1-0.1-1.5-0.3s-0.8-0.4-1.2-0.8s-0.6-0.8-0.8-1.3s-0.3-1.1-0.3-1.7c0-0.5,0.1-1,0.3-1.5s0.4-0.8,0.7-1.2
			c0.3-0.3,0.7-0.6,1.1-0.8C175.5,42.4,176,42.3,176.6,42.3z M176.6,43.6c-0.5,0-0.9,0.1-1.2,0.4c-0.3,0.3-0.5,0.7-0.6,1.3h3.4
			c0-0.2,0-0.5-0.1-0.7s-0.2-0.4-0.3-0.5s-0.3-0.3-0.5-0.4C177.1,43.7,176.9,43.6,176.6,43.6z"/>
		<path class="st1" d="M181.3,50v-7.5h1.1c0.2,0,0.3,0,0.4,0.1c0.1,0.1,0.1,0.2,0.1,0.4l0.1,0.9c0.3-0.5,0.6-0.8,0.9-1.1
			s0.8-0.4,1.2-0.4s0.7,0.1,0.9,0.3l-0.2,1.4c0,0.1,0,0.2-0.1,0.2c0,0-0.1,0.1-0.2,0.1c-0.1,0-0.2,0-0.3-0.1s-0.3-0.1-0.5-0.1
			c-0.4,0-0.7,0.1-1,0.3s-0.5,0.5-0.7,0.9V50H181.3z"/>
		<path class="st1" d="M191.8,43.9c0,0.1-0.1,0.1-0.2,0.2c-0.1,0-0.1,0-0.2,0c-0.1,0-0.2,0-0.3-0.1c-0.1,0-0.2-0.1-0.3-0.2
			c-0.1-0.1-0.3-0.1-0.5-0.2c-0.2,0-0.4-0.1-0.6-0.1c-0.4,0-0.6,0.1-0.8,0.2c-0.2,0.2-0.3,0.4-0.3,0.6c0,0.2,0.1,0.3,0.2,0.4
			c0.1,0.1,0.2,0.2,0.4,0.3s0.4,0.2,0.6,0.2s0.4,0.1,0.7,0.2c0.2,0.1,0.5,0.2,0.7,0.3s0.4,0.2,0.6,0.4c0.2,0.2,0.3,0.3,0.4,0.6
			c0.1,0.2,0.2,0.5,0.2,0.8c0,0.4-0.1,0.7-0.2,1s-0.3,0.6-0.6,0.8s-0.6,0.4-0.9,0.5s-0.8,0.2-1.3,0.2c-0.3,0-0.5,0-0.8-0.1
			c-0.2,0-0.5-0.1-0.7-0.2s-0.4-0.2-0.6-0.3c-0.2-0.1-0.4-0.2-0.5-0.4l0.4-0.7c0.1-0.1,0.1-0.1,0.2-0.2c0.1,0,0.2-0.1,0.3-0.1
			s0.2,0,0.3,0.1s0.2,0.1,0.3,0.2c0.1,0.1,0.3,0.1,0.5,0.2c0.2,0.1,0.4,0.1,0.7,0.1c0.2,0,0.4,0,0.6-0.1c0.2-0.1,0.3-0.1,0.4-0.2
			c0.1-0.1,0.2-0.2,0.2-0.3s0.1-0.2,0.1-0.3c0-0.2-0.1-0.3-0.2-0.4s-0.2-0.2-0.4-0.3s-0.4-0.2-0.6-0.2c-0.2-0.1-0.5-0.1-0.7-0.2
			s-0.5-0.2-0.7-0.3s-0.4-0.2-0.6-0.4c-0.2-0.2-0.3-0.4-0.4-0.6s-0.2-0.5-0.2-0.9c0-0.3,0.1-0.6,0.2-0.9c0.1-0.3,0.3-0.5,0.5-0.7
			s0.5-0.4,0.9-0.5s0.8-0.2,1.2-0.2c0.5,0,1,0.1,1.4,0.3s0.8,0.4,1.1,0.7L191.8,43.9z"/>
	</g>
</g>
<g>
	<path id="XMLID_199_" class="st0" d="M38.2,34.9l-0.4,0.8c0,0-1.6,1.2-1.6,2c0.1,0.4,0.6,1.5,0.6,1.5s-2.6-3-2.9-2.8
		c-0.4-0.6-2,2.1-2,2.1s1.2,1.1,1.7,1.2c0.5,0.1,1.8-0.3,1.9-0.1c0.1,0.2,0.2,1.5-3.6,0.1c-0.2-0.1-1,0.3-1.4,0.7
		c-0.6-0.1-3.3-0.3-2.6-0.7c0,0,2.5,0.5,3-1c-0.1-0.7-0.9-3.1-2.6-2.2c-0.7,0-3.6,6.8-1.9,1.3c-0.2-0.5-0.6,0.1-2.5-2.7
		c-0.1-0.1-0.5,1.3-1.1,3.3c0.4,1.3,0.8,5,0.8,6.5c0,2.1,0.7,6.3,0.7,6.3c0,0.1,0.7-4.4,0.7-4.4s0.1,6.8,0.2,7.2
		c0.1,0.5,1.4,2.3,1.4,2.9c0.4,0.6,1.8,2.6,1.1-1.2c0.1-1.2,0.9-3.4,1.1,0.9c0.2,0.9,1.2,2.5,1.5,2.7c0.4,0.2,0.7,1.5,0.6-10.6
		c0.1,1,1.7,14.8,1.7,14.8l2.1-9.4c0,0,0.6,3.2,1.7,4.6c0.2-0.4,1.3-1.8,1.5-5.1c0.5-0.6,1.2-1.1,1.4-1.2c0.2-0.1,0.1-2.3-0.4-4.9
		c0.3-0.2,0.7,1,0.7,1s0.5-2.8-0.4-4.8c-0.3-2,0.6-6.3,0.6-6.7C39.8,36.4,38.8,34.7,38.2,34.9z"/>
	<path id="XMLID_198_" class="st2" d="M29.7,27.6c0,0-2.1-4.8,1,0.1c0.3-0.1,3.1-1.5,3.9-0.8c0.4,0.4,1.8,2,1.8,2.2s0.1,0.4-3.7,1.4
		c-0.1,0-1.3,1.2,0.6,2.2c0.5,0.3,2.6,1.7,3.8,0.2c0.2,0.2,1.9,1.4-1.2,3.2c-0.3,0-0.8,0.2-2.9-1.9c-0.1,0.1,0.8,3-1.8,2.6
		c-0.4-0.1-1.1-0.1-1.5-1.4c0-0.3,0-1,0.2-1.2s-1.9,1.9-3,2c-0.8,0-2.6-0.6-2.7-2.6c0.1-0.9,0.6-1.1,0.6-1.1s2.8,2.5,5.6-0.6
		c0.2-0.2,1-1.2-0.4-1.9c-0.2-0.1-3.3-0.6-3.6-1.2C26.7,28.6,26.4,28.6,29.7,27.6z"/>
	<path id="XMLID_197_" class="st0" d="M51.5,37.5c0,0-0.5,1.1,0,2.3c0.5,0.8,0.3,0.8,0.6,1.3c0.6,0.1,0.8,0.6,1-1
		C53,38.6,53,37.2,51.5,37.5z"/>
	<path id="XMLID_195_" class="st0" d="M12.3,14.2c0,0,0.9,0-1.6-2.8c-0.2,0-0.8-0.5-0.2,1.2C11,13.2,11.5,14.1,12.3,14.2z"/>
	<path id="XMLID_159_" class="st0" d="M7.5,13.3c0,0,1.1-0.5-1.7-2.6C5.7,10.7,4.6,10.6,7.5,13.3z"/>
	<path id="XMLID_141_" class="st0" d="M4.6,4.3c0,0,0.3-0.6,0.9,0.3c0.5,0.8,2,2.7,2,2.8c0,0.1-0.1,0.5-0.2,0.7
		c-0.4,0-0.5,0.3-1.4-1.2C5.4,6.3,3.9,4.9,4.6,4.3z"/>
	<path id="XMLID_140_" class="st0" d="M10.3,6.4c0,0,1.1,0.1,1.7,1.9c0.1,0.2-0.2,0.3-0.4,0.1c-0.2-0.1-1.3-1.3-1.3-1.5
		C10.2,6.7,10,6.5,10.3,6.4z"/>
	<path id="XMLID_83_" class="st0" d="M11.9,1.6c0,0-0.6,1-0.2,1.6c0.4,0.6,1.5,1.5,2,1.7c0.5-0.5,0.3-1.5,0.2-1.8
		C13.4,2.8,12.1,1.1,11.9,1.6z"/>
	<path id="XMLID_80_" class="st0" d="M15.4,7.3c0,0-0.2,0.1,0.4,0.6c0.4,0.6,0.7,1,0.9,0.9c0.1-0.2,0-0.4,0-0.4S15.8,6.5,15.4,7.3z"
		/>
	<path id="XMLID_32_" class="st0" d="M18.1,4.3c0,0-0.3-0.1,0.3,0.6c0.4,0.7,0.7,1.1,1,1.1c0.2-0.1,0.1-0.3,0.1-0.3
		S18.9,3.8,18.1,4.3z"/>
	<path id="XMLID_46_" class="st0" d="M52.8,21.9c-2.1-8.2-9.2-12.8-9.4-13c-10.3-7-19.7-2.3-19.7-2.3s0.8,0.3,0.7,0.9
		c-0.1,0.6-0.8,0.3-0.8,0.3l-0.8-1l-1.1,0.4c0,0,0.1,0.2-0.1,0.6c-1.4-0.2-2.7,1-2.7,1l-0.3,0.9c0,0-1.2,1.1-0.2,1.1s1.5,2.3,1.7,3
		c5.6,7-1.1-0.2-1.7-0.9c-2.2,0-2.4-1.4-2.4-1.4s-1.2,1.4-1.5,2c1.9,0.5,0.2,3.3-0.1,2.7c-0.3-0.5-1-1.6-1.3-1.5
		c0.2,5.1-2.1,2.6-2.1,2.6s0,0-0.3,0.6c2.7,3.6-0.3,1-0.3,1c-5.7,13.9,2.7,22.7,2.7,22.7c0-0.6,1.1-2.4,1.3-2.9
		c0.3-0.6,0.7-1.1,1.2-3.3c0.5-2.2,1.6-2,1.8-4.9c0.1-2.9,3.3-9.8,3.3-9.8l0.2-1.1c0,0,6.9-5.9,7.4-6.4c3.2-2.8,5.8-1.4,6.6-0.9
		c1.3,1.4,7.5,8.4,7.9,9c0.6,1.7,2,7.7,2.2,9.2s4.2,7.3,4.4,7.8c0.1-0.5,0.6-1.6,0.6-1.6c1.5-3,0.4-2.5,0-2.8
		c-0.7-1.2-0.3-2.2,0-2.1c3.9,3.2,1.6-1.9,1.6-1.9s1,1.5,1.6,2.3C54.3,27.4,53,22.5,52.8,21.9z M22.8,12.8c-0.6,0.6-1.3-1.2-2-2.2
		c-0.9-1.1-0.3-1.3-0.3-1.3c0.4-0.7,1.7,1.7,2.3,2.4C23.3,12.4,23,12.5,22.8,12.8z"/>
	<g id="Layer_4_2_">
		<path id="XMLID_45_" class="st0" d="M28,24.6c0,0-4.1-9.3,1.6,0.2c0.5-0.2,2.8-2.2,4.9,0c0.2-0.2,1.6-2.5,0.5,0.3
			c0.4,0.2,1.2,0.4,2.9,5.4c0.5,1.3,8,18.4,8,18.4s0.6,3.1-1.1,1.9c-0.3-0.6-0.4-1.2-0.1-2.2c-0.3-0.7-2.1-3.5-2.9-5.9
			c0,0.2-0.6-1.2-0.4,6.4c0.1,0.3,2,6.4,4.8,4.3c0.1,0.4,0.9,3.5,3.3-2.2c0.4-0.4,1.7-1.5,2.3-2.7c0.2-0.6,0.6-0.9-0.6-1.6
			c0.2-0.3,1.1-0.2-0.2-1.9c-0.7-1.5-6.5-12-6.5-12.2c-0.2-0.6-2.1-3.3-6.9-10.2c0.6,0.9,5.8,7.4,6,7.6c-0.1-1,0.7-1.1-2.1-6.1
			c-0.3-1.5,0-2.1-1.6-3.5C40.2,20.5,40,20,40,20s-2-3.2-7.1-6.8c-0.7-0.3-2.7-0.8-5.3,1.6c-1.2,1-4.7,3.8-4.8,5.1
			c-0.3,0-0.9,0.5-2.2,4.3c-0.1,0.4-1.7,3.9-1.7,4.1c0.1,0.6,0.1,2.2,0.1,2.2l5.7-9c0,0-7,12.5-7.5,14c-0.5,1.4-2.8,7-3.4,8
			c-0.6,1-2.2,3.9-2.3,4.3c0,0.4-1.1,0.1,1.7,3.4c0.4,0.8,1.1,2.1,1.3,3.5c0.9,0.1,2.1,1.5,7.9-4.2c0-0.7-0.4-4.3-0.3-5.2
			c-0.4-1.5-1.1-2.3-1.2-2.4c-0.1-0.1-0.7,1.3-0.9,2.1c-0.5,1.2-1.7,2.8-0.6,4.4c-0.1,0.1-1.3,1.2-1.8,1.6c-0.4-0.4-1.5-1.3,1.2-6.2
			c1.2-2.7,3.3-7.4,4-9.3c0.6-2,1.9-3.9,2-5.6c0.6-0.7,0.9,0.1,1.6-3.3C26.7,25.9,27.6,24.7,28,24.6z"/>
	</g>
</g>
</svg>
