<?xml version="1.0" encoding="utf-8"?>
<!-- Generator: Adobe Illustrator 21.0.0, SVG Export Plug-In . SVG Version: 6.00 Build 0)  -->
<svg version="1.1" id="Layer_1" xmlns="http://www.w3.org/2000/svg" xmlns:xlink="http://www.w3.org/1999/xlink" x="0px" y="0px"
	 viewBox="0 0 106.3 63.5" style="enable-background:new 0 0 106.3 63.5;" xml:space="preserve">
<style type="text/css">
	.st0{fill:#828999;}
</style>
<g>
	<g>
		<polygon class="st0" points="10.4,41.7 1.3,35.4 1.3,1.9 10.4,4.7 10.4,27.2 1.5,35.1 23.1,23.7 17.1,21 13.1,12.3 33.2,18.3 
			33.2,28.1 		"/>
		<g>
			<path class="st0" d="M58.8,18.3c-1.2-1.5-3-2.3-5.2-2.3c-2.6,0-4.6,1.1-5.9,3.4h-0.1V9.1L45,8.4v25.2h2.7V31h0.1
				c1.2,1.9,2.8,2.8,5.1,2.8c2.4,0,4.3-0.8,5.6-2.6c1.4-1.7,2.1-4,2.1-6.8C60.7,21.9,60,19.9,58.8,18.3z M56.5,29.7
				c-0.9,1.2-2.2,1.9-3.9,1.9c-1.4,0-2.6-0.5-3.5-1.5c-0.9-0.9-1.4-2.2-1.4-3.6v-2.4c0-1.7,0.5-3,1.4-4.2c0.9-1.1,2.2-1.7,3.8-1.7
				c1.5,0,2.7,0.5,3.6,1.6c0.9,1.1,1.3,2.6,1.3,4.4C57.8,26.6,57.4,28.4,56.5,29.7z"/>
			<path class="st0" d="M65.6,12.6c-0.5,0-0.9-0.2-1.2-0.5c-0.3-0.3-0.5-0.7-0.5-1.2c0-0.5,0.2-0.9,0.5-1.2c0.3-0.3,0.7-0.5,1.2-0.5
				c0.5,0,0.9,0.2,1.2,0.5c0.4,0.3,0.5,0.7,0.5,1.2c0,0.5-0.2,0.9-0.5,1.2C66.6,12.4,66.1,12.6,65.6,12.6z"/>
			<polygon class="st0" points="67,33.5 64.2,33.5 64.2,16.5 67,16.5 			"/>
			<path class="st0" d="M85.6,33.5h-2.7v-9.7c0-3.6-1.3-5.4-4-5.4c-1.4,0-2.5,0.5-3.4,1.5c-0.9,1-1.3,2.3-1.3,3.9v9.7h-2.7v-17h2.7
				v2.8h0.1c1.2-2.2,3.1-3.2,5.6-3.2c1.8,0,3.3,0.6,4.3,1.8c1,1.2,1.5,2.9,1.5,5.2L85.6,33.5L85.6,33.5z"/>
			<path class="st0" d="M104.8,32.1V16.5h-2.7v2.2H102c-1.1-1.8-2.7-2.7-5-2.7c-2.4,0-4.3,0.9-5.7,2.6c-1.4,1.7-2.1,4-2.1,6.9
				c0,2.6,0.7,4.6,2,6.1c1.2,1.5,3,2.3,5.1,2.3c2.6,0,4.6-1.1,5.8-3.2h0.1v1.8c0,4.4-2.2,6.6-6.3,6.6c-1.5,0-3.1-0.5-4.7-1.2
				l-0.7,2.4c1.6,0.8,3.4,1.2,5.5,1.2C101.8,41.5,104.8,38.3,104.8,32.1L104.8,32.1z M102,25.7c-0.1,3-1.8,5.6-5.2,5.6
				c-3.3,0-5-2.8-5-6.1c0.1-3.4,1.4-7,5.4-7c2.6,0,4.7,2.2,4.7,4.9V25.7L102,25.7z"/>
		</g>
		<g>
			<path class="st0" d="M28.1,47.2c1.7,0,3,0.4,3.9,1.1c0.8,0.7,1.3,1.8,1.3,3.2c0,0.7-0.1,1.2-0.4,1.7c-0.2,0.5-0.6,1-1,1.4
				c-0.4,0.4-1,0.7-1.7,0.9c-0.7,0.2-1.4,0.3-2.2,0.3h-2.7v5.9h-1.1V47.2H28.1z M28.1,55.1c0.7,0,1.2-0.1,1.7-0.2
				c0.5-0.1,0.9-0.4,1.2-0.7c0.4-0.3,0.7-0.7,0.8-1.1c0.2-0.4,0.2-0.9,0.2-1.4c0-1.1-0.3-2-1-2.6c-0.7-0.6-1.7-0.9-3.1-0.9h-2.7v7.1
				C25.4,55.1,28.1,55.1,28.1,55.1z"/>
			<path class="st0" d="M35.2,53c0.5-0.5,1.1-0.9,1.7-1.2c0.6-0.2,1.2-0.4,2-0.4c0.5,0,1,0.1,1.4,0.2c0.4,0.2,0.7,0.4,1,0.7
				c0.2,0.3,0.5,0.7,0.7,1.2c0.2,0.5,0.2,1,0.2,1.5v6.6h-0.4c-0.2,0-0.3-0.1-0.4-0.2l-0.2-1.3c-0.2,0.2-0.6,0.5-0.8,0.7
				c-0.2,0.2-0.6,0.4-0.8,0.6c-0.3,0.2-0.7,0.2-1,0.4s-0.7,0.1-1.2,0.1c-0.4,0-0.7-0.1-1-0.2c-0.3-0.1-0.7-0.2-0.9-0.5
				c-0.2-0.2-0.5-0.5-0.7-0.8c-0.2-0.3-0.2-0.7-0.2-1.2c0-0.4,0.1-0.8,0.4-1.2c0.2-0.4,0.7-0.7,1.2-0.9c0.5-0.2,1.2-0.5,2-0.7
				c0.8-0.2,1.8-0.2,3-0.2v-1.1c0-0.9-0.2-1.7-0.7-2.2c-0.4-0.5-1-0.8-1.8-0.8c-0.5,0-0.9,0.1-1.2,0.2c-0.4,0.2-0.7,0.2-0.9,0.5
				c-0.2,0.2-0.4,0.3-0.6,0.5c-0.2,0.2-0.2,0.2-0.4,0.2c-0.1,0-0.2,0-0.2-0.1c-0.1-0.1-0.1-0.1-0.1-0.2L35.2,53z M41.2,56.8
				c-0.9,0.1-1.8,0.1-2.6,0.2c-0.7,0.1-1.2,0.2-1.7,0.5c-0.5,0.2-0.8,0.5-1,0.7c-0.2,0.2-0.3,0.7-0.3,0.9c0,0.3,0.1,0.7,0.2,0.9
				s0.2,0.5,0.5,0.7c0.2,0.2,0.4,0.2,0.7,0.4c0.2,0.1,0.5,0.1,0.8,0.1c0.4,0,0.7-0.1,1.1-0.1c0.3-0.1,0.7-0.2,0.9-0.4
				c0.2-0.2,0.5-0.3,0.8-0.5s0.5-0.4,0.7-0.7L41.2,56.8L41.2,56.8z"/>
			<path class="st0" d="M46.4,54c0.2-0.4,0.3-0.8,0.5-1.1c0.2-0.4,0.4-0.6,0.7-0.8c0.3-0.2,0.6-0.4,0.9-0.5c0.3-0.1,0.7-0.2,1.1-0.2
				c0.2,0,0.4,0,0.7,0.1c0.2,0.1,0.4,0.1,0.5,0.2l-0.1,0.7c-0.1,0.1-0.1,0.2-0.2,0.2c-0.1,0-0.2,0-0.4-0.1s-0.4-0.1-0.7-0.1
				c-0.4,0-0.7,0.1-1.1,0.2c-0.3,0.1-0.6,0.3-0.8,0.5S47,53.6,46.9,54s-0.4,0.7-0.5,1.2v6.6h-1V51.6h0.5c0.1,0,0.2,0,0.2,0.1
				c0.1,0.1,0.1,0.1,0.1,0.2L46.4,54z"/>
			<path class="st0" d="M55.5,61.9c-0.7,0-1.2-0.2-1.7-0.6c-0.4-0.4-0.6-0.9-0.6-1.8v-7h-1.5c-0.1,0-0.2,0-0.2-0.1
				c-0.1-0.1-0.1-0.1-0.1-0.2V52l1.7-0.1l0.2-3.7c0-0.1,0.1-0.1,0.1-0.2c0.1-0.1,0.1-0.1,0.2-0.1h0.5v3.9h3.2v0.7h-3.2v6.9
				c0,0.2,0.1,0.5,0.1,0.7c0.1,0.2,0.2,0.4,0.3,0.5c0.1,0.1,0.2,0.2,0.4,0.2s0.4,0.1,0.6,0.1c0.2,0,0.5-0.1,0.7-0.1
				c0.2-0.1,0.3-0.2,0.5-0.2c0.1-0.1,0.2-0.2,0.3-0.2c0.1-0.1,0.2-0.1,0.2-0.1c0.1,0,0.1,0.1,0.2,0.1l0.2,0.4
				c-0.2,0.2-0.6,0.5-1,0.7C56.4,61.9,55.9,61.9,55.5,61.9z"/>
			<path class="st0" d="M60.7,53.3c0.5-0.6,1-1.1,1.7-1.4s1.3-0.5,2.1-0.5c0.6,0,1.1,0.1,1.5,0.2c0.4,0.2,0.8,0.4,1.1,0.8
				c0.2,0.3,0.5,0.7,0.7,1.2c0.2,0.5,0.2,1,0.2,1.6v6.6h-1v-6.6c0-0.9-0.2-1.7-0.7-2.3c-0.4-0.5-1.1-0.8-2-0.8
				c-0.7,0-1.2,0.2-1.8,0.5c-0.6,0.3-1.1,0.8-1.5,1.4v7.7h-1V51.6h0.5c0.2,0,0.2,0.1,0.3,0.2L60.7,53.3z"/>
			<path class="st0" d="M71.5,56.2v0.2c0,0.8,0.1,1.4,0.2,2c0.2,0.6,0.4,1.1,0.7,1.5c0.3,0.4,0.7,0.7,1.2,0.9c0.5,0.2,1,0.3,1.6,0.3
				c0.5,0,0.9-0.1,1.3-0.2c0.4-0.1,0.7-0.2,0.9-0.4c0.2-0.2,0.5-0.2,0.7-0.4c0.2-0.1,0.2-0.2,0.3-0.2c0.1,0,0.2,0.1,0.2,0.1l0.2,0.3
				c-0.2,0.2-0.4,0.4-0.7,0.6c-0.2,0.2-0.6,0.3-0.9,0.5c-0.3,0.1-0.7,0.2-1.1,0.3C76,61.9,75.6,62,75.2,62c-0.7,0-1.3-0.1-1.9-0.4
				c-0.6-0.2-1.1-0.6-1.5-1.1s-0.7-1.1-0.9-1.7c-0.2-0.7-0.3-1.4-0.3-2.3c0-0.7,0.1-1.4,0.3-2c0.2-0.7,0.5-1.2,0.9-1.6
				c0.4-0.5,0.9-0.8,1.4-1.1c0.6-0.2,1.2-0.4,2-0.4c0.6,0,1.1,0.1,1.6,0.3c0.5,0.2,0.9,0.5,1.2,0.8s0.7,0.8,0.8,1.4
				c0.2,0.6,0.3,1.2,0.3,1.9c0,0.2,0,0.2-0.1,0.3s-0.1,0.1-0.2,0.1h-7.5v-0.1H71.5z M78.4,55.6c0-0.5-0.1-1.1-0.2-1.5
				s-0.4-0.8-0.7-1.1c-0.2-0.3-0.7-0.5-1-0.7c-0.4-0.2-0.8-0.2-1.2-0.2c-0.5,0-1,0.1-1.4,0.2c-0.4,0.1-0.8,0.4-1.1,0.7
				c-0.3,0.3-0.5,0.7-0.7,1.1c-0.2,0.4-0.3,0.9-0.4,1.4L78.4,55.6L78.4,55.6z"/>
			<path class="st0" d="M82.8,54c0.2-0.4,0.3-0.8,0.5-1.1s0.4-0.6,0.7-0.8c0.2-0.2,0.6-0.4,0.9-0.5c0.3-0.1,0.7-0.2,1.1-0.2
				c0.2,0,0.4,0,0.7,0.1c0.2,0.1,0.4,0.1,0.5,0.2l-0.1,0.7c-0.1,0.1-0.1,0.2-0.2,0.2c-0.1,0-0.2,0-0.4-0.1c-0.2-0.1-0.4-0.1-0.7-0.1
				c-0.4,0-0.7,0.1-1.1,0.2c-0.3,0.1-0.6,0.3-0.8,0.5c-0.2,0.2-0.5,0.5-0.7,0.9c-0.2,0.4-0.4,0.7-0.5,1.2v6.6h-1V51.6h0.5
				c0.1,0,0.2,0,0.2,0.1c0.1,0.1,0.1,0.1,0.1,0.2L82.8,54z"/>
		</g>
	</g>
</g>
</svg>
