<?xml version="1.0" encoding="utf-8"?>
<!-- Generator: Adobe Illustrator 21.0.0, SVG Export Plug-In . SVG Version: 6.00 Build 0)  -->
<svg version="1.1" id="Layer_1" xmlns="http://www.w3.org/2000/svg" xmlns:xlink="http://www.w3.org/1999/xlink" x="0px" y="0px"
	 viewBox="0 0 226.5 47.5" style="enable-background:new 0 0 226.5 47.5;" xml:space="preserve">
<style type="text/css">
	.st0{fill:#828999;}
</style>
<g>
	<g>
		<g>
			<path class="st0" d="M150,20c1.3,0,2.4,0,3.6,0c0,0.2,0,0.4,0.1,0.6c0.1,1.1,0.7,1.8,1.7,2.2c1.2,0.4,2.5,0.5,3.7,0.1
				c0.9-0.3,1.5-0.9,1.6-1.8c0.1-1-0.2-1.8-1-2.2c-0.8-0.4-1.7-0.8-2.5-1.1c-1.5-0.5-2.9-1-4.3-1.8c-1.2-0.7-2-1.7-2.3-3.1
				c-0.3-1.7,0.2-3.2,1.5-4.4c1.1-0.9,2.4-1.4,3.8-1.6c1.7-0.3,3.2-0.2,4.8,0.4c1.7,0.7,3.1,1.8,3.6,3.7c0.1,0.4,0.1,0.8,0.1,1.2
				c0,0.1-0.1,0.3-0.2,0.3c-1.1,0-2.3,0-3.4,0c-0.1-0.3-0.1-0.6-0.1-0.8c-0.3-0.9-0.8-1.5-1.7-1.8c-1-0.4-2.1-0.4-3.1,0
				c-1.1,0.4-1.8,1.5-1.5,2.5c0.1,0.5,0.4,1,1,1.1c1,0.4,2,0.9,3.1,1.3c1.4,0.4,2.9,1,4.1,1.8c1.8,1.3,2.5,3.4,1.8,5.5
				c-0.4,1.5-1.5,2.5-2.9,3c-3.1,1.2-6.2,1-9.1-0.8c-1.5-1-2.2-2.3-2.3-4.1C150,20.3,150,20.2,150,20z"/>
			<path class="st0" d="M199.3,13.2c0-2.5,0-5,0-7.5c1.3,0,2.5,0,3.7,0c0,6.7,0,13.3,0,20c-1,0-2.1,0-3.2,0c-0.1-0.5-0.2-1-0.3-1.6
				c-0.1,0.1-0.2,0.2-0.2,0.3c-1.9,2.6-5.7,2-7.3-0.1c-0.8-1.1-1.3-2.4-1.4-3.7c-0.2-1.8-0.1-3.6,0.5-5.4c0.3-0.7,0.6-1.3,1.1-1.9
				c1.5-2,5-2.5,6.9-0.2c0.1,0.1,0.1,0.1,0.1,0.2C199.2,13.2,199.2,13.2,199.3,13.2z M199.3,18.9c0-0.9,0-1.8,0-2.7
				c0-0.1-0.1-0.3-0.1-0.4c-0.6-0.9-1.5-1.3-2.5-1.2c-1,0.1-1.6,0.7-1.9,1.6c-0.5,1.3-0.5,2.7-0.4,4.1c0.1,0.6,0.3,1.1,0.4,1.7
				c0.2,0.4,0.5,0.8,1,1c1.1,0.6,2.6,0.2,3.4-0.8c0.1-0.1,0.2-0.4,0.2-0.6C199.3,20.7,199.3,19.8,199.3,18.9z"/>
			<path class="st0" d="M67.5,13.4c-0.1-0.4-0.1-0.8-0.1-1.1c-0.3-1.6-1.4-2.5-3.1-2.5c-2.1-0.1-3.6,1.1-3.9,3.3
				c-0.1,0.5-0.1,1-0.1,1.6c0,1.3,0,2.5,0,3.9c0,1.1,0.3,2.2,0.9,3.1c1.1,1.6,3.3,2.1,5,1.1c0.9-0.5,1.3-1.3,1.4-2.3
				c0.1-0.3,0.1-0.6,0.1-1c1.2,0,2.4,0,3.6,0c-0.1,0.6-0.1,1.2-0.2,1.8c-0.5,2.5-2.4,4.3-5.1,4.7c-1.7,0.3-3.4,0.3-5.1-0.4
				c-2.4-1.1-3.9-3-4.2-5.5c-0.3-2.4-0.3-4.8,0.1-7.3c0.6-3.4,3.4-5.8,6.8-5.9c1.4-0.1,2.8,0.1,4.1,0.7c2.6,1.1,3.6,3.4,3.6,5.7
				c0,0.1-0.1,0.3-0.2,0.3c-1.1,0-2.2,0-3.4,0C67.6,13.4,67.6,13.4,67.5,13.4z"/>
			<path class="st0" d="M86.1,18.8c0,1.2-0.2,2.4-0.7,3.6c-1,2.2-2.7,3.4-5.2,3.6c-2.6,0.2-4.8-0.6-6.3-2.9
				c-0.5-0.8-0.8-1.7-0.9-2.7c-0.2-1.4-0.2-2.8,0.3-4.1c1-3.3,3.5-4.8,6.9-4.6c4,0.3,5.7,3.5,5.9,6.2C86,18.1,86.1,18.5,86.1,18.8z
				 M76.6,18.8c0,1,0.1,2,0.5,2.9c0.4,1,1.3,1.4,2.3,1.4c1.1,0,1.8-0.4,2.2-1.4c0.3-0.6,0.4-1.3,0.5-2c0.1-1.3,0.1-2.5-0.4-3.7
				c-0.4-1.1-1.3-1.6-2.4-1.6c-1.1,0-1.8,0.6-2.3,1.6C76.8,16.9,76.6,17.9,76.6,18.8z"/>
			<path class="st0" d="M225.5,18.8c0,1.3-0.2,2.5-0.7,3.6c-1,2.2-2.7,3.4-5.2,3.6c-2.6,0.2-4.8-0.6-6.2-2.9
				c-0.5-0.8-0.8-1.7-0.9-2.7c-0.2-1.4-0.2-2.8,0.3-4.1c1-3.3,3.5-4.8,6.9-4.6c4,0.3,5.7,3.5,5.9,6.2
				C225.5,18.1,225.5,18.5,225.5,18.8z M216.1,18.8c0,1.1,0.1,2.1,0.6,3c0.4,0.9,1.2,1.3,2.2,1.3s1.8-0.4,2.2-1.3
				c0.3-0.6,0.4-1.3,0.6-2c0.1-1.3,0.1-2.5-0.4-3.8c-0.4-1.1-1.3-1.6-2.4-1.5c-1.1,0-1.8,0.6-2.3,1.6
				C216.2,16.9,216,17.9,216.1,18.8z"/>
			<path class="st0" d="M124.1,19.9c-2.8,0-5.5,0-8.3,0c-0.1,1.7,1.3,3.2,2.9,3.2c1.3,0.1,2.5-0.2,3.7-0.8c0.1-0.1,0.3-0.1,0.4-0.2
				c0.3,0.7,0.6,1.5,1,2.2c0,0.1-0.1,0.3-0.2,0.3c-0.9,0.6-1.9,1-3,1.2c-1.3,0.3-2.7,0.3-4.1-0.1c-2.4-0.6-4.2-2.8-4.5-5.3
				c-0.2-1.7-0.2-3.4,0.5-5.1c1.1-2.7,3.6-4.1,6.5-3.8c3.1,0.3,4.9,2.5,5.1,5.6C124.1,18.1,124.1,19,124.1,19.9z M120.5,17.4
				c0-0.4,0-0.7-0.1-1c-0.2-1.4-1.4-2.2-2.8-1.8c-1,0.3-1.9,1.6-1.8,2.9C117.3,17.4,118.9,17.4,120.5,17.4z"/>
			<path class="st0" d="M100.4,25.7c-1.2,0-2.4,0-3.7,0c0-0.2,0-0.3,0-0.5c0-2.6,0-5.2,0-7.8c0-0.4-0.1-1-0.1-1.4
				c-0.1-0.8-0.7-1.3-1.5-1.5c-1-0.2-1.9,0-2.7,0.7C92.2,15.5,92,15.7,92,16c0,3.1,0,6.1,0,9.2c0,0.1,0,0.3,0,0.5
				c-1.3,0-2.5,0-3.7,0c0-4.6,0-9.2,0-13.9c1.1,0,2.3,0,3.4,0c0.1,0.6,0.1,1.2,0.2,1.9c0.1-0.1,0.2-0.3,0.3-0.3
				c1.3-1.7,3.6-2.3,5.5-1.5c1.5,0.6,2.2,1.7,2.4,3.2c0.1,0.6,0.2,1.1,0.2,1.7c0,2.9,0,5.7,0,8.6C100.4,25.5,100.4,25.6,100.4,25.7z
				"/>
			<path class="st0" d="M130,25.7c-1.3,0-2.5,0-3.7,0c0-4.6,0-9.2,0-13.9c1.1,0,2.3,0,3.4,0c0.1,0.6,0.1,1.2,0.2,1.9
				c0.1-0.2,0.2-0.3,0.3-0.4c1.3-1.7,3.6-2.3,5.6-1.5c1.4,0.6,2.2,1.7,2.4,3.2c0.1,0.6,0.2,1.2,0.2,1.8c0,2.8,0,5.7,0,8.5
				c0,0.1,0,0.2,0,0.3c-1.2,0-2.4,0-3.7,0c0-0.2,0-0.3,0-0.5c0-2.6,0-5.2,0-7.8c0-0.4-0.1-0.9-0.1-1.3c-0.1-0.8-0.7-1.3-1.5-1.5
				c-1-0.2-1.9,0-2.7,0.7c-0.3,0.2-0.3,0.4-0.3,0.8c0,3.1,0,6.1,0,9.2C130,25.4,130,25.5,130,25.7z"/>
			<path class="st0" d="M188.2,25.7c-1.1,0-2.1,0-3.2,0c-0.1-0.6-0.2-1.3-0.3-2c-0.1,0.2-0.2,0.3-0.3,0.4c-1.4,1.9-4,2.5-6,1.3
				c-1.2-0.7-1.8-1.8-2-3.1c-0.1-0.6-0.2-1.3-0.2-2c0-2.7,0-5.4,0-8.1c0-0.1,0-0.3,0-0.4c1.2,0,2.4,0,3.7,0c0,0.1,0,0.3,0,0.4
				c0,2.7,0,5.3,0,7.9c0,0.4,0.1,0.8,0.1,1.3c0.3,1.1,0.9,1.7,2,1.7c0.8,0,1.5-0.2,2.1-0.8c0.3-0.2,0.4-0.4,0.4-0.8
				c0-3.1,0-6.2,0-9.2c0-0.1,0-0.3,0-0.5c1.3,0,2.5,0,3.7,0C188.2,16.5,188.2,21.1,188.2,25.7z"/>
			<path class="st0" d="M103.9,14.4c-0.6,0-1.1,0-1.7,0c-0.3,0-0.4-0.1-0.4-0.4c0-0.7,0-1.4,0-2.2c0.7,0,1.3,0,2,0
				c0-1.1,0-2.3,0-3.4c0.6,0,1.1,0,1.6,0c0.6,0,1.2,0,1.8,0c0.3,0,0.4,0.1,0.4,0.3c0,0.9,0,1.7,0,2.6c0,0.1,0,0.3,0,0.4
				c0.8,0,1.5,0,2.3,0c0,0.9,0,1.7,0,2.5c-0.8,0-1.5,0-2.3,0c0,0.2,0,0.3,0,0.4c0,2.2,0,4.4,0,6.6c0,1.4,0.6,1.8,2,1.6
				c0.1,0,0.1,0,0.3-0.1c0.1,0.9,0.2,1.7,0.3,2.7c-0.4,0.1-0.8,0.3-1.2,0.3c-0.8,0-1.6,0.1-2.4-0.1c-1.5-0.3-2.5-1.5-2.7-3.1
				c-0.1-0.4-0.1-0.9-0.1-1.3c0-2.2,0-4.3,0-6.5C103.9,14.8,103.9,14.6,103.9,14.4z"/>
			<path class="st0" d="M141.9,14.4c-0.6,0-1.1,0-1.6,0c-0.3,0-0.4-0.1-0.4-0.4c0-0.7,0-1.4,0-2.2c0.7,0,1.3,0,2,0
				c0-1.1,0-2.2,0-3.4c0.1,0,0.3,0,0.4,0c1,0,2,0,3,0c0.3,0,0.4,0.1,0.4,0.4c0,0.6,0,1.2,0,1.8c0,0.4-0.1,1,0.1,1.1
				c0.2,0.2,0.8,0.1,1.2,0.1c0.3,0,0.6,0,1,0c0,0.8,0,1.7,0,2.6c-0.5,0-1,0-1.5,0c-0.2,0-0.3,0-0.5,0c-0.3,0-0.3,0.1-0.3,0.3
				c0,2.3,0,4.6,0,6.9c0,1.1,0.5,1.6,1.7,1.5c0.2,0,0.4-0.1,0.6-0.1c0.1,0.9,0.2,1.7,0.3,2.7c-0.4,0.1-0.8,0.3-1.3,0.3
				c-0.8,0-1.5,0.1-2.3-0.1c-1.5-0.3-2.5-1.5-2.7-3.1c-0.1-0.4-0.1-0.9-0.1-1.3c0-2.2,0-4.3,0-6.5C141.9,14.8,141.9,14.6,141.9,14.4
				z"/>
			<path class="st0" d="M165.7,11.8c0.7,0,1.3,0,2,0c0-1.1,0-2.3,0-3.4c0.3,0,0.6,0,0.9,0c0.8,0,1.7,0,2.5,0c0.3,0,0.4,0.1,0.4,0.4
				c0,0.8,0,1.7,0,2.5c0,0.1,0,0.3,0,0.4c0.8,0,1.5,0,2.3,0c0,0.9,0,1.7,0,2.6c-0.8,0-1.5,0-2.3,0c0,0.2,0,0.3,0,0.4
				c0,2.2,0,4.3,0,6.5c0,1.5,0.6,2,2,1.7c0.1,0,0.1,0,0.1,0c0.1,0.4,0.1,0.9,0.2,1.3c0.1,0.4,0.1,0.9,0.1,1.3
				c-1.5,0.4-2.9,0.6-4.3,0c-1.3-0.6-1.8-1.6-1.9-2.9c-0.1-0.4-0.1-0.9-0.1-1.4c0-2.2,0-4.3,0-6.5c0-0.1,0-0.3,0-0.5
				c-0.5,0-1,0-1.5,0c-0.4,0-0.5-0.1-0.5-0.5C165.7,13.2,165.7,12.5,165.7,11.8z"/>
			<path class="st0" d="M206.1,11.8c1.3,0,2.5,0,3.7,0c0,4.6,0,9.2,0,13.9c-1.2,0-2.4,0-3.7,0C206.1,21.1,206.1,16.5,206.1,11.8z"/>
			<path class="st0" d="M206.1,8.5c0-0.9,0-1.8,0-2.7c1.2,0,2.4,0,3.7,0c0,0.9,0,1.8,0,2.7C208.6,8.5,207.4,8.5,206.1,8.5z"/>
		</g>
		<path class="st0" d="M41.5,1.2H7.4c-3.1,0-5.5,2.5-5.5,5.5v34.1c0,3.1,2.5,5.5,5.5,5.5h34.1c3.1,0,5.5-2.5,5.5-5.5V6.7
			C47.1,3.7,44.6,1.2,41.5,1.2z M24.5,40c-8.9,0-16.2-7.3-16.2-16.2S15.6,7.7,24.5,7.7S40.6,15,40.6,23.9S33.4,40,24.5,40z"/>
		<path class="st0" d="M21.4,29.8l-1.3-0.9c-0.7-0.5-0.8-1.5-0.4-2.1L26,18c0.5-0.7,1.5-0.8,2.1-0.4l1.3,0.9
			c0.7,0.5,0.8,1.5,0.4,2.1l-6.3,8.8C23,30.2,22,30.3,21.4,29.8z"/>
		<path class="st0" d="M28.4,32.2l-1.3-0.9c-0.7-0.5-0.8-1.5-0.4-2.1l6.3-8.8c0.5-0.7,1.5-0.8,2.1-0.4l1.3,0.9
			c0.7,0.5,0.8,1.5,0.4,2.1l-6.3,8.8C30.1,32.5,29.1,32.7,28.4,32.2z"/>
		<path class="st0" d="M14.3,27.6L13,26.7c-0.7-0.5-0.8-1.5-0.4-2.1l6.3-8.8c0.5-0.7,1.5-0.8,2.1-0.4l1.3,0.9
			c0.7,0.5,0.8,1.5,0.4,2.1l-6.3,8.8C15.9,27.9,15,28.1,14.3,27.6z"/>
		<g>
			<path class="st0" d="M65.1,35.9c0,0.6-0.1,1.1-0.3,1.6c-0.2,0.5-0.4,0.9-0.8,1.3c-0.4,0.4-0.8,0.6-1.3,0.8
				c-0.5,0.2-1,0.4-1.7,0.4c-0.6,0-1.1-0.1-1.7-0.3c-0.5-0.2-1-0.5-1.3-0.8c-0.4-0.4-0.6-0.8-0.8-1.3c-0.2-0.5-0.3-1-0.3-1.6
				c0-0.6,0.1-1.1,0.3-1.6c0.2-0.5,0.4-0.9,0.8-1.3c0.4-0.4,0.8-0.6,1.3-0.8S60.4,32,61,32c0.6,0,1.1,0.1,1.7,0.3
				c0.5,0.2,1,0.5,1.3,0.8c0.4,0.4,0.6,0.8,0.8,1.3C65,34.9,65.1,35.4,65.1,35.9z M63.2,35.9c0-0.4-0.1-0.8-0.1-1.1
				c-0.1-0.3-0.3-0.6-0.4-0.8c-0.2-0.2-0.4-0.4-0.7-0.5c-0.3-0.1-0.6-0.2-1-0.2c-0.4,0-0.6,0.1-1,0.2c-0.3,0.1-0.5,0.3-0.7,0.5
				c-0.2,0.2-0.3,0.5-0.4,0.8c-0.1,0.3-0.1,0.6-0.1,1.1c0,0.4,0.1,0.8,0.1,1.1c0.1,0.3,0.3,0.6,0.4,0.8s0.4,0.4,0.7,0.5
				c0.3,0.1,0.6,0.2,1,0.2c0.3,0,0.6-0.1,1-0.2s0.5-0.3,0.7-0.5s0.3-0.5,0.4-0.8S63.2,36.3,63.2,35.9z"/>
			<path class="st0" d="M72.1,32v1.4h-3.2v2h2.7v1.4h-2.7v3.1H67v-7.9L72.1,32L72.1,32z"/>
			<path class="st0" d="M79.2,32v1.4h-3.2v2h2.7v1.4h-2.7v3.1h-1.8v-7.9L79.2,32L79.2,32z"/>
			<path class="st0" d="M83.3,39.9h-1.8V32h1.8V39.9z"/>
			<path class="st0" d="M91.1,37.8c0.1,0,0.1,0,0.1,0s0.1,0.1,0.1,0.1l0.7,0.8c-0.3,0.4-0.7,0.7-1.2,1c-0.5,0.2-1,0.3-1.7,0.3
				c-0.6,0-1.1-0.1-1.6-0.3s-0.9-0.5-1.2-0.8c-0.3-0.3-0.6-0.8-0.8-1.3c-0.2-0.5-0.3-1-0.3-1.6s0.1-1.1,0.3-1.6
				c0.2-0.4,0.5-0.9,0.8-1.3c0.4-0.4,0.8-0.6,1.3-0.8c0.5-0.2,1.1-0.3,1.7-0.3c0.3,0,0.6,0,0.8,0.1c0.3,0.1,0.5,0.1,0.8,0.2
				c0.3,0.1,0.4,0.2,0.6,0.3c0.2,0.1,0.4,0.3,0.5,0.4l-0.6,0.8c-0.1,0.1-0.1,0.1-0.1,0.1C91.3,34,91.2,34,91.1,34
				c-0.1,0-0.1,0-0.2-0.1c-0.1,0-0.1-0.1-0.2-0.1c-0.1-0.1-0.1-0.1-0.2-0.1c-0.1-0.1-0.2-0.1-0.3-0.1c-0.1-0.1-0.3-0.1-0.4-0.1
				c-0.1,0-0.3-0.1-0.5-0.1c-0.3,0-0.6,0.1-0.9,0.2c-0.3,0.1-0.5,0.3-0.7,0.5c-0.2,0.2-0.3,0.5-0.4,0.8c-0.1,0.3-0.2,0.6-0.2,1
				c0,0.4,0.1,0.8,0.2,1.1c0.1,0.3,0.3,0.6,0.4,0.8c0.2,0.2,0.4,0.4,0.6,0.5s0.5,0.2,0.8,0.2c0.2,0,0.3,0,0.4,0s0.3-0.1,0.4-0.1
				c0.1,0,0.3-0.1,0.3-0.1c0.1-0.1,0.2-0.1,0.3-0.3c0.1-0.1,0.1-0.1,0.1-0.1C91,37.8,91,37.8,91.1,37.8z"/>
			<path class="st0" d="M96,39.9h-1.8V32H96V39.9z"/>
			<path class="st0" d="M105.8,39.9h-1.4c-0.1,0-0.3-0.1-0.4-0.1c-0.1-0.1-0.2-0.2-0.2-0.3l-0.4-1.4h-3l-0.4,1.4
				c-0.1,0.1-0.1,0.2-0.2,0.3c-0.1,0.1-0.3,0.1-0.4,0.1h-1.5l3.1-7.9h1.8L105.8,39.9z M100.7,36.9h2.2l-0.7-2.2
				c-0.1-0.1-0.1-0.3-0.2-0.5c-0.1-0.2-0.1-0.4-0.2-0.6c-0.1,0.2-0.1,0.4-0.2,0.6c-0.1,0.2-0.1,0.3-0.2,0.5L100.7,36.9z"/>
			<path class="st0" d="M109.4,38.4h2.9v1.5h-4.8V32h1.8V38.4z"/>
			<path class="st0" d="M119.3,37.3v2.6h-1.8V32h2.8c0.6,0,1,0.1,1.4,0.2c0.4,0.1,0.7,0.3,1,0.6c0.3,0.3,0.4,0.5,0.6,0.8
				c0.1,0.3,0.2,0.6,0.2,1c0,0.4-0.1,0.8-0.2,1.1c-0.1,0.3-0.3,0.6-0.6,0.8c-0.3,0.3-0.6,0.4-1,0.6c-0.4,0.1-0.9,0.2-1.4,0.2H119.3z
				 M119.3,35.9h1c0.4,0,0.8-0.1,1-0.3c0.2-0.3,0.3-0.6,0.3-1c0-0.2,0-0.3-0.1-0.5c-0.1-0.2-0.1-0.3-0.3-0.4
				c-0.1-0.1-0.3-0.2-0.4-0.3c-0.2-0.1-0.4-0.1-0.6-0.1h-1L119.3,35.9L119.3,35.9z"/>
			<path class="st0" d="M131.8,39.9h-1.4c-0.1,0-0.3-0.1-0.4-0.1c-0.1-0.1-0.2-0.2-0.2-0.3l-0.4-1.4h-3l-0.4,1.4
				c-0.1,0.1-0.1,0.2-0.2,0.3c-0.1,0.1-0.3,0.1-0.4,0.1H124L127,32h1.8L131.8,39.9z M126.8,36.9h2.2l-0.7-2.2
				c-0.1-0.1-0.1-0.3-0.2-0.5c-0.1-0.2-0.1-0.4-0.2-0.6c-0.1,0.2-0.1,0.4-0.2,0.6c-0.1,0.2-0.1,0.3-0.2,0.5L126.8,36.9z"/>
			<path class="st0" d="M135.3,37v2.9h-1.8V32h2.5c0.6,0,1.1,0.1,1.5,0.2c0.4,0.1,0.7,0.3,1,0.5c0.3,0.2,0.4,0.4,0.6,0.8
				c0.1,0.3,0.2,0.6,0.2,1c0,0.3-0.1,0.5-0.1,0.7c-0.1,0.3-0.2,0.4-0.3,0.6c-0.1,0.2-0.3,0.4-0.5,0.5c-0.2,0.1-0.4,0.3-0.7,0.4
				c0.1,0.1,0.3,0.1,0.3,0.3c0.1,0.1,0.2,0.2,0.3,0.3l1.7,2.7h-1.7c-0.3,0-0.5-0.1-0.6-0.3l-1.3-2.3c-0.1-0.1-0.1-0.2-0.2-0.2
				c-0.1-0.1-0.2-0.1-0.3-0.1h-0.3V37z M135.3,35.7h0.8c0.3,0,0.4,0,0.6-0.1c0.2-0.1,0.3-0.1,0.4-0.3c0.1-0.1,0.2-0.3,0.3-0.4
				c0.1-0.1,0.1-0.3,0.1-0.5c0-0.3-0.1-0.6-0.3-0.8c-0.3-0.2-0.6-0.3-1-0.3h-0.8L135.3,35.7L135.3,35.7z"/>
			<path class="st0" d="M147.2,32v1.5h-2.2v6.4h-1.8v-6.4h-2.2V32L147.2,32L147.2,32z"/>
			<path class="st0" d="M150.2,32.1c0.1,0,0.1,0,0.1,0.1c0,0.1,0.1,0.1,0.1,0.1c0.1,0.1,0.1,0.1,0.1,0.1l3.8,4.7
				c0-0.1,0-0.3-0.1-0.4s0-0.3,0-0.4V32h1.6v7.9h-1c-0.1,0-0.3,0-0.4-0.1c-0.1-0.1-0.2-0.1-0.3-0.3l-3.7-4.7c0,0.1,0,0.3,0,0.4
				c0,0.1,0,0.3,0,0.4v4.2H149v-7.9h1C150,32,150.1,32,150.2,32.1z"/>
			<path class="st0" d="M163.3,32v1.4h-3.2v1.8h2.5v1.3h-2.5v1.8h3.2v1.4h-5.1v-7.9L163.3,32L163.3,32z"/>
			<path class="st0" d="M167.3,37v2.9h-1.8V32h2.5c0.6,0,1.1,0.1,1.5,0.2c0.4,0.1,0.7,0.3,1,0.5c0.3,0.2,0.4,0.4,0.6,0.8
				c0.1,0.3,0.2,0.6,0.2,1c0,0.3-0.1,0.5-0.1,0.7c-0.1,0.3-0.2,0.4-0.3,0.6c-0.1,0.2-0.3,0.4-0.5,0.5c-0.2,0.1-0.4,0.3-0.7,0.4
				c0.1,0.1,0.3,0.1,0.3,0.3c0.1,0.1,0.2,0.2,0.3,0.3l1.7,2.7h-1.7c-0.3,0-0.5-0.1-0.6-0.3l-1.3-2.3c-0.1-0.1-0.1-0.2-0.2-0.2
				c-0.1-0.1-0.2-0.1-0.3-0.1h-0.3V37z M167.3,35.7h0.8c0.3,0,0.4,0,0.6-0.1c0.2-0.1,0.3-0.1,0.4-0.3c0.1-0.1,0.2-0.3,0.3-0.4
				c0.1-0.1,0.1-0.3,0.1-0.5c0-0.3-0.1-0.6-0.3-0.8c-0.3-0.2-0.6-0.3-1-0.3h-0.8L167.3,35.7L167.3,35.7z"/>
			<path class="st0" d="M178.1,33.6c-0.1,0.1-0.1,0.1-0.2,0.2s-0.1,0.1-0.3,0.1c-0.1,0-0.2,0-0.3-0.1c-0.1-0.1-0.2-0.1-0.3-0.2
				c-0.1-0.1-0.3-0.1-0.4-0.2c-0.1-0.1-0.3-0.1-0.5-0.1c-0.3,0-0.6,0.1-0.8,0.2s-0.3,0.3-0.3,0.6c0,0.1,0.1,0.3,0.1,0.4
				c0.1,0.1,0.3,0.2,0.4,0.3c0.2,0.1,0.4,0.1,0.6,0.2c0.2,0.1,0.4,0.1,0.6,0.2c0.2,0.1,0.4,0.2,0.6,0.3c0.2,0.1,0.4,0.3,0.6,0.4
				c0.2,0.1,0.3,0.4,0.4,0.6c0.1,0.3,0.1,0.5,0.1,0.8c0,0.4-0.1,0.7-0.2,1c-0.1,0.3-0.3,0.6-0.6,0.8c-0.3,0.3-0.5,0.4-0.9,0.6
				c-0.4,0.1-0.8,0.2-1.2,0.2c-0.3,0-0.5,0-0.8-0.1c-0.3-0.1-0.5-0.1-0.8-0.2c-0.3-0.1-0.4-0.2-0.7-0.3c-0.3-0.1-0.4-0.3-0.6-0.4
				l0.5-0.8c0.1-0.1,0.1-0.1,0.2-0.1s0.1-0.1,0.3-0.1c0.1,0,0.2,0.1,0.3,0.1c0.1,0.1,0.3,0.1,0.4,0.3c0.1,0.1,0.3,0.1,0.5,0.3
				c0.2,0.1,0.4,0.1,0.6,0.1c0.3,0,0.6-0.1,0.8-0.2c0.2-0.1,0.3-0.4,0.3-0.7c0-0.2-0.1-0.3-0.1-0.4c-0.1-0.1-0.3-0.2-0.4-0.3
				c-0.1-0.1-0.4-0.1-0.6-0.2c-0.2-0.1-0.4-0.1-0.6-0.2c-0.2-0.1-0.4-0.1-0.6-0.3c-0.2-0.1-0.4-0.3-0.6-0.4
				c-0.2-0.1-0.3-0.4-0.4-0.6c-0.1-0.3-0.1-0.6-0.1-1c0-0.3,0.1-0.6,0.2-0.9c0.1-0.3,0.3-0.5,0.5-0.8c0.3-0.2,0.5-0.4,0.8-0.5
				c0.3-0.1,0.7-0.2,1.1-0.2c0.3,0,0.4,0,0.7,0.1c0.3,0.1,0.4,0.1,0.6,0.2c0.2,0.1,0.4,0.2,0.6,0.3c0.2,0.1,0.3,0.2,0.5,0.3
				L178.1,33.6z"/>
		</g>
	</g>
</g>
</svg>
