<?xml version="1.0" encoding="utf-8"?>
<!-- Generator: Adobe Illustrator 21.0.0, SVG Export Plug-In . SVG Version: 6.00 Build 0)  -->
<svg version="1.1" id="Layer_1" xmlns="http://www.w3.org/2000/svg" xmlns:xlink="http://www.w3.org/1999/xlink" x="0px" y="0px"
	 viewBox="0 0 28.3 29.3" style="enable-background:new 0 0 28.3 29.3;" xml:space="preserve">
<style type="text/css">
	.st0{fill:#FFFFFF;}
</style>
<g>
	<path class="st0" d="M8.5,28.8H2.6c-1.2,0-2.3-1-2.3-2.3l0-23.8c0-1.2,1-2.3,2.3-2.3l5.8,0c1.2,0,2.3,1,2.3,2.3v23.8
		C10.7,27.8,9.7,28.8,8.5,28.8z"/>
	<path class="st0" d="M25.7,28.8h-5.8c-1.2,0-2.3-1-2.3-2.3V2.8c0-1.2,1-2.3,2.3-2.3l5.8,0c1.2,0,2.3,1,2.3,2.3v23.8
		C28,27.8,26.9,28.8,25.7,28.8z"/>
</g>
</svg>
