<?xml version="1.0" encoding="utf-8"?>
<!-- Generator: Adobe Illustrator 22.0.0, SVG Export Plug-In . SVG Version: 6.00 Build 0)  -->
<svg version="1.1" id="Layer_1" xmlns="http://www.w3.org/2000/svg" xmlns:xlink="http://www.w3.org/1999/xlink" x="0px" y="0px"
	 viewBox="0 0 106.8 110" style="enable-background:new 0 0 106.8 110;" xml:space="preserve">
<style type="text/css">
	.st0{fill:#393D49;}
</style>
<g>
	<path class="st0" d="M66.4,57.5H55.7V36.7c0-2.7-2.1-4.8-4.8-4.8s-4.8,2.1-4.8,4.8v25.6c0,2.7,2.1,4.8,4.8,4.8h15.4
		c2.7,0,4.8-2.1,4.8-4.8C71.2,59.7,69,57.5,66.4,57.5z"/>
	<g>
		<path class="st0" d="M53.4,108.5C24,108.5,0.1,84.5,0.1,55.1S24,1.8,53.4,1.8c29.4,0,53.3,23.9,53.3,53.3S82.8,108.5,53.4,108.5z
			 M53.4,11.8c-23.9,0-43.3,19.4-43.3,43.3c0,23.9,19.4,43.3,43.3,43.3S96.7,79,96.7,55.1C96.7,31.3,77.3,11.8,53.4,11.8z"/>
	</g>
</g>
</svg>
