<?xml version="1.0" encoding="utf-8"?>
<!-- Generator: Adobe Illustrator 22.0.0, SVG Export Plug-In . SVG Version: 6.00 Build 0)  -->
<svg version="1.1" id="Layer_1" xmlns="http://www.w3.org/2000/svg" xmlns:xlink="http://www.w3.org/1999/xlink" x="0px" y="0px"
	 viewBox="0 0 99.7 110" style="enable-background:new 0 0 99.7 110;" xml:space="preserve">
<style type="text/css">
	.st0{fill:#393D49;}
</style>
<g>
	<path class="st0" d="M67.6,109.9H32.1c-17.7,0-32.1-14.4-32.1-32.1V32.2c0-17.7,14.4-32.1,32.1-32.1h35.5
		c17.7,0,32.1,14.4,32.1,32.1v45.6C99.7,95.5,85.3,109.9,67.6,109.9z M32.1,10.2c-12.2,0-22.1,9.9-22.1,22.1v45.6
		c0,12.2,9.9,22.1,22.1,22.1h35.5c12.2,0,22.1-9.9,22.1-22.1V32.2c0-12.2-9.9-22.1-22.1-22.1H32.1z"/>
</g>
<path class="st0" d="M54.9,26.5V9.9c0-3.7,3-6.7,6.7-6.7h0c3.7,0,6.7,3,6.7,6.7v16.6c0,3.7-3,6.7-6.7,6.7h0
	C57.9,33.2,54.9,30.2,54.9,26.5z"/>
<path class="st0" d="M74.5,59.8H24.7c-2.7,0-4.8-2.1-4.8-4.8v0c0-2.7,2.1-4.8,4.8-4.8h49.8c2.7,0,4.8,2.1,4.8,4.8v0
	C79.3,57.7,77.2,59.8,74.5,59.8z"/>
<path class="st0" d="M49.6,79.5H24.7c-2.7,0-4.8-2.1-4.8-4.8v0c0-2.7,2.1-4.8,4.8-4.8h24.9c2.7,0,4.8,2.1,4.8,4.8v0
	C54.4,77.3,52.3,79.5,49.6,79.5z"/>
</svg>
