<?xml version="1.0" encoding="utf-8"?>
<!-- Generator: Adobe Illustrator 21.0.0, SVG Export Plug-In . SVG Version: 6.00 Build 0)  -->
<svg version="1.1" id="Layer_1" xmlns="http://www.w3.org/2000/svg" xmlns:xlink="http://www.w3.org/1999/xlink" x="0px" y="0px"
	 viewBox="0 0 246 54.5" style="enable-background:new 0 0 246 54.5;" xml:space="preserve">
<style type="text/css">
	.st0{fill:#818797;}
</style>
<g id="Layer_1_2_">
	<g>
		<g>
			<path class="st0" d="M145.4,38.9v-8.2c0-7.3-1.7-11.8-11.8-11.8c-2.6,0-5.4,0.4-7.6,1.2v-16l-10.1,1.7v45.6
				c5.5,0.8,8.4,1.3,13.4,1.3C143.1,52.8,145.4,46.9,145.4,38.9L145.4,38.9z M135.3,38.9c0,3.2-0.7,5.4-5.6,5.4
				c-1.4,0-2.2,0-3.6-0.1V28.7c1.5-0.7,3-1.4,5.1-1.4c3.4,0,4.2,1.9,4.2,4.2v7.5H135.3z"/>
			<path class="st0" d="M112.4,38.8V32c0-7.3-3.2-13.1-14.3-13.1s-14.4,5.9-14.4,13.1v6.8c0,8.3,4.3,14,15.2,14
				c5,0,7.6-0.3,12.7-1.3v-8.2c-5.2,0.9-7.7,1.1-11.8,1.1c-4.5,0-5.9-1-5.9-4.9v-0.7H112.4z M93.9,30.7c0-2.3,0.8-4.2,4.2-4.2
				c3.4,0,4.2,1.9,4.2,4.2V32h-8.4L93.9,30.7z"/>
			<path class="st0" d="M38,19.3h-9.5l-0.8,8.4h8.6c5.3,0,5.7,1,5.7,4.5v1.5h-7c-6.9,0-10.7,2.4-10.7,9.2c0,5.7,3.3,9.9,9.5,9.9
				c2.3,0,5.7-0.3,9.6-2.5l0.4,2.1h8.4l0,0V32.3C52,23,49.5,19.3,38,19.3z M42,44.2c-1.5,0.7-2.7,1.4-4.8,1.4c-1.9,0-2.8-1-2.8-2.8
				c0-1.9,0.9-2.3,3.1-2.3H42V44.2z"/>
			<path class="st0" d="M163.1,18.8c-11.9,0-14.8,6.7-14.8,13.6v6.7c0,6.9,2.9,13.6,14.8,13.6c11.9,0,14.7-6.7,14.7-13.6v-6.7
				C177.9,25.5,175.1,18.8,163.1,18.8z M167.8,40.1c0,2.3-1.2,4.2-4.6,4.2c-3.4,0-4.6-1.9-4.6-4.2v-8.5c0-2.3,1.2-4.2,4.6-4.2
				c3.4,0,4.6,1.9,4.6,4.2V40.1z"/>
			<path class="st0" d="M17.5,52.3H7.3V27.8H2.3v-8.4h5.1v-5.1c0-6.9,2.9-11,11-11h6.8v8.4H21c-3.2,0-3.4,1.2-3.4,3.4v4.2h7.7
				l-1,8.5h-6.8V52.3L17.5,52.3z"/>
			<path class="st0" d="M80.8,28.5c-5.3-0.9-6.8-1.1-9.3-1.1c-4.5,0-5.9,1-5.9,4.9v7.3c0,3.9,1.4,4.9,5.9,4.9c2.5,0,4-0.2,9.3-1.1
				v8.2c-4.6,1-7.6,1.3-10.1,1.3c-10.9,0-15.2-5.7-15.2-14V33c0-8.3,4.3-14,15.2-14c2.5,0,5.5,0.3,10.1,1.3V28.5L80.8,28.5z"/>
			<polygon class="st0" points="243.6,52.3 232.6,52.3 223.4,36.8 223.4,52.3 213.1,52.3 213.1,5.8 223.4,4.1 223.4,34 232.6,19.3 
				243.6,19.3 233.4,35.3 			"/>
			<path class="st0" d="M195.6,18.8c-11.9,0-14.8,6.7-14.8,13.6v6.7c0,6.9,2.9,13.6,14.8,13.6c11.9,0,14.7-6.7,14.7-13.6v-6.7
				C210.3,25.5,207.4,18.8,195.6,18.8z M200.1,40.1c0,2.3-1.2,4.2-4.7,4.2c-3.4,0-4.6-1.9-4.6-4.2v-8.5c0-2.3,1.2-4.2,4.6-4.2
				c3.4,0,4.7,1.9,4.7,4.2V40.1z"/>
		</g>
	</g>
</g>
</svg>
