<?xml version="1.0" encoding="utf-8"?>
<!-- Generator: Adobe Illustrator 21.0.0, SVG Export Plug-In . SVG Version: 6.00 Build 0)  -->
<svg version="1.1" id="Layer_1" xmlns="http://www.w3.org/2000/svg" xmlns:xlink="http://www.w3.org/1999/xlink" x="0px" y="0px"
	 viewBox="0 0 24.3 23.3" style="enable-background:new 0 0 24.3 23.3;" xml:space="preserve">
<style type="text/css">
	.st0{fill:#FFFFFF;}
</style>
<g>
	<path class="st0" d="M1.8,9.9L1.8,9.9c-0.7,0-1.3-0.6-1.3-1.2v-7c0-0.7,0.6-1.2,1.2-1.2h0c0.7,0,1.2,0.6,1.2,1.2v7
		C3.1,9.4,2.5,9.9,1.8,9.9z"/>
	<path class="st0" d="M10.1,1.7L10.1,1.7c0,0.7-0.6,1.3-1.2,1.3h-7c-0.7,0-1.2-0.6-1.2-1.2v0c0-0.7,0.6-1.2,1.2-1.2h7
		C9.5,0.4,10.1,1,10.1,1.7z"/>
	<path class="st0" d="M10.1,21.6L10.1,21.6c0,0.7-0.6,1.3-1.2,1.3h-7c-0.7,0-1.2-0.6-1.2-1.2v0c0-0.7,0.6-1.3,1.2-1.3h7
		C9.5,20.4,10.1,20.9,10.1,21.6z"/>
	<path class="st0" d="M1.8,13.4L1.8,13.4c0.7,0,1.3,0.6,1.3,1.2v7c0,0.7-0.6,1.2-1.2,1.2h0c-0.7,0-1.2-0.6-1.2-1.2v-7
		C0.6,13.9,1.1,13.4,1.8,13.4z"/>
	<path class="st0" d="M22.6,13.4L22.6,13.4c0.7,0,1.3,0.6,1.3,1.2v7c0,0.7-0.6,1.2-1.3,1.2h0c-0.7,0-1.2-0.6-1.2-1.2v-7
		C21.3,13.9,21.9,13.4,22.6,13.4z"/>
	<path class="st0" d="M14.3,21.6L14.3,21.6c0-0.7,0.6-1.3,1.2-1.3h7c0.7,0,1.3,0.6,1.3,1.3v0c0,0.7-0.6,1.2-1.3,1.2h-7
		C14.9,22.9,14.3,22.3,14.3,21.6z"/>
	<path class="st0" d="M14.3,1.7L14.3,1.7c0-0.7,0.6-1.3,1.2-1.3h7c0.7,0,1.3,0.6,1.3,1.2v0c0,0.7-0.6,1.2-1.3,1.2h-7
		C14.9,2.9,14.3,2.4,14.3,1.7z"/>
	<path class="st0" d="M22.6,9.9L22.6,9.9c-0.7,0-1.3-0.6-1.3-1.2v-7c0-0.7,0.6-1.2,1.2-1.2h0c0.7,0,1.3,0.6,1.3,1.2v7
		C23.8,9.4,23.3,9.9,22.6,9.9z"/>
</g>
</svg>
