<?xml version="1.0" encoding="utf-8"?>
<!-- Generator: Adobe Illustrator 22.0.0, SVG Export Plug-In . SVG Version: 6.00 Build 0)  -->
<svg version="1.1" xmlns="http://www.w3.org/2000/svg" xmlns:xlink="http://www.w3.org/1999/xlink" x="0px" y="0px"
	 viewBox="0 0 128 77.3" style="enable-background:new 0 0 128 77.3;" xml:space="preserve">
<style type="text/css">
	.st0{fill:#818897;}
	.st1{fill:#4C525F;}
	.st2{display:none;}
	.st3{display:inline;}
	.st4{opacity:0.6;fill:#818897;enable-background:new    ;}
</style>
<g id="Layer_1">
	<g>
		<g>
			<path class="st0" d="M24,20.9c2.2,0,4.4,0,6.6,0c0.6,0,0.8,0.1,0.9,0.8c0.4,3.7-0.2,7.2-2.1,10.3c-1.2,1.9-2.8,3.4-4.8,4.5
				c-2.1,1.3-4.4,1.8-6.8,2c-3.1,0.3-6.1-0.3-8.9-1.8c-3.1-1.6-5.4-3.9-7.1-7c-1.4-2.7-2-5.6-1.8-8.6c0.3-3.6,1.7-6.8,4.2-9.5
				c2.4-2.6,5.2-4.3,8.6-5c5.4-1.1,10.2,0,14.4,3.7c0.3,0.3,0.3,0.4,0,0.7c-0.8,0.8-1.6,1.6-2.4,2.4c-0.3,0.3-0.4,0.4-0.8,0.1
				c-1-0.8-2.1-1.5-3.3-2c-1-0.4-2-0.5-3.1-0.7c-1.9-0.3-3.7,0-5.5,0.7c-3.6,1.4-5.9,4.1-6.9,7.9C4.3,24,5.4,28,8.9,31.2
				c1.9,1.8,4.3,2.8,7,2.9c2.7,0.1,5.1-0.4,7.3-2c2.3-1.6,3.4-3.7,3.9-6.3c0.1-0.5-0.2-0.4-0.5-0.4c-1.2,0-2.5,0-3.7,0
				c-1.8,0-3.7,0-5.5,0c-0.6,0-0.8-0.2-0.8-0.8c0-1,0.1-2,0-2.9c0-0.6,0.2-0.8,0.8-0.8C19.6,21,21.8,20.9,24,20.9z"/>
			<path class="st0" d="M94.3,36.3c-2.8,2.6-5.8,2.9-9.1,1.6c-2.5-1-4.4-2.7-5.5-5.2c-1.6-3.8-1.3-7.6,1.2-11c2-2.7,4.8-4,8.2-3.9
				c1.7,0,3.2,0.5,4.5,1.7c0.2,0.2,0.4,0.3,0.6,0.4c0.1-0.1,0.1-0.1,0.1-0.1c0-1.4,0-1.4,1.4-1.4c0.8,0,1.6,0,2.4,0
				c0.6,0,0.7,0.1,0.7,0.7c0,2.4,0,4.9,0,7.3c0,3.6,0,7.2,0,10.8c0,2.7-0.5,5.3-2.3,7.4c-1.3,1.6-3,2.5-5,3
				c-2.5,0.5-4.9,0.4-7.2-0.8c-2.1-1.1-3.5-2.7-4.5-4.8c-0.1-0.3-0.1-0.3,0.2-0.5c1.1-0.4,2.2-0.9,3.3-1.4c0.5-0.2,0.6,0.1,0.7,0.4
				c1.1,2,2.8,3.2,5.1,3.2c2.9,0,4.9-1.9,5.3-4.8C94.4,38.1,94.4,37.2,94.3,36.3z M89.1,34.4c1.3,0,2.4-0.4,3.3-1.2
				c2.7-2.2,3-6.9,0.6-9.6c-1.8-2-4.6-2.4-6.9-0.9c-1.7,1.1-2.5,2.7-2.8,4.6C82.9,31.1,85.6,34.4,89.1,34.4z"/>
			<path class="st0" d="M33.2,28.1c-0.1-5.7,4.6-10.7,11-10.3c5.4,0.3,10,4.4,9.9,10.5c-0.1,6.1-4.5,10.3-10.6,10.4
				C38,38.7,33.1,34.5,33.2,28.1z M43.6,34.4c0.4,0,0.9,0,1.3-0.1c3.1-0.8,5.1-3.9,4.6-7.1c-0.6-3.2-2.8-5.3-5.8-5.3
				c-3,0-5.2,2.1-5.8,5.3C37.2,30.9,40,34.4,43.6,34.4z"/>
			<path class="st0" d="M56,28.1c-0.1-5.7,4.6-10.7,11-10.3c5.4,0.3,10,4.4,9.9,10.5c-0.1,6.1-4.5,10.3-10.6,10.4
				C60.7,38.7,55.9,34.5,56,28.1z M66.4,34.4c0.4,0,0.8-0.1,1.2-0.1c3.1-0.7,5.1-3.9,4.6-7.1c-0.6-3.3-2.8-5.3-5.9-5.3
				c-2.9,0-5.1,2.1-5.6,5.3C60,30.9,62.8,34.4,66.4,34.4z"/>
			<path class="st0" d="M114,31.4c1.5,3.6,6.1,3.9,8.6,1.7c0.4-0.3,0.8-0.7,1.1-1.1c0.3-0.4,0.5-0.4,0.8-0.1
				c0.9,0.6,1.8,1.2,2.7,1.8c0.4,0.3,0.3,0.5,0.1,0.8c-1.6,1.9-3.5,3.3-6,3.9c-2.5,0.6-5,0.3-7.3-0.9c-2.2-1.1-3.7-2.9-4.6-5.1
				c-0.8-1.8-1-3.6-0.8-5.5c0.2-2.1,0.9-4,2.3-5.7c2.2-2.7,5.1-3.7,8.4-3.4c3.3,0.3,5.7,2.1,7.3,5c0.4,0.8,0.8,1.6,1.1,2.4
				c0.1,0.3,0.1,0.4-0.2,0.6c-4.2,1.7-8.4,3.4-12.6,5.1C114.6,31,114.3,31.2,114,31.4z M113.3,27.8c3-1.2,5.9-2.4,8.8-3.6
				c0.4-0.2,0.4-0.3,0.2-0.6c-0.4-0.6-1-1-1.6-1.3C117.1,20.7,113,23.8,113.3,27.8z"/>
			<path class="st0" d="M106.5,22.6c0,4.8,0,9.7,0,14.5c0,0.7-0.2,0.8-0.8,0.8c-1-0.1-2-0.1-3,0c-0.6,0-0.8-0.1-0.8-0.8
				c0-4.8,0-9.5,0-14.3c0-4.9,0-9.8,0-14.7c0-0.7,0.2-0.9,0.9-0.8c1,0.1,2,0.1,3,0c0.6,0,0.8,0.2,0.8,0.8
				C106.4,12.9,106.5,17.8,106.5,22.6z"/>
		</g>
	</g>
	<g>
		<g>
			<path class="st1" d="M11.1,57.3c0,0-0.1,0.1-0.1,0.1c0,0-0.1,0-0.2,0c-0.1,0-0.2-0.1-0.3-0.2s-0.3-0.2-0.6-0.4
				c-0.2-0.1-0.5-0.3-0.9-0.4c-0.4-0.1-0.8-0.2-1.3-0.2c-0.7,0-1.4,0.1-1.9,0.4c-0.6,0.3-1,0.6-1.4,1.1c-0.4,0.5-0.7,1.1-0.9,1.7
				c-0.2,0.7-0.3,1.4-0.3,2.3c0,0.9,0.1,1.7,0.3,2.3c0.2,0.7,0.5,1.3,0.9,1.7c0.4,0.5,0.8,0.8,1.4,1.1c0.5,0.2,1.1,0.4,1.8,0.4
				c0.6,0,1.1-0.1,1.5-0.2c0.4-0.1,0.7-0.3,1-0.5s0.5-0.3,0.6-0.5s0.3-0.2,0.4-0.2s0.2,0,0.3,0.1l0.3,0.4c-0.2,0.3-0.4,0.5-0.7,0.7
				c-0.3,0.2-0.6,0.4-1,0.6c-0.4,0.2-0.8,0.3-1.2,0.4s-0.9,0.1-1.4,0.1c-0.8,0-1.5-0.1-2.2-0.4c-0.7-0.3-1.2-0.7-1.7-1.3
				c-0.5-0.5-0.8-1.2-1.1-2c-0.3-0.8-0.4-1.7-0.4-2.7c0-1,0.1-1.8,0.4-2.6c0.3-0.8,0.6-1.5,1.1-2c0.5-0.6,1.1-1,1.8-1.3
				s1.5-0.5,2.4-0.5c0.8,0,1.5,0.1,2.2,0.4c0.6,0.3,1.2,0.6,1.6,1.1L11.1,57.3z"/>
			<path class="st1" d="M14.7,61.3v0.2c0,0.9,0.1,1.8,0.3,2.5s0.5,1.3,0.9,1.8c0.4,0.5,0.9,0.8,1.5,1.1c0.6,0.2,1.2,0.4,1.9,0.4
				c0.6,0,1.2-0.1,1.6-0.2c0.5-0.1,0.8-0.3,1.2-0.5c0.3-0.2,0.6-0.3,0.7-0.5s0.3-0.2,0.4-0.2c0.1,0,0.2,0,0.3,0.1l0.3,0.4
				c-0.2,0.3-0.5,0.5-0.8,0.7c-0.3,0.2-0.7,0.4-1.1,0.6c-0.4,0.2-0.8,0.3-1.3,0.4c-0.5,0.1-0.9,0.1-1.4,0.1c-0.9,0-1.6-0.1-2.3-0.4
				c-0.7-0.3-1.3-0.7-1.8-1.3c-0.5-0.6-0.9-1.3-1.2-2.1c-0.3-0.8-0.4-1.8-0.4-2.8c0-0.9,0.1-1.7,0.4-2.5s0.6-1.4,1.1-2
				c0.5-0.5,1.1-1,1.8-1.3c0.7-0.3,1.5-0.5,2.4-0.5c0.7,0,1.4,0.1,2,0.4c0.6,0.2,1.1,0.6,1.6,1.1c0.4,0.5,0.8,1,1,1.7
				s0.4,1.5,0.4,2.3c0,0.2,0,0.3-0.1,0.4c0,0.1-0.1,0.1-0.3,0.1H14.7z M23,60.6c0-0.7-0.1-1.3-0.3-1.8s-0.5-1-0.8-1.4
				c-0.3-0.4-0.8-0.7-1.2-0.8c-0.5-0.2-1-0.3-1.6-0.3c-0.6,0-1.2,0.1-1.7,0.3c-0.5,0.2-1,0.5-1.3,0.9c-0.4,0.4-0.7,0.8-0.9,1.4
				c-0.2,0.5-0.4,1.1-0.5,1.8H23z"/>
			<path class="st1" d="M28.5,58.6c0.2-0.5,0.4-1,0.7-1.4c0.2-0.4,0.5-0.7,0.9-1s0.7-0.5,1.1-0.6c0.4-0.1,0.8-0.2,1.3-0.2
				c0.3,0,0.5,0,0.8,0.1c0.3,0,0.5,0.1,0.7,0.2l-0.1,0.8c0,0.1-0.1,0.2-0.2,0.2c-0.1,0-0.3,0-0.5-0.1s-0.5-0.1-0.8-0.1
				c-0.5,0-0.9,0.1-1.3,0.2c-0.4,0.1-0.7,0.4-1,0.7c-0.3,0.3-0.6,0.7-0.8,1.1c-0.2,0.4-0.4,0.9-0.6,1.5v8.1h-1.2V55.6H28
				c0.1,0,0.2,0,0.3,0.1s0.1,0.2,0.1,0.3L28.5,58.6z"/>
			<path class="st1" d="M46.6,68.1h-1.2V56.9h-7.2v8.5c0,0.3,0,0.6,0.1,0.9c0.1,0.2,0.2,0.5,0.4,0.6c0.2,0.2,0.3,0.3,0.5,0.4
				c0.2,0.1,0.4,0.1,0.7,0.1c0.3,0,0.6,0,0.8-0.1s0.4-0.2,0.6-0.3c0.2-0.1,0.3-0.2,0.4-0.3s0.2-0.1,0.2-0.1c0.1,0,0.1,0,0.2,0.1
				l0.3,0.5c-0.3,0.4-0.7,0.6-1.2,0.8c-0.5,0.2-1,0.3-1.5,0.3c-0.8,0-1.5-0.2-2-0.7c-0.5-0.5-0.7-1.2-0.7-2.2v-8.5h-1.8
				c-0.1,0-0.2,0-0.2-0.1s-0.1-0.1-0.1-0.2v-0.5L37,56l0.3-4.5c0-0.1,0.1-0.1,0.1-0.2c0-0.1,0.1-0.1,0.2-0.1h0.6V56h8.4V68.1z
				 M47.2,51.1c0,0.2,0,0.3-0.1,0.4c-0.1,0.1-0.1,0.2-0.3,0.3c-0.1,0.1-0.2,0.2-0.4,0.2s-0.3,0.1-0.4,0.1s-0.3,0-0.4-0.1
				c-0.1-0.1-0.3-0.1-0.4-0.2c-0.1-0.1-0.2-0.2-0.2-0.3S45,51.3,45,51.1s0-0.3,0.1-0.4s0.1-0.3,0.2-0.4c0.1-0.1,0.2-0.2,0.4-0.2
				c0.1-0.1,0.3-0.1,0.4-0.1s0.3,0,0.4,0.1c0.1,0.1,0.3,0.1,0.4,0.2s0.2,0.2,0.3,0.4C47.2,50.8,47.2,51,47.2,51.1z"/>
			<path class="st1" d="M51.7,68.1V56.9l-1.8-0.1c-0.2,0-0.4-0.1-0.4-0.3V56h2.1v-1.1c0-0.8,0.1-1.5,0.3-2.1c0.2-0.6,0.6-1.1,1-1.6
				c0.4-0.4,1-0.8,1.6-1c0.6-0.2,1.3-0.3,2.1-0.3c0.3,0,0.6,0,0.8,0.1c0.3,0,0.5,0.1,0.8,0.2l-0.1,0.6c0,0.1,0,0.1-0.1,0.1
				c-0.1,0-0.1,0-0.2,0s-0.2,0-0.4,0c-0.2,0-0.3,0-0.6,0c-1.3,0-2.3,0.3-3.1,1c-0.7,0.7-1.1,1.7-1.1,3.1v1h7.3v12.1H59V56.9h-6.1
				v11.2H51.7z"/>
			<path class="st1" d="M72.8,57.3c0,0-0.1,0.1-0.1,0.1c0,0-0.1,0-0.2,0c-0.1,0-0.2-0.1-0.3-0.2s-0.3-0.2-0.6-0.4
				c-0.2-0.1-0.5-0.3-0.9-0.4c-0.4-0.1-0.8-0.2-1.3-0.2c-0.7,0-1.4,0.1-1.9,0.4c-0.6,0.3-1,0.6-1.4,1.1c-0.4,0.5-0.7,1.1-0.9,1.7
				c-0.2,0.7-0.3,1.4-0.3,2.3c0,0.9,0.1,1.7,0.3,2.3c0.2,0.7,0.5,1.3,0.9,1.7c0.4,0.5,0.8,0.8,1.4,1.1c0.5,0.2,1.1,0.4,1.8,0.4
				c0.6,0,1.1-0.1,1.5-0.2c0.4-0.1,0.7-0.3,1-0.5s0.5-0.3,0.6-0.5s0.3-0.2,0.4-0.2s0.2,0,0.3,0.1l0.3,0.4c-0.2,0.3-0.4,0.5-0.7,0.7
				c-0.3,0.2-0.6,0.4-1,0.6c-0.4,0.2-0.8,0.3-1.2,0.4s-0.9,0.1-1.4,0.1c-0.8,0-1.5-0.1-2.2-0.4c-0.7-0.3-1.2-0.7-1.7-1.3
				c-0.5-0.5-0.8-1.2-1.1-2c-0.3-0.8-0.4-1.7-0.4-2.7c0-1,0.1-1.8,0.4-2.6c0.3-0.8,0.6-1.5,1.1-2c0.5-0.6,1.1-1,1.8-1.3
				s1.5-0.5,2.4-0.5c0.8,0,1.5,0.1,2.2,0.4c0.6,0.3,1.2,0.6,1.6,1.1L72.8,57.3z"/>
			<path class="st1" d="M75.9,57.4c0.7-0.7,1.3-1.1,2.1-1.5c0.7-0.3,1.5-0.5,2.4-0.5c0.7,0,1.3,0.1,1.8,0.3c0.5,0.2,0.9,0.5,1.3,0.9
				s0.6,0.9,0.7,1.4c0.2,0.6,0.3,1.2,0.3,1.9v8.1H84c-0.3,0-0.4-0.1-0.5-0.4l-0.2-1.6c-0.3,0.3-0.7,0.6-1,0.9
				c-0.3,0.3-0.7,0.5-1.1,0.7c-0.4,0.2-0.8,0.3-1.2,0.4c-0.4,0.1-0.9,0.2-1.4,0.2c-0.4,0-0.8-0.1-1.2-0.2c-0.4-0.1-0.8-0.3-1.1-0.6
				c-0.3-0.3-0.6-0.6-0.8-1s-0.3-0.9-0.3-1.5c0-0.5,0.2-1,0.5-1.5c0.3-0.5,0.8-0.8,1.4-1.2s1.5-0.6,2.5-0.8c1-0.2,2.2-0.3,3.6-0.4
				v-1.3c0-1.2-0.2-2-0.7-2.7c-0.5-0.6-1.2-0.9-2.2-0.9c-0.6,0-1.1,0.1-1.5,0.3s-0.8,0.4-1.1,0.6s-0.5,0.4-0.7,0.6
				c-0.2,0.2-0.3,0.3-0.5,0.3c-0.1,0-0.2,0-0.2-0.1s-0.1-0.1-0.2-0.2L75.9,57.4z M83.3,62c-1.2,0-2.2,0.1-3.1,0.3
				c-0.9,0.1-1.6,0.3-2.1,0.6c-0.6,0.3-1,0.6-1.2,0.9c-0.3,0.3-0.4,0.7-0.4,1.2c0,0.4,0.1,0.8,0.2,1.1c0.1,0.3,0.3,0.6,0.6,0.8
				s0.5,0.3,0.8,0.4c0.3,0.1,0.6,0.1,0.9,0.1c0.5,0,0.9-0.1,1.3-0.2c0.4-0.1,0.8-0.3,1.1-0.4c0.3-0.2,0.7-0.4,1-0.7
				c0.3-0.3,0.6-0.5,0.9-0.8V62z"/>
			<path class="st1" d="M98.7,68.1h-1.2V56.9h-7.2v8.5c0,0.3,0,0.6,0.1,0.9c0.1,0.2,0.2,0.5,0.4,0.6c0.2,0.2,0.3,0.3,0.5,0.4
				c0.2,0.1,0.4,0.1,0.7,0.1c0.3,0,0.6,0,0.8-0.1s0.4-0.2,0.6-0.3c0.2-0.1,0.3-0.2,0.4-0.3s0.2-0.1,0.2-0.1c0.1,0,0.1,0,0.2,0.1
				l0.3,0.5c-0.3,0.4-0.7,0.6-1.2,0.8c-0.5,0.2-1,0.3-1.5,0.3c-0.8,0-1.5-0.2-2-0.7c-0.5-0.5-0.7-1.2-0.7-2.2v-8.5h-1.8
				c-0.1,0-0.2,0-0.2-0.1s-0.1-0.1-0.1-0.2v-0.5L89,56l0.3-4.5c0-0.1,0.1-0.1,0.1-0.2c0-0.1,0.1-0.1,0.2-0.1h0.6V56h8.4V68.1z
				 M99.2,51.1c0,0.2,0,0.3-0.1,0.4c-0.1,0.1-0.1,0.2-0.3,0.3c-0.1,0.1-0.2,0.2-0.4,0.2s-0.3,0.1-0.4,0.1s-0.3,0-0.4-0.1
				c-0.1-0.1-0.3-0.1-0.4-0.2c-0.1-0.1-0.2-0.2-0.2-0.3S97,51.3,97,51.1s0-0.3,0.1-0.4s0.1-0.3,0.2-0.4c0.1-0.1,0.2-0.2,0.4-0.2
				c0.1-0.1,0.3-0.1,0.4-0.1s0.3,0,0.4,0.1c0.1,0.1,0.3,0.1,0.4,0.2s0.2,0.2,0.3,0.4C99.2,50.8,99.2,51,99.2,51.1z"/>
			<path class="st1" d="M107.9,55.4c0.9,0,1.7,0.2,2.4,0.5c0.7,0.3,1.3,0.7,1.8,1.3s0.9,1.2,1.1,2c0.3,0.8,0.4,1.7,0.4,2.7
				s-0.1,1.9-0.4,2.7c-0.3,0.8-0.6,1.5-1.1,2c-0.5,0.6-1.1,1-1.8,1.3c-0.7,0.3-1.5,0.5-2.4,0.5c-0.9,0-1.7-0.2-2.4-0.5
				c-0.7-0.3-1.3-0.7-1.8-1.3c-0.5-0.6-0.9-1.2-1.1-2c-0.3-0.8-0.4-1.7-0.4-2.7s0.1-1.9,0.4-2.7s0.6-1.5,1.1-2s1.1-1,1.8-1.3
				C106.2,55.5,107,55.4,107.9,55.4z M107.9,67.3c0.7,0,1.4-0.1,2-0.4c0.6-0.3,1-0.6,1.4-1.1c0.4-0.5,0.7-1.1,0.8-1.7
				s0.3-1.4,0.3-2.3c0-0.8-0.1-1.6-0.3-2.3c-0.2-0.7-0.5-1.3-0.8-1.7c-0.4-0.5-0.8-0.9-1.4-1.1c-0.6-0.3-1.2-0.4-2-0.4
				c-0.7,0-1.4,0.1-2,0.4c-0.6,0.3-1,0.6-1.4,1.1c-0.4,0.5-0.7,1.1-0.8,1.7c-0.2,0.7-0.3,1.4-0.3,2.3c0,0.8,0.1,1.6,0.3,2.3
				s0.5,1.3,0.8,1.7c0.4,0.5,0.8,0.8,1.4,1.1C106.5,67.2,107.1,67.3,107.9,67.3z"/>
			<path class="st1" d="M118.1,57.8c0.6-0.7,1.2-1.3,2-1.7c0.8-0.4,1.6-0.7,2.5-0.7c0.7,0,1.3,0.1,1.8,0.3c0.5,0.2,1,0.5,1.3,0.9
				c0.3,0.4,0.6,0.9,0.8,1.5c0.2,0.6,0.3,1.2,0.3,2v8h-1.2v-8c0-1.2-0.3-2.1-0.8-2.8c-0.5-0.7-1.4-1-2.4-1c-0.8,0-1.6,0.2-2.3,0.6
				c-0.7,0.4-1.3,1-1.9,1.7v9.4h-1.2V55.6h0.7c0.2,0,0.3,0.1,0.4,0.3L118.1,57.8z"/>
		</g>
	</g>
</g>
<g id="Layer_2" class="st2">
	<g class="st3">
		<g>
			<g>
				<path class="st0" d="M360.3,32.4v-4.8c0-4.2-1-6.9-6.9-6.9c-1.5,0-3.1,0.2-4.4,0.7v-9.3l-5.9,1v26.5c3.2,0.5,4.9,0.7,7.8,0.7
					C358.9,40.4,360.3,37,360.3,32.4L360.3,32.4z M354.4,32.4c0,1.8-0.4,3.2-3.3,3.2c-0.8,0-1.3,0-2.1-0.1v-9.1
					c0.9-0.4,1.7-0.8,2.9-0.8c2,0,2.5,1.1,2.5,2.5V32.4z"/>
				<path class="st0" d="M341.1,32.3v-3.9c0-4.2-1.9-7.6-8.3-7.6s-8.3,3.4-8.3,7.6v3.9c0,4.8,2.5,8.1,8.8,8.1c2.9,0,4.4-0.2,7.4-0.8
					v-4.8c-3,0.5-4.5,0.6-6.9,0.6c-2.6,0-3.4-0.6-3.4-2.8v-0.4H341.1z M330.3,27.6c0-1.4,0.5-2.5,2.5-2.5c2,0,2.5,1.1,2.5,2.5v0.8
					h-4.9V27.6z"/>
				<path class="st0" d="M297.8,21h-5.5l-0.5,4.9h5c3.1,0,3.3,0.6,3.3,2.6v0.8h-4.1c-4,0-6.2,1.4-6.2,5.3c0,3.3,1.9,5.7,5.5,5.7
					c1.3,0,3.3-0.2,5.6-1.4l0.2,1.2h4.9v0V28.5C306,23.1,304.5,21,297.8,21z M300.1,35.4c-0.9,0.4-1.6,0.8-2.8,0.8
					c-1.1,0-1.6-0.6-1.6-1.6c0-1.1,0.5-1.3,1.8-1.3h2.6V35.4z"/>
				<path class="st0" d="M370.6,20.7c-6.9,0-8.6,3.9-8.6,7.9v3.9c0,4,1.7,7.9,8.6,7.9c6.9,0,8.6-3.9,8.6-7.9v-3.9
					C379.1,24.6,377.5,20.7,370.6,20.7z M373.2,33.1c0,1.4-0.7,2.5-2.7,2.5c-2,0-2.7-1.1-2.7-2.5v-5c0-1.4,0.7-2.5,2.7-2.5
					c2,0,2.7,1.1,2.7,2.5V33.1z"/>
				<path class="st0" d="M285.9,40.2H280V25.9h-2.9V21h2.9V18c0-4,1.7-6.4,6.4-6.4h3.9v4.9h-2.5c-1.8,0-2,0.7-2,2l0,2.5h4.4
					l-0.5,4.9h-3.9V40.2L285.9,40.2z"/>
				<path class="st0" d="M322.7,26.3c-3.1-0.5-3.9-0.6-5.4-0.6c-2.6,0-3.4,0.6-3.4,2.8v4.2c0,2.2,0.8,2.8,3.4,2.8
					c1.5,0,2.3-0.1,5.4-0.6v4.8c-2.7,0.6-4.4,0.8-5.9,0.8c-6.3,0-8.8-3.3-8.8-8.1v-3.4c0-4.8,2.5-8.1,8.8-8.1c1.5,0,3.2,0.2,5.9,0.8
					V26.3L322.7,26.3z"/>
				<polygon class="st0" points="417.3,40.2 410.9,40.2 405.5,31.1 405.5,40.2 399.7,40.2 399.7,13.1 405.5,12.2 405.5,29.5 
					410.9,21 417.3,21 411.4,30.3 				"/>
				<path class="st0" d="M389.4,20.7c-6.9,0-8.6,3.9-8.6,7.9v3.9c0,4,1.7,7.9,8.6,7.9c6.9,0,8.6-3.9,8.6-7.9v-3.9
					C398,24.6,396.3,20.7,389.4,20.7z M392.1,33.1c0,1.4-0.7,2.5-2.7,2.5c-2,0-2.7-1.1-2.7-2.5v-5c0-1.4,0.7-2.5,2.7-2.5
					c2,0,2.7,1.1,2.7,2.5V33.1z"/>
			</g>
		</g>
		<path class="st0" d="M233.6,13.9c-14.5,0-26.2,11.7-26.2,26.2c0,12.6,8.9,23.1,20.7,25.6V47.5h-4.8v-8h4.8v-4.8
			c0-6.5,2.7-10.4,10.4-10.4h6.4v8h-4c-3,0-3.2,1.1-3.2,3.2l0,4h7.2l-0.8,8h-6.4V66c12.5-2,22.1-12.8,22.1-25.9
			C259.8,25.6,248,13.9,233.6,13.9z"/>
		<g>
			<g>
				<path id="XMLID_112_" class="st0" d="M540.1,41.7l-0.6,0.9c0,0-1.9,1.5-2,2.5c0.1,0.5,0.8,1.8,0.8,1.8s-3.3-3.7-3.7-3.4
					c-0.4-0.8-2.4,2.7-2.4,2.7s1.5,1.4,2.1,1.5c0.6,0.1,2.2-0.4,2.4-0.1c0.2,0.3,0.2,1.9-4.5,0.1c-0.3-0.1-1.3,0.4-1.7,0.9
					c-0.8-0.1-4.1-0.4-3.3-0.9c0,0,3.2,0.6,3.7-1.3c-0.1-0.9-1.1-3.9-3.2-2.7c-0.8,0-4.4,8.5-2.3,1.6c-0.3-0.6-0.8,0.1-3.1-3.3
					c-0.1-0.2-0.7,1.6-1.4,4.1c0.5,1.6,1,6.2,1,8.1c0,2.6,0.8,7.9,0.8,7.8c0,0.1,0.9-5.5,0.9-5.5s0.2,8.4,0.3,9
					c0.1,0.6,1.7,2.9,1.8,3.6c0.4,0.8,2.2,3.3,1.4-1.5c0.1-1.5,1.1-4.2,1.4,1.1c0.2,1.2,1.5,3.1,1.9,3.4c0.5,0.2,0.8,1.9,0.7-13.2
					c0.2,1.3,2.1,18.4,2.1,18.4l2.6-11.7c0,0,0.8,4,2.1,5.8c0.2-0.4,1.6-2.3,1.8-6.3c0.6-0.8,1.6-1.4,1.8-1.5
					c0.2-0.1,0.2-2.8-0.5-6.2c0.4-0.3,0.8,1.2,0.8,1.2s0.6-3.4-0.5-6c-0.3-2.5,0.8-7.8,0.8-8.4C542,43.5,540.8,41.4,540.1,41.7z"/>
				<path id="XMLID_111_" class="st4" d="M529.4,32.7c0,0-2.7-6,1.2,0.2c0.4-0.2,3.8-1.9,4.9-1c0.5,0.5,2.3,2.5,2.3,2.7
					c0,0.2,0.2,0.5-4.6,1.8c-0.1,0-1.6,1.5,0.8,2.8c0.6,0.4,3.2,2.1,4.7,0.3c0.2,0.3,2.3,1.8-1.4,4c-0.4,0-1,0.3-3.6-2.3
					c-0.1,0.2,1,3.7-2.2,3.2c-0.5-0.1-1.3-0.1-1.9-1.7c0-0.3,0-1.2,0.2-1.5c0.2-0.3-2.3,2.3-3.7,2.5c-1,0-3.3-0.7-3.4-3.3
					c0.1-1.1,0.7-1.4,0.7-1.4s3.5,3.1,7-0.7c0.2-0.3,1.2-1.5-0.5-2.4c-0.3-0.1-4.1-0.8-4.4-1.6C525.8,33.8,525.4,33.9,529.4,32.7z"
					/>
				<path id="XMLID_110_" class="st0" d="M556.6,44.9c0,0-0.6,1.4,0,2.8c0.6,1,0.4,1,0.7,1.6c0.7,0.1,1,0.7,1.3-1.2
					C558.5,46.3,558.5,44.6,556.6,44.9z"/>
				<path id="XMLID_109_" class="st0" d="M507.8,15.9c0,0,1.2,0-2-3.5c-0.3,0-1-0.6-0.2,1.5C506.2,14.7,506.9,15.8,507.8,15.9z"/>
				<path id="XMLID_108_" class="st0" d="M501.8,14.8c0,0,1.3-0.7-2.1-3.2C499.6,11.5,498.3,11.4,501.8,14.8z"/>
				<path id="XMLID_107_" class="st0" d="M498.2,3.6c0,0,0.4-0.8,1.2,0.4c0.7,0.9,2.5,3.3,2.5,3.5c-0.1,0.1-0.1,0.6-0.2,0.9
					c-0.5,0.1-0.6,0.3-1.8-1.5C499.2,6,497.4,4.3,498.2,3.6z"/>
				<path id="XMLID_106_" class="st0" d="M505.3,6.2c0,0,1.4,0.1,2.1,2.4c0.2,0.3-0.3,0.4-0.5,0.2c-0.2-0.2-1.6-1.6-1.6-1.9
					C505.2,6.6,505,6.3,505.3,6.2z"/>
				<path id="XMLID_105_" class="st0" d="M507.3,0.2c0,0-0.8,1.2-0.2,2c0.5,0.7,1.9,1.8,2.6,2.1c0.6-0.6,0.3-1.8,0.2-2.2
					C509.2,1.6,507.5-0.4,507.3,0.2z"/>
				<path id="XMLID_104_" class="st0" d="M511.7,7.3c0,0-0.3,0.1,0.4,0.7c0.5,0.8,0.9,1.2,1.1,1.1c0.1-0.2,0-0.6,0-0.6
					S512.2,6.3,511.7,7.3z"/>
				<path id="XMLID_103_" class="st0" d="M515.1,3.5c0,0-0.4-0.1,0.4,0.8c0.4,0.8,0.8,1.4,1.2,1.4c0.2-0.1,0.2-0.4,0.2-0.4
					S516,3,515.1,3.5z"/>
				<path id="XMLID_100_" class="st0" d="M558.3,25.6c-2.7-10.2-11.4-16-11.7-16.1c-12.8-8.9-24.6-3-24.6-3s1,0.4,0.9,1.1
					c-0.1,0.7-1,0.4-1,0.4l-1-1.2l-1.4,0.5c0,0,0.1,0.3-0.2,0.7C517.6,7.5,516,9,516,9l-0.4,1.1c0,0-1.5,1.4-0.3,1.4
					c1.2-0.1,1.9,2.9,2.1,3.7c6.9,8.7-1.4-0.3-2.1-1.1c-2.8,0.1-3-1.8-3-1.8s-1.5,1.7-1.8,2.5c2.3,0.6,0.3,4.1-0.1,3.4
					c-0.4-0.6-1.3-1.9-1.7-1.9c0.3,6.4-2.6,3.2-2.6,3.2s0,0-0.4,0.8c3.4,4.5-0.4,1.2-0.4,1.3c-7.1,17.4,3.4,28.3,3.4,28.3
					c0-0.7,1.4-3,1.7-3.6c0.4-0.7,0.8-1.3,1.5-4.1c0.6-2.8,2-2.5,2.2-6.1c0.2-3.7,4.1-12.2,4.1-12.2l0.3-1.4c0,0,8.6-7.3,9.2-8
					c4-3.5,7.2-1.7,8.2-1.1c1.6,1.8,9.3,10.5,9.8,11.2c0.8,2.1,2.5,9.6,2.8,11.5c0.3,1.8,5.2,9,5.5,9.7c0.1-0.6,0.8-1.9,0.8-1.9
					c1.9-3.7,0.5-3.1,0.1-3.5c-0.8-1.5-0.4-2.8,0-2.7c4.8,4,1.9-2.3,1.9-2.3s1.2,1.8,2,2.8C560.2,32.4,558.5,26.3,558.3,25.6z
					 M520.9,14.1c-0.8,0.7-1.6-1.5-2.5-2.8c-1.1-1.4-0.4-1.6-0.4-1.6c0.5-0.9,2.2,2.2,2.9,3C521.6,13.6,521.2,13.7,520.9,14.1z"/>
				<g id="Layer_4_8_">
					<path id="XMLID_99_" class="st0" d="M527.4,28.8c0,0-5.1-11.6,1.9,0.3c0.6-0.3,3.5-2.8,6.2,0c0.3-0.3,1.9-3.1,0.7,0.4
						c0.5,0.3,1.5,0.5,3.6,6.7c0.7,1.6,10,22.9,10,22.9s0.8,3.9-1.4,2.4c-0.4-0.8-0.4-1.5-0.1-2.8c-0.3-0.9-2.7-4.3-3.6-7.3
						c0,0.3-0.7-1.5-0.4,8c0.2,0.3,2.4,8,6,5.3c0.1,0.4,1.1,4.3,4.1-2.7c0.4-0.4,2.1-1.8,2.9-3.4c0.3-0.8,0.8-1.1-0.8-2
						c0.3-0.4,1.4-0.3-0.3-2.3c-0.9-1.8-8.1-15-8.1-15.2c-0.3-0.8-2.6-4.1-8.6-12.8c0.8,1.1,7.2,9.3,7.5,9.5
						c-0.1-1.3,0.9-1.3-2.6-7.6c-0.4-1.8,0-2.7-2-4.4c0.4-0.1,0.1-0.7,0.1-0.7s-2.5-4-8.8-8.5c-0.9-0.4-3.3-1-6.5,2
						c-1.5,1.2-5.9,4.7-6,6.4c-0.4,0-1.1,0.6-2.8,5.4c-0.2,0.5-2.1,4.8-2.1,5.1c-0.1,0.6-0.1,2.6-0.1,2.6l7.1-11.3
						c0,0-8.7,15.6-9.4,17.4c-0.6,1.8-3.5,8.7-4.3,9.9c-0.8,1.2-2.8,4.9-2.8,5.4c0,0.5-1.4,0.1,2.1,4.2c0.5,1,1.4,2.6,1.6,4.3
						c1.1,0.1,2.6,1.9,9.9-5.3c0-0.9-0.5-5.4-0.4-6.5c-0.4-1.8-1.4-2.9-1.5-3c-0.1-0.1-0.9,1.6-1.2,2.7c-0.7,1.5-2.1,3.5-0.8,5.5
						c-0.1,0.2-1.6,1.5-2.2,2c-0.4-0.5-1.8-1.6,1.5-7.8c1.5-3.4,4.1-9.3,4.9-11.6c0.8-2.5,2.3-4.9,2.4-7c0.8-0.9,1.2,0.2,2-4.1
						C525.7,30.5,526.8,29,527.4,28.8z"/>
				</g>
			</g>
		</g>
		<g>
			<g>
				<path class="st0" d="M600,14.3V35h-3.8V22.3c0-0.3,0-0.6,0-0.9c0-0.3,0-0.6,0.1-0.9l-5.9,11.2c-0.3,0.6-0.8,0.9-1.5,0.9h-0.6
					c-0.3,0-0.6-0.1-0.9-0.2c-0.3-0.2-0.5-0.4-0.6-0.7l-5.9-11.3c0,0.3,0.1,0.7,0.1,1c0,0.3,0,0.6,0,0.9V35h-3.8V14.3h3.2
					c0.2,0,0.3,0,0.5,0c0.1,0,0.3,0,0.4,0.1c0.1,0,0.2,0.1,0.3,0.2c0.1,0.1,0.2,0.2,0.3,0.4l5.8,11c0.2,0.3,0.3,0.7,0.5,1
					c0.2,0.4,0.3,0.7,0.4,1.1c0.1-0.4,0.3-0.8,0.4-1.1c0.2-0.4,0.3-0.7,0.5-1l5.7-11c0.1-0.2,0.2-0.3,0.3-0.4s0.2-0.2,0.3-0.2
					c0.1,0,0.2-0.1,0.4-0.1c0.1,0,0.3,0,0.5,0H600z"/>
				<path class="st0" d="M603.1,22.3c0.9-0.8,1.8-1.4,2.9-1.7c1-0.4,2.2-0.6,3.4-0.6c0.9,0,1.7,0.1,2.3,0.4c0.7,0.3,1.3,0.7,1.8,1.2
					c0.5,0.5,0.8,1.1,1.1,1.8c0.3,0.7,0.4,1.5,0.4,2.3V35h-1.8c-0.4,0-0.7-0.1-0.8-0.2s-0.4-0.3-0.5-0.7l-0.3-0.9
					c-0.4,0.3-0.7,0.6-1.1,0.9c-0.3,0.2-0.7,0.5-1.1,0.6c-0.4,0.2-0.8,0.3-1.2,0.4s-0.9,0.1-1.4,0.1c-0.6,0-1.2-0.1-1.8-0.3
					c-0.5-0.2-1-0.4-1.4-0.8s-0.7-0.8-0.9-1.3c-0.2-0.5-0.3-1.1-0.3-1.7c0-0.5,0.1-1.1,0.4-1.6s0.7-1,1.4-1.5
					c0.7-0.4,1.6-0.8,2.7-1.1c1.1-0.3,2.5-0.5,4.2-0.5v-0.8c0-0.9-0.2-1.6-0.6-2s-0.9-0.6-1.7-0.6c-0.5,0-1,0.1-1.4,0.2
					c-0.4,0.1-0.7,0.3-0.9,0.4c-0.3,0.1-0.5,0.3-0.8,0.4c-0.2,0.1-0.5,0.2-0.8,0.2c-0.3,0-0.5-0.1-0.7-0.2c-0.2-0.1-0.3-0.3-0.5-0.5
					L603.1,22.3z M611.1,28.8c-1,0-1.8,0.1-2.4,0.2c-0.6,0.1-1.1,0.3-1.5,0.5s-0.6,0.4-0.8,0.6c-0.2,0.2-0.2,0.5-0.2,0.8
					c0,0.6,0.2,1,0.5,1.2s0.8,0.4,1.3,0.4c0.7,0,1.2-0.1,1.7-0.3c0.5-0.2,1-0.6,1.4-1.1V28.8z"/>
				<path class="st0" d="M627.2,23.3c-0.1,0.2-0.2,0.3-0.3,0.3c-0.1,0.1-0.3,0.1-0.4,0.1c-0.2,0-0.4,0-0.6-0.1
					c-0.2-0.1-0.4-0.2-0.7-0.3c-0.2-0.1-0.5-0.2-0.8-0.3c-0.3-0.1-0.7-0.1-1.1-0.1c-0.6,0-1.1,0.1-1.5,0.4s-0.5,0.6-0.5,1
					c0,0.3,0.1,0.5,0.3,0.7c0.2,0.2,0.5,0.4,0.8,0.5c0.3,0.1,0.7,0.3,1.1,0.4c0.4,0.1,0.8,0.3,1.3,0.4c0.4,0.2,0.9,0.3,1.3,0.5
					c0.4,0.2,0.8,0.4,1.1,0.7c0.3,0.3,0.6,0.7,0.8,1.1c0.2,0.4,0.3,0.9,0.3,1.5c0,0.7-0.1,1.4-0.4,2c-0.3,0.6-0.6,1.1-1.1,1.6
					c-0.5,0.4-1.1,0.8-1.9,1c-0.8,0.2-1.6,0.4-2.6,0.4c-0.5,0-1,0-1.5-0.1c-0.5-0.1-1-0.2-1.4-0.4s-0.9-0.4-1.3-0.6
					c-0.4-0.2-0.7-0.5-1-0.7l0.9-1.5c0.1-0.2,0.2-0.3,0.4-0.4c0.2-0.1,0.4-0.1,0.6-0.1c0.2,0,0.5,0.1,0.7,0.2
					c0.2,0.1,0.4,0.2,0.7,0.4s0.5,0.3,0.9,0.4c0.3,0.1,0.8,0.2,1.3,0.2c0.4,0,0.7,0,1-0.1s0.5-0.2,0.7-0.3c0.2-0.1,0.3-0.3,0.4-0.5
					c0.1-0.2,0.1-0.4,0.1-0.6c0-0.3-0.1-0.6-0.3-0.8s-0.5-0.4-0.8-0.5c-0.3-0.2-0.7-0.3-1.1-0.4c-0.4-0.1-0.9-0.3-1.3-0.4
					s-0.9-0.3-1.3-0.5c-0.4-0.2-0.8-0.5-1.1-0.8c-0.3-0.3-0.6-0.7-0.8-1.2s-0.3-1-0.3-1.7c0-0.6,0.1-1.2,0.4-1.7
					c0.2-0.5,0.6-1,1.1-1.4c0.5-0.4,1.1-0.8,1.8-1c0.7-0.2,1.5-0.4,2.5-0.4c1,0,2,0.2,2.8,0.5s1.6,0.8,2.1,1.3L627.2,23.3z"/>
				<path class="st0" d="M635.7,35.2c-0.7,0-1.3-0.1-1.8-0.3c-0.5-0.2-0.9-0.5-1.3-0.8c-0.4-0.4-0.6-0.8-0.8-1.3
					c-0.2-0.5-0.3-1.1-0.3-1.7v-7.9h-1.4c-0.2,0-0.4-0.1-0.5-0.2c-0.1-0.1-0.2-0.3-0.2-0.6v-1.5l2.3-0.4l0.8-3.8
					c0.1-0.4,0.4-0.6,0.9-0.6h2.1v4.5h3.8v2.7h-3.8v7.7c0,0.4,0.1,0.7,0.3,1c0.2,0.2,0.5,0.4,0.8,0.4c0.2,0,0.4,0,0.5-0.1
					c0.1,0,0.2-0.1,0.3-0.1s0.2-0.1,0.3-0.1c0.1,0,0.2-0.1,0.2-0.1c0.1,0,0.2,0,0.3,0.1c0.1,0.1,0.2,0.1,0.2,0.3l1.2,1.9
					c-0.5,0.4-1.2,0.8-1.8,1S636.4,35.2,635.7,35.2z"/>
				<path class="st0" d="M644.4,28.2c0.1,1.4,0.5,2.4,1.2,3s1.5,1,2.6,1c0.5,0,1-0.1,1.4-0.2c0.4-0.1,0.7-0.3,1-0.4
					c0.3-0.2,0.6-0.3,0.8-0.4s0.5-0.2,0.7-0.2c0.3,0,0.5,0.1,0.7,0.3l1.1,1.4c-0.4,0.5-0.9,0.9-1.4,1.2c-0.5,0.3-1,0.6-1.6,0.8
					c-0.5,0.2-1.1,0.3-1.6,0.4s-1.1,0.1-1.6,0.1c-1,0-2-0.2-2.9-0.5s-1.7-0.8-2.3-1.5s-1.2-1.5-1.6-2.5c-0.4-1-0.6-2.1-0.6-3.4
					c0-1,0.2-1.9,0.5-2.8c0.3-0.9,0.8-1.7,1.4-2.3s1.4-1.2,2.3-1.6c0.9-0.4,1.9-0.6,3-0.6c0.9,0,1.8,0.1,2.6,0.4s1.5,0.7,2.1,1.3
					c0.6,0.6,1,1.3,1.3,2.1s0.5,1.8,0.5,2.8c0,0.3,0,0.5,0,0.7s-0.1,0.3-0.1,0.5c-0.1,0.1-0.2,0.2-0.3,0.2c-0.1,0-0.3,0.1-0.4,0.1
					H644.4z M650.6,25.9c0-0.4-0.1-0.8-0.2-1.2s-0.3-0.7-0.5-1c-0.2-0.3-0.5-0.5-0.9-0.7c-0.4-0.2-0.8-0.2-1.3-0.2
					c-0.9,0-1.7,0.3-2.2,0.8c-0.5,0.5-0.9,1.3-1,2.3H650.6z"/>
				<path class="st0" d="M660.2,22.7c0.5-0.8,1-1.5,1.6-2s1.3-0.7,2.1-0.7c0.7,0,1.2,0.2,1.6,0.5l-0.3,2.9c0,0.2-0.1,0.3-0.2,0.4
					c-0.1,0.1-0.2,0.1-0.4,0.1c-0.2,0-0.4,0-0.7-0.1c-0.3,0-0.6-0.1-0.8-0.1c-0.4,0-0.7,0.1-1,0.2s-0.5,0.3-0.7,0.4
					c-0.2,0.2-0.4,0.4-0.6,0.7s-0.3,0.6-0.5,0.9v9h-3.9V20.3h2.3c0.4,0,0.7,0.1,0.8,0.2c0.2,0.1,0.3,0.4,0.3,0.7L660.2,22.7z"/>
				<path class="st0" d="M676.4,23.3c-0.1,0.2-0.2,0.3-0.3,0.3c-0.1,0.1-0.3,0.1-0.4,0.1c-0.2,0-0.4,0-0.6-0.1
					c-0.2-0.1-0.4-0.2-0.7-0.3c-0.2-0.1-0.5-0.2-0.8-0.3c-0.3-0.1-0.7-0.1-1.1-0.1c-0.6,0-1.1,0.1-1.5,0.4s-0.5,0.6-0.5,1
					c0,0.3,0.1,0.5,0.3,0.7c0.2,0.2,0.5,0.4,0.8,0.5c0.3,0.1,0.7,0.3,1.1,0.4c0.4,0.1,0.8,0.3,1.3,0.4c0.4,0.2,0.9,0.3,1.3,0.5
					c0.4,0.2,0.8,0.4,1.1,0.7c0.3,0.3,0.6,0.7,0.8,1.1c0.2,0.4,0.3,0.9,0.3,1.5c0,0.7-0.1,1.4-0.4,2c-0.3,0.6-0.6,1.1-1.1,1.6
					c-0.5,0.4-1.1,0.8-1.9,1c-0.8,0.2-1.6,0.4-2.6,0.4c-0.5,0-1,0-1.5-0.1c-0.5-0.1-1-0.2-1.4-0.4s-0.9-0.4-1.3-0.6
					c-0.4-0.2-0.7-0.5-1-0.7l0.9-1.5c0.1-0.2,0.2-0.3,0.4-0.4c0.2-0.1,0.4-0.1,0.6-0.1c0.2,0,0.5,0.1,0.7,0.2
					c0.2,0.1,0.4,0.2,0.7,0.4s0.5,0.3,0.9,0.4c0.3,0.1,0.8,0.2,1.3,0.2c0.4,0,0.7,0,1-0.1s0.5-0.2,0.7-0.3c0.2-0.1,0.3-0.3,0.4-0.5
					c0.1-0.2,0.1-0.4,0.1-0.6c0-0.3-0.1-0.6-0.3-0.8s-0.5-0.4-0.8-0.5c-0.3-0.2-0.7-0.3-1.1-0.4c-0.4-0.1-0.9-0.3-1.3-0.4
					s-0.9-0.3-1.3-0.5c-0.4-0.2-0.8-0.5-1.1-0.8c-0.3-0.3-0.6-0.7-0.8-1.2s-0.3-1-0.3-1.7c0-0.6,0.1-1.2,0.4-1.7
					c0.2-0.5,0.6-1,1.1-1.4c0.5-0.4,1.1-0.8,1.8-1c0.7-0.2,1.5-0.4,2.5-0.4c1,0,2,0.2,2.8,0.5s1.6,0.8,2.1,1.3L676.4,23.3z"/>
			</g>
		</g>
		<g>
			<g>
				<path class="st1" d="M287.2,57.5c0,0-0.1,0.1-0.1,0.1c0,0-0.1,0-0.2,0c-0.1,0-0.2-0.1-0.3-0.2s-0.3-0.2-0.6-0.4
					c-0.2-0.1-0.5-0.3-0.9-0.4c-0.4-0.1-0.8-0.2-1.3-0.2c-0.7,0-1.4,0.1-1.9,0.4c-0.6,0.3-1,0.6-1.4,1.1c-0.4,0.5-0.7,1.1-0.9,1.7
					c-0.2,0.7-0.3,1.4-0.3,2.3c0,0.9,0.1,1.7,0.3,2.3c0.2,0.7,0.5,1.3,0.9,1.7c0.4,0.5,0.8,0.8,1.4,1.1c0.5,0.2,1.1,0.4,1.8,0.4
					c0.6,0,1.1-0.1,1.5-0.2c0.4-0.1,0.7-0.3,1-0.5s0.5-0.3,0.6-0.5s0.3-0.2,0.4-0.2s0.2,0,0.3,0.1l0.3,0.4c-0.2,0.3-0.4,0.5-0.7,0.7
					c-0.3,0.2-0.6,0.4-1,0.6c-0.4,0.2-0.8,0.3-1.2,0.4s-0.9,0.1-1.4,0.1c-0.8,0-1.5-0.1-2.2-0.4c-0.7-0.3-1.2-0.7-1.7-1.3
					c-0.5-0.5-0.8-1.2-1.1-2c-0.3-0.8-0.4-1.7-0.4-2.7c0-1,0.1-1.8,0.4-2.6c0.3-0.8,0.6-1.5,1.1-2c0.5-0.6,1.1-1,1.8-1.3
					s1.5-0.5,2.4-0.5c0.8,0,1.5,0.1,2.2,0.4c0.6,0.3,1.2,0.6,1.6,1.1L287.2,57.5z"/>
				<path class="st1" d="M290.9,61.6v0.2c0,0.9,0.1,1.8,0.3,2.5c0.2,0.7,0.5,1.3,0.9,1.8c0.4,0.5,0.9,0.8,1.5,1.1
					c0.6,0.2,1.2,0.4,1.9,0.4c0.6,0,1.2-0.1,1.6-0.2c0.5-0.1,0.8-0.3,1.2-0.5c0.3-0.2,0.6-0.3,0.7-0.5s0.3-0.2,0.4-0.2
					c0.1,0,0.2,0,0.3,0.1l0.3,0.4c-0.2,0.3-0.5,0.5-0.8,0.7c-0.3,0.2-0.7,0.4-1.1,0.6c-0.4,0.2-0.8,0.3-1.3,0.4
					c-0.5,0.1-0.9,0.1-1.4,0.1c-0.9,0-1.6-0.1-2.3-0.4c-0.7-0.3-1.3-0.7-1.8-1.3c-0.5-0.6-0.9-1.3-1.2-2.1c-0.3-0.8-0.4-1.8-0.4-2.8
					c0-0.9,0.1-1.7,0.4-2.5s0.6-1.4,1.1-2c0.5-0.5,1.1-1,1.8-1.3c0.7-0.3,1.5-0.5,2.4-0.5c0.7,0,1.4,0.1,2,0.4
					c0.6,0.2,1.1,0.6,1.6,1.1c0.4,0.5,0.8,1,1,1.7s0.4,1.5,0.4,2.3c0,0.2,0,0.3-0.1,0.4c0,0.1-0.1,0.1-0.3,0.1H290.9z M299.2,60.8
					c0-0.7-0.1-1.3-0.3-1.8s-0.5-1-0.8-1.4c-0.3-0.4-0.8-0.7-1.2-0.8c-0.5-0.2-1-0.3-1.6-0.3c-0.6,0-1.2,0.1-1.7,0.3
					c-0.5,0.2-1,0.5-1.3,0.9c-0.4,0.4-0.7,0.8-0.9,1.4c-0.2,0.5-0.4,1.1-0.5,1.8H299.2z"/>
				<path class="st1" d="M304.7,58.8c0.2-0.5,0.4-1,0.7-1.4c0.2-0.4,0.5-0.7,0.9-1s0.7-0.5,1.1-0.6c0.4-0.1,0.8-0.2,1.3-0.2
					c0.3,0,0.5,0,0.8,0.1c0.3,0,0.5,0.1,0.7,0.2l-0.1,0.8c0,0.1-0.1,0.2-0.2,0.2c-0.1,0-0.3,0-0.5-0.1s-0.5-0.1-0.8-0.1
					c-0.5,0-0.9,0.1-1.3,0.2c-0.4,0.1-0.7,0.4-1,0.7c-0.3,0.3-0.6,0.7-0.8,1.1c-0.2,0.4-0.4,0.9-0.6,1.5v8.1h-1.2V55.8h0.6
					c0.1,0,0.2,0,0.3,0.1s0.1,0.2,0.1,0.3L304.7,58.8z"/>
				<path class="st1" d="M322.8,68.3h-1.2V57.1h-7.2v8.5c0,0.3,0,0.6,0.1,0.9c0.1,0.2,0.2,0.5,0.4,0.6c0.2,0.2,0.3,0.3,0.5,0.4
					c0.2,0.1,0.4,0.1,0.7,0.1c0.3,0,0.6,0,0.8-0.1s0.4-0.2,0.6-0.3c0.2-0.1,0.3-0.2,0.4-0.3s0.2-0.1,0.2-0.1c0.1,0,0.1,0,0.2,0.1
					l0.3,0.5c-0.3,0.4-0.7,0.6-1.2,0.8c-0.5,0.2-1,0.3-1.5,0.3c-0.8,0-1.5-0.2-2-0.7c-0.5-0.5-0.7-1.2-0.7-2.2v-8.5h-1.8
					c-0.1,0-0.2,0-0.2-0.1s-0.1-0.1-0.1-0.2v-0.5l2.1-0.2l0.3-4.5c0-0.1,0.1-0.1,0.1-0.2c0-0.1,0.1-0.1,0.2-0.1h0.6v4.8h8.4V68.3z
					 M323.3,51.4c0,0.2,0,0.3-0.1,0.4c-0.1,0.1-0.1,0.2-0.3,0.3c-0.1,0.1-0.2,0.2-0.4,0.2s-0.3,0.1-0.4,0.1s-0.3,0-0.4-0.1
					c-0.1-0.1-0.3-0.1-0.4-0.2c-0.1-0.1-0.2-0.2-0.2-0.3s-0.1-0.3-0.1-0.4s0-0.3,0.1-0.4s0.1-0.3,0.2-0.4c0.1-0.1,0.2-0.2,0.4-0.2
					c0.1-0.1,0.3-0.1,0.4-0.1s0.3,0,0.4,0.1c0.1,0.1,0.3,0.1,0.4,0.2s0.2,0.2,0.3,0.4C323.3,51.1,323.3,51.2,323.3,51.4z"/>
				<path class="st1" d="M327.8,68.3V57.1l-1.8-0.1c-0.2,0-0.4-0.1-0.4-0.3v-0.5h2.1v-1.1c0-0.8,0.1-1.5,0.3-2.1
					c0.2-0.6,0.6-1.1,1-1.6c0.4-0.4,1-0.8,1.6-1c0.6-0.2,1.3-0.3,2.1-0.3c0.3,0,0.6,0,0.8,0.1c0.3,0,0.5,0.1,0.8,0.2l-0.1,0.6
					c0,0.1,0,0.1-0.1,0.1c-0.1,0-0.1,0-0.2,0s-0.2,0-0.4,0c-0.2,0-0.3,0-0.6,0c-1.3,0-2.3,0.3-3.1,1c-0.7,0.7-1.1,1.7-1.1,3.1v1h7.3
					v12.1h-1.2V57.1H329v11.2H327.8z"/>
				<path class="st1" d="M349,57.5c0,0-0.1,0.1-0.1,0.1c0,0-0.1,0-0.2,0c-0.1,0-0.2-0.1-0.3-0.2s-0.3-0.2-0.6-0.4
					c-0.2-0.1-0.5-0.3-0.9-0.4c-0.4-0.1-0.8-0.2-1.3-0.2c-0.7,0-1.4,0.1-1.9,0.4c-0.6,0.3-1,0.6-1.4,1.1c-0.4,0.5-0.7,1.1-0.9,1.7
					c-0.2,0.7-0.3,1.4-0.3,2.3c0,0.9,0.1,1.7,0.3,2.3c0.2,0.7,0.5,1.3,0.9,1.7c0.4,0.5,0.8,0.8,1.4,1.1c0.5,0.2,1.1,0.4,1.8,0.4
					c0.6,0,1.1-0.1,1.5-0.2c0.4-0.1,0.7-0.3,1-0.5s0.5-0.3,0.6-0.5s0.3-0.2,0.4-0.2s0.2,0,0.3,0.1l0.3,0.4c-0.2,0.3-0.4,0.5-0.7,0.7
					c-0.3,0.2-0.6,0.4-1,0.6c-0.4,0.2-0.8,0.3-1.2,0.4s-0.9,0.1-1.4,0.1c-0.8,0-1.5-0.1-2.2-0.4c-0.7-0.3-1.2-0.7-1.7-1.3
					c-0.5-0.5-0.8-1.2-1.1-2c-0.3-0.8-0.4-1.7-0.4-2.7c0-1,0.1-1.8,0.4-2.6c0.3-0.8,0.6-1.5,1.1-2c0.5-0.6,1.1-1,1.8-1.3
					s1.5-0.5,2.4-0.5c0.8,0,1.5,0.1,2.2,0.4c0.6,0.3,1.2,0.6,1.6,1.1L349,57.5z"/>
				<path class="st1" d="M352.1,57.6c0.7-0.7,1.3-1.1,2.1-1.5c0.7-0.3,1.5-0.5,2.4-0.5c0.7,0,1.3,0.1,1.8,0.3
					c0.5,0.2,0.9,0.5,1.3,0.9s0.6,0.9,0.7,1.4c0.2,0.6,0.3,1.2,0.3,1.9v8.1h-0.5c-0.3,0-0.4-0.1-0.5-0.4l-0.2-1.6
					c-0.3,0.3-0.7,0.6-1,0.9c-0.3,0.3-0.7,0.5-1.1,0.7c-0.4,0.2-0.8,0.3-1.2,0.4c-0.4,0.1-0.9,0.2-1.4,0.2c-0.4,0-0.8-0.1-1.2-0.2
					c-0.4-0.1-0.8-0.3-1.1-0.6c-0.3-0.3-0.6-0.6-0.8-1s-0.3-0.9-0.3-1.5c0-0.5,0.2-1,0.5-1.5c0.3-0.5,0.8-0.8,1.4-1.2
					s1.5-0.6,2.5-0.8c1-0.2,2.2-0.3,3.6-0.4v-1.3c0-1.2-0.2-2-0.7-2.7c-0.5-0.6-1.2-0.9-2.2-0.9c-0.6,0-1.1,0.1-1.5,0.3
					s-0.8,0.4-1.1,0.6s-0.5,0.4-0.7,0.6c-0.2,0.2-0.3,0.3-0.5,0.3c-0.1,0-0.2,0-0.2-0.1s-0.1-0.1-0.2-0.2L352.1,57.6z M359.4,62.3
					c-1.2,0-2.2,0.1-3.1,0.3c-0.9,0.1-1.6,0.3-2.1,0.6c-0.6,0.3-1,0.6-1.2,0.9c-0.3,0.3-0.4,0.7-0.4,1.2c0,0.4,0.1,0.8,0.2,1.1
					c0.1,0.3,0.3,0.6,0.6,0.8s0.5,0.3,0.8,0.4c0.3,0.1,0.6,0.1,0.9,0.1c0.5,0,0.9-0.1,1.3-0.2c0.4-0.1,0.8-0.3,1.1-0.4
					c0.3-0.2,0.7-0.4,1-0.7c0.3-0.3,0.6-0.5,0.9-0.8V62.3z"/>
				<path class="st1" d="M374.8,68.3h-1.2V57.1h-7.2v8.5c0,0.3,0,0.6,0.1,0.9c0.1,0.2,0.2,0.5,0.4,0.6c0.2,0.2,0.3,0.3,0.5,0.4
					c0.2,0.1,0.4,0.1,0.7,0.1c0.3,0,0.6,0,0.8-0.1s0.4-0.2,0.6-0.3c0.2-0.1,0.3-0.2,0.4-0.3s0.2-0.1,0.2-0.1c0.1,0,0.1,0,0.2,0.1
					l0.3,0.5c-0.3,0.4-0.7,0.6-1.2,0.8c-0.5,0.2-1,0.3-1.5,0.3c-0.8,0-1.5-0.2-2-0.7c-0.5-0.5-0.7-1.2-0.7-2.2v-8.5h-1.8
					c-0.1,0-0.2,0-0.2-0.1s-0.1-0.1-0.1-0.2v-0.5l2.1-0.2l0.3-4.5c0-0.1,0.1-0.1,0.1-0.2c0-0.1,0.1-0.1,0.2-0.1h0.6v4.8h8.4V68.3z
					 M375.4,51.4c0,0.2,0,0.3-0.1,0.4c-0.1,0.1-0.1,0.2-0.3,0.3c-0.1,0.1-0.2,0.2-0.4,0.2s-0.3,0.1-0.4,0.1s-0.3,0-0.4-0.1
					c-0.1-0.1-0.3-0.1-0.4-0.2c-0.1-0.1-0.2-0.2-0.2-0.3s-0.1-0.3-0.1-0.4s0-0.3,0.1-0.4s0.1-0.3,0.2-0.4c0.1-0.1,0.2-0.2,0.4-0.2
					c0.1-0.1,0.3-0.1,0.4-0.1s0.3,0,0.4,0.1c0.1,0.1,0.3,0.1,0.4,0.2s0.2,0.2,0.3,0.4C375.3,51.1,375.4,51.2,375.4,51.4z"/>
				<path class="st1" d="M384,55.6c0.9,0,1.7,0.2,2.4,0.5c0.7,0.3,1.3,0.7,1.8,1.3s0.9,1.2,1.1,2c0.3,0.8,0.4,1.7,0.4,2.7
					s-0.1,1.9-0.4,2.7c-0.3,0.8-0.6,1.5-1.1,2c-0.5,0.6-1.1,1-1.8,1.3c-0.7,0.3-1.5,0.5-2.4,0.5c-0.9,0-1.7-0.2-2.4-0.5
					c-0.7-0.3-1.3-0.7-1.8-1.3c-0.5-0.6-0.9-1.2-1.1-2c-0.3-0.8-0.4-1.7-0.4-2.7s0.1-1.9,0.4-2.7s0.6-1.5,1.1-2s1.1-1,1.8-1.3
					C382.3,55.8,383.1,55.6,384,55.6z M384,67.6c0.7,0,1.4-0.1,2-0.4c0.6-0.3,1-0.6,1.4-1.1c0.4-0.5,0.7-1.1,0.8-1.7
					c0.2-0.7,0.3-1.4,0.3-2.3c0-0.8-0.1-1.6-0.3-2.3c-0.2-0.7-0.5-1.3-0.8-1.7c-0.4-0.5-0.8-0.9-1.4-1.1c-0.6-0.3-1.2-0.4-2-0.4
					c-0.7,0-1.4,0.1-2,0.4c-0.6,0.3-1,0.6-1.4,1.1c-0.4,0.5-0.7,1.1-0.8,1.7c-0.2,0.7-0.3,1.4-0.3,2.3c0,0.8,0.1,1.6,0.3,2.3
					c0.2,0.7,0.5,1.3,0.8,1.7c0.4,0.5,0.8,0.8,1.4,1.1C382.6,67.4,383.3,67.6,384,67.6z"/>
				<path class="st1" d="M394.2,58c0.6-0.7,1.2-1.3,2-1.7c0.8-0.4,1.6-0.7,2.5-0.7c0.7,0,1.3,0.1,1.8,0.3c0.5,0.2,1,0.5,1.3,0.9
					c0.3,0.4,0.6,0.9,0.8,1.5c0.2,0.6,0.3,1.2,0.3,2v8h-1.2v-8c0-1.2-0.3-2.1-0.8-2.8c-0.5-0.7-1.4-1-2.4-1c-0.8,0-1.6,0.2-2.3,0.6
					c-0.7,0.4-1.3,1-1.9,1.7v9.4h-1.2V55.8h0.7c0.2,0,0.3,0.1,0.4,0.3L394.2,58z"/>
			</g>
		</g>
		<g>
			<g>
				<path class="st1" d="M586.4,50.8c0,0-0.1,0.1-0.1,0.1c0,0-0.1,0-0.2,0c-0.1,0-0.2-0.1-0.3-0.2s-0.3-0.2-0.6-0.4
					c-0.2-0.1-0.5-0.3-0.9-0.4c-0.4-0.1-0.8-0.2-1.3-0.2c-0.7,0-1.4,0.1-1.9,0.4c-0.6,0.3-1,0.6-1.4,1.1c-0.4,0.5-0.7,1.1-0.9,1.7
					c-0.2,0.7-0.3,1.4-0.3,2.3c0,0.9,0.1,1.7,0.3,2.3c0.2,0.7,0.5,1.3,0.9,1.7c0.4,0.5,0.8,0.8,1.4,1.1c0.5,0.2,1.1,0.4,1.8,0.4
					c0.6,0,1.1-0.1,1.5-0.2c0.4-0.1,0.7-0.3,1-0.5s0.5-0.3,0.6-0.5s0.3-0.2,0.4-0.2s0.2,0,0.3,0.1l0.3,0.4c-0.2,0.3-0.4,0.5-0.7,0.7
					c-0.3,0.2-0.6,0.4-1,0.6c-0.4,0.2-0.8,0.3-1.2,0.4s-0.9,0.1-1.4,0.1c-0.8,0-1.5-0.1-2.2-0.4c-0.7-0.3-1.2-0.7-1.7-1.3
					c-0.5-0.5-0.8-1.2-1.1-2c-0.3-0.8-0.4-1.7-0.4-2.7c0-1,0.1-1.8,0.4-2.6c0.3-0.8,0.6-1.5,1.1-2c0.5-0.6,1.1-1,1.8-1.3
					s1.5-0.5,2.4-0.5c0.8,0,1.5,0.1,2.2,0.4c0.6,0.3,1.2,0.6,1.6,1.1L586.4,50.8z"/>
				<path class="st1" d="M590,54.9v0.2c0,0.9,0.1,1.8,0.3,2.5s0.5,1.3,0.9,1.8c0.4,0.5,0.9,0.8,1.5,1.1c0.6,0.2,1.2,0.4,1.9,0.4
					c0.6,0,1.2-0.1,1.6-0.2c0.5-0.1,0.8-0.3,1.2-0.5c0.3-0.2,0.6-0.3,0.7-0.5s0.3-0.2,0.4-0.2c0.1,0,0.2,0,0.3,0.1l0.3,0.4
					c-0.2,0.3-0.5,0.5-0.8,0.7c-0.3,0.2-0.7,0.4-1.1,0.6c-0.4,0.2-0.8,0.3-1.3,0.4c-0.5,0.1-0.9,0.1-1.4,0.1c-0.9,0-1.6-0.1-2.3-0.4
					c-0.7-0.3-1.3-0.7-1.8-1.3c-0.5-0.6-0.9-1.3-1.2-2.1c-0.3-0.8-0.4-1.8-0.4-2.8c0-0.9,0.1-1.7,0.4-2.5s0.6-1.4,1.1-2
					c0.5-0.5,1.1-1,1.8-1.3c0.7-0.3,1.5-0.5,2.4-0.5c0.7,0,1.4,0.1,2,0.4c0.6,0.2,1.1,0.6,1.6,1.1c0.4,0.5,0.8,1,1,1.7
					s0.4,1.5,0.4,2.3c0,0.2,0,0.3-0.1,0.4c0,0.1-0.1,0.1-0.3,0.1H590z M598.4,54.1c0-0.7-0.1-1.3-0.3-1.8s-0.5-1-0.8-1.4
					c-0.3-0.4-0.8-0.7-1.2-0.8c-0.5-0.2-1-0.3-1.6-0.3c-0.6,0-1.2,0.1-1.7,0.3c-0.5,0.2-1,0.5-1.3,0.9c-0.4,0.4-0.7,0.8-0.9,1.4
					c-0.2,0.5-0.4,1.1-0.5,1.8H598.4z"/>
				<path class="st1" d="M603.8,52.2c0.2-0.5,0.4-1,0.7-1.4c0.2-0.4,0.5-0.7,0.9-1s0.7-0.5,1.1-0.6c0.4-0.1,0.8-0.2,1.3-0.2
					c0.3,0,0.5,0,0.8,0.1c0.3,0,0.5,0.1,0.7,0.2l-0.1,0.8c0,0.1-0.1,0.2-0.2,0.2c-0.1,0-0.3,0-0.5-0.1s-0.5-0.1-0.8-0.1
					c-0.5,0-0.9,0.1-1.3,0.2c-0.4,0.1-0.7,0.4-1,0.7c-0.3,0.3-0.6,0.7-0.8,1.1c-0.2,0.4-0.4,0.9-0.6,1.5v8.1h-1.2V49.2h0.6
					c0.1,0,0.2,0,0.3,0.1s0.1,0.2,0.1,0.3L603.8,52.2z"/>
				<path class="st1" d="M622,61.7h-1.2V50.4h-7.2v8.5c0,0.3,0,0.6,0.1,0.9c0.1,0.2,0.2,0.5,0.4,0.6c0.2,0.2,0.3,0.3,0.5,0.4
					c0.2,0.1,0.4,0.1,0.7,0.1c0.3,0,0.6,0,0.8-0.1s0.4-0.2,0.6-0.3c0.2-0.1,0.3-0.2,0.4-0.3s0.2-0.1,0.2-0.1c0.1,0,0.1,0,0.2,0.1
					l0.3,0.5c-0.3,0.4-0.7,0.6-1.2,0.8c-0.5,0.2-1,0.3-1.5,0.3c-0.8,0-1.5-0.2-2-0.7c-0.5-0.5-0.7-1.2-0.7-2.2v-8.5h-1.8
					c-0.1,0-0.2,0-0.2-0.1s-0.1-0.1-0.1-0.2v-0.5l2.1-0.2l0.3-4.5c0-0.1,0.1-0.1,0.1-0.2c0-0.1,0.1-0.1,0.2-0.1h0.6v4.8h8.4V61.7z
					 M622.5,44.7c0,0.2,0,0.3-0.1,0.4c-0.1,0.1-0.1,0.2-0.3,0.3c-0.1,0.1-0.2,0.2-0.4,0.2s-0.3,0.1-0.4,0.1s-0.3,0-0.4-0.1
					c-0.1-0.1-0.3-0.1-0.4-0.2c-0.1-0.1-0.2-0.2-0.2-0.3s-0.1-0.3-0.1-0.4s0-0.3,0.1-0.4s0.1-0.3,0.2-0.4c0.1-0.1,0.2-0.2,0.4-0.2
					c0.1-0.1,0.3-0.1,0.4-0.1s0.3,0,0.4,0.1c0.1,0.1,0.3,0.1,0.4,0.2s0.2,0.2,0.3,0.4C622.5,44.4,622.5,44.5,622.5,44.7z"/>
				<path class="st1" d="M627,61.7V50.5l-1.8-0.1c-0.2,0-0.4-0.1-0.4-0.3v-0.5h2.1v-1.1c0-0.8,0.1-1.5,0.3-2.1
					c0.2-0.6,0.6-1.1,1-1.6c0.4-0.4,1-0.8,1.6-1c0.6-0.2,1.3-0.3,2.1-0.3c0.3,0,0.6,0,0.8,0.1c0.3,0,0.5,0.1,0.8,0.2l-0.1,0.6
					c0,0.1,0,0.1-0.1,0.1c-0.1,0-0.1,0-0.2,0s-0.2,0-0.4,0c-0.2,0-0.3,0-0.6,0c-1.3,0-2.3,0.3-3.1,1c-0.7,0.7-1.1,1.7-1.1,3.1v1h7.3
					v12.1h-1.2V50.4h-6.1v11.2H627z"/>
				<path class="st1" d="M648.2,50.8c0,0-0.1,0.1-0.1,0.1c0,0-0.1,0-0.2,0c-0.1,0-0.2-0.1-0.3-0.2s-0.3-0.2-0.6-0.4
					c-0.2-0.1-0.5-0.3-0.9-0.4c-0.4-0.1-0.8-0.2-1.3-0.2c-0.7,0-1.4,0.1-1.9,0.4c-0.6,0.3-1,0.6-1.4,1.1c-0.4,0.5-0.7,1.1-0.9,1.7
					c-0.2,0.7-0.3,1.4-0.3,2.3c0,0.9,0.1,1.7,0.3,2.3c0.2,0.7,0.5,1.3,0.9,1.7c0.4,0.5,0.8,0.8,1.4,1.1c0.5,0.2,1.1,0.4,1.8,0.4
					c0.6,0,1.1-0.1,1.5-0.2c0.4-0.1,0.7-0.3,1-0.5s0.5-0.3,0.6-0.5s0.3-0.2,0.4-0.2s0.2,0,0.3,0.1l0.3,0.4c-0.2,0.3-0.4,0.5-0.7,0.7
					c-0.3,0.2-0.6,0.4-1,0.6c-0.4,0.2-0.8,0.3-1.2,0.4s-0.9,0.1-1.4,0.1c-0.8,0-1.5-0.1-2.2-0.4c-0.7-0.3-1.2-0.7-1.7-1.3
					c-0.5-0.5-0.8-1.2-1.1-2c-0.3-0.8-0.4-1.7-0.4-2.7c0-1,0.1-1.8,0.4-2.6c0.3-0.8,0.6-1.5,1.1-2c0.5-0.6,1.1-1,1.8-1.3
					s1.5-0.5,2.4-0.5c0.8,0,1.5,0.1,2.2,0.4c0.6,0.3,1.2,0.6,1.6,1.1L648.2,50.8z"/>
				<path class="st1" d="M651.2,50.9c0.7-0.7,1.3-1.1,2.1-1.5c0.7-0.3,1.5-0.5,2.4-0.5c0.7,0,1.3,0.1,1.8,0.3
					c0.5,0.2,0.9,0.5,1.3,0.9s0.6,0.9,0.7,1.4c0.2,0.6,0.3,1.2,0.3,1.9v8.1h-0.5c-0.3,0-0.4-0.1-0.5-0.4l-0.2-1.6
					c-0.3,0.3-0.7,0.6-1,0.9c-0.3,0.3-0.7,0.5-1.1,0.7c-0.4,0.2-0.8,0.3-1.2,0.4c-0.4,0.1-0.9,0.2-1.4,0.2c-0.4,0-0.8-0.1-1.2-0.2
					c-0.4-0.1-0.8-0.3-1.1-0.6c-0.3-0.3-0.6-0.6-0.8-1s-0.3-0.9-0.3-1.5c0-0.5,0.2-1,0.5-1.5c0.3-0.5,0.8-0.8,1.4-1.2
					s1.5-0.6,2.5-0.8c1-0.2,2.2-0.3,3.6-0.4v-1.3c0-1.2-0.2-2-0.7-2.7c-0.5-0.6-1.2-0.9-2.2-0.9c-0.6,0-1.1,0.1-1.5,0.3
					s-0.8,0.4-1.1,0.6s-0.5,0.4-0.7,0.6c-0.2,0.2-0.3,0.3-0.5,0.3c-0.1,0-0.2,0-0.2-0.1s-0.1-0.1-0.2-0.2L651.2,50.9z M658.6,55.6
					c-1.2,0-2.2,0.1-3.1,0.3c-0.9,0.1-1.6,0.3-2.1,0.6c-0.6,0.3-1,0.6-1.2,0.9c-0.3,0.3-0.4,0.7-0.4,1.2c0,0.4,0.1,0.8,0.2,1.1
					c0.1,0.3,0.3,0.6,0.6,0.8s0.5,0.3,0.8,0.4c0.3,0.1,0.6,0.1,0.9,0.1c0.5,0,0.9-0.1,1.3-0.2c0.4-0.1,0.8-0.3,1.1-0.4
					c0.3-0.2,0.7-0.4,1-0.7c0.3-0.3,0.6-0.5,0.9-0.8V55.6z"/>
				<path class="st1" d="M674,61.7h-1.2V50.4h-7.2v8.5c0,0.3,0,0.6,0.1,0.9c0.1,0.2,0.2,0.5,0.4,0.6c0.2,0.2,0.3,0.3,0.5,0.4
					c0.2,0.1,0.4,0.1,0.7,0.1c0.3,0,0.6,0,0.8-0.1s0.4-0.2,0.6-0.3c0.2-0.1,0.3-0.2,0.4-0.3s0.2-0.1,0.2-0.1c0.1,0,0.1,0,0.2,0.1
					l0.3,0.5c-0.3,0.4-0.7,0.6-1.2,0.8c-0.5,0.2-1,0.3-1.5,0.3c-0.8,0-1.5-0.2-2-0.7c-0.5-0.5-0.7-1.2-0.7-2.2v-8.5h-1.8
					c-0.1,0-0.2,0-0.2-0.1s-0.1-0.1-0.1-0.2v-0.5l2.1-0.2l0.3-4.5c0-0.1,0.1-0.1,0.1-0.2c0-0.1,0.1-0.1,0.2-0.1h0.6v4.8h8.4V61.7z
					 M674.5,44.7c0,0.2,0,0.3-0.1,0.4c-0.1,0.1-0.1,0.2-0.3,0.3c-0.1,0.1-0.2,0.2-0.4,0.2s-0.3,0.1-0.4,0.1s-0.3,0-0.4-0.1
					c-0.1-0.1-0.3-0.1-0.4-0.2c-0.1-0.1-0.2-0.2-0.2-0.3s-0.1-0.3-0.1-0.4s0-0.3,0.1-0.4s0.1-0.3,0.2-0.4c0.1-0.1,0.2-0.2,0.4-0.2
					c0.1-0.1,0.3-0.1,0.4-0.1s0.3,0,0.4,0.1c0.1,0.1,0.3,0.1,0.4,0.2s0.2,0.2,0.3,0.4C674.5,44.4,674.5,44.5,674.5,44.7z"/>
				<path class="st1" d="M683.2,49c0.9,0,1.7,0.2,2.4,0.5c0.7,0.3,1.3,0.7,1.8,1.3s0.9,1.2,1.1,2c0.3,0.8,0.4,1.7,0.4,2.7
					s-0.1,1.9-0.4,2.7c-0.3,0.8-0.6,1.5-1.1,2c-0.5,0.6-1.1,1-1.8,1.3c-0.7,0.3-1.5,0.5-2.4,0.5c-0.9,0-1.7-0.2-2.4-0.5
					c-0.7-0.3-1.3-0.7-1.8-1.3c-0.5-0.6-0.9-1.2-1.1-2c-0.3-0.8-0.4-1.7-0.4-2.7s0.1-1.9,0.4-2.7s0.6-1.5,1.1-2s1.1-1,1.8-1.3
					C681.5,49.1,682.3,49,683.2,49z M683.2,60.9c0.7,0,1.4-0.1,2-0.4c0.6-0.3,1-0.6,1.4-1.1c0.4-0.5,0.7-1.1,0.8-1.7
					s0.3-1.4,0.3-2.3c0-0.8-0.1-1.6-0.3-2.3c-0.2-0.7-0.5-1.3-0.8-1.7c-0.4-0.5-0.8-0.9-1.4-1.1c-0.6-0.3-1.2-0.4-2-0.4
					c-0.7,0-1.4,0.1-2,0.4c-0.6,0.3-1,0.6-1.4,1.1c-0.4,0.5-0.7,1.1-0.8,1.7c-0.2,0.7-0.3,1.4-0.3,2.3c0,0.8,0.1,1.6,0.3,2.3
					s0.5,1.3,0.8,1.7c0.4,0.5,0.8,0.8,1.4,1.1C681.8,60.8,682.5,60.9,683.2,60.9z"/>
				<path class="st1" d="M693.4,51.3c0.6-0.7,1.2-1.3,2-1.7c0.8-0.4,1.6-0.7,2.5-0.7c0.7,0,1.3,0.1,1.8,0.3c0.5,0.2,1,0.5,1.3,0.9
					c0.3,0.4,0.6,0.9,0.8,1.5c0.2,0.6,0.3,1.2,0.3,2v8h-1.2v-8c0-1.2-0.3-2.1-0.8-2.8c-0.5-0.7-1.4-1-2.4-1c-0.8,0-1.6,0.2-2.3,0.6
					c-0.7,0.4-1.3,1-1.9,1.7v9.4h-1.2V49.2h0.7c0.2,0,0.3,0.1,0.4,0.3L693.4,51.3z"/>
			</g>
		</g>
	</g>
</g>
</svg>
