<?xml version="1.0" encoding="utf-8"?>
<!-- Generator: Adobe Illustrator 21.0.0, SVG Export Plug-In . SVG Version: 6.00 Build 0)  -->
<svg version="1.1" id="Layer_1" xmlns="http://www.w3.org/2000/svg" xmlns:xlink="http://www.w3.org/1999/xlink" x="0px" y="0px"
	 viewBox="0 0 154.5 54.3" style="enable-background:new 0 0 154.5 54.3;" xml:space="preserve">
<style type="text/css">
	.st0{fill:#818797;}
</style>
<path class="st0" d="M22.1,24.9c0-1.7,0-3.3,0-5c5.7,0,11.4,0,17.1,0c1.9,9.4-3.6,18.9-13.9,20.4c-7.8,1.1-14.2-1.4-18.8-7.7
	c-8.3-11.2-1.7-27.4,12-29.8c6.2-1.1,11.6,0.4,16.4,4.8c-1.3,1.1-2.5,2.2-3.7,3.2c-1.3-0.7-2.7-1.8-4.3-2.4
	c-8.2-3.2-17.2,2.2-18.4,11c-1,7.4,3.3,14.1,10.4,15.7c4.7,1.1,8.9,0.1,12.5-3.3c1.7-1.6,2.5-3.7,3-6c0.2-0.9-0.3-1-1-1
	c-3.2,0-6.4,0-9.7,0C23.2,24.9,22.7,24.9,22.1,24.9z"/>
<path class="st0" d="M113,38.1c-1.5,0.7-2.8,1.7-4.3,2.1c-4.6,1.3-9.7-1.2-12.4-5.8c-4-7-0.2-16.2,7.6-18.1c3.3-0.8,6.3-0.2,8.9,2.4
	c0.1-0.7,0.2-1.2,0.3-1.9c1.4,0,2.9-0.1,4.3,0.1c0.2,0,0.5,0.8,0.5,1.2c0,7,0.1,14,0,21c0,1.4-0.2,2.9-0.5,4.3
	c-1.1,4.8-4.9,7.9-9.8,8.2c-5.4,0.3-10.1-2.5-11.8-7.1c1.3-0.5,2.5-1.2,3.9-1.6c0.3-0.1,0.8,0.4,1.1,0.7c1.8,2.8,4.7,4,7.8,3.1
	c2.6-0.7,4.2-2.8,4.4-5.5C113.1,40.1,113,39.1,113,38.1z M100,28.3c0,0.3,0,0.5,0,0.8c0.1,2.9,2.1,5.5,4.7,6.5
	c2.4,0.8,5.1,0.2,6.8-1.7c2.6-2.9,2.6-7.9,0.1-10.8c-2.4-2.7-6.4-3-9.1-0.5C100.8,24,100,26,100,28.3z"/>
<path class="st0" d="M80.3,16.1c6.9,0,12.2,5.3,12.2,12.2c-0.1,8.1-6.4,12.5-12.8,12.3c-6.4-0.2-11.6-5.6-11.5-12.4
	C68.2,21.3,73.4,16.1,80.3,16.1z M87.2,28.4c0-0.3,0-0.5,0-0.8c-0.2-4.3-4.1-7.5-8-6.8c-3.1,0.6-5.3,2.9-5.8,6.1
	c-0.5,3.5,0.9,6.6,3.7,8.1C81.8,37.6,87.2,34,87.2,28.4z"/>
<path class="st0" d="M41.5,28.1c0.1-6.9,5.3-12.1,12.2-12c7.2,0,12.2,5.9,12.1,12.6c-0.1,5.9-5,12.2-13,11.9
	C46.5,40.3,41.5,34.9,41.5,28.1z M46.7,28.3c0,4.2,3,7.6,6.9,7.6c3.9,0.1,7.1-3.4,7.1-7.6s-3.1-7.5-7-7.6
	C49.8,20.7,46.7,24.1,46.7,28.3z"/>
<path class="st0" d="M135.5,32.1c2.1,4.8,7.2,5,12.1,0.5c1.2,0.8,2.5,1.7,3.9,2.6c-1.7,2.5-4,4.2-6.9,5c-5.6,1.5-11.4-1-13.9-6.2
	c-2.6-5.4-1.1-12.4,3.4-15.7c5.7-4.2,13.3-2.2,16.5,4.4c1.2,2.4,1.2,2.4-1.3,3.4c-4.3,1.8-8.5,3.6-12.8,5.4
	C136.3,31.7,136,31.9,135.5,32.1z M134.7,28c3.7-1.6,7.2-3.1,10.8-4.6c-1-2.2-3.5-3.2-5.9-2.5C136.4,21.8,134.3,24.8,134.7,28z"/>
<path class="st0" d="M121.8,39.8c0-12.1,0-23.9,0-36c1.5,0,2.9,0,4.4,0c0.2,0,0.5,0.3,0.6,0.6c0.1,0.3,0.1,0.7,0.1,1
	c0,10.9,0,21.8,0,32.7c0,1.2-0.3,1.8-1.6,1.7C124.2,39.7,123.1,39.8,121.8,39.8z"/>
</svg>
