<?xml version="1.0" encoding="utf-8"?>
<!-- Generator: Adobe Illustrator 21.0.0, SVG Export Plug-In . SVG Version: 6.00 Build 0)  -->
<svg version="1.1" id="Layer_1" xmlns="http://www.w3.org/2000/svg" xmlns:xlink="http://www.w3.org/1999/xlink" x="0px" y="0px"
	 viewBox="0 0 163.3 69.3" style="enable-background:new 0 0 163.3 69.3;" xml:space="preserve">
<style type="text/css">
	.st0{fill:#82889A;}
</style>
<g>
	<rect x="20.3" y="2.7" class="st0" width="1.3" height="64.3"/>
	<g>
		<g>
			<path class="st0" d="M53,18.3c-0.7,0-1.4,0-2.1,0c-0.3,0-0.4-0.1-0.4-0.4c0-0.5,0-0.9,0-1.4c0-0.3,0.1-0.4,0.4-0.4
				c2.2,0,4.4,0,6.5,0c0.5,0,0.5,0.2,0.5,0.6c0.1,4.1-2.8,7.4-6.8,8.2c-4.8,0.9-9.4-3-9.4-7.9c0-3.3,1.5-5.9,4.5-7.4
				c2.9-1.5,5.8-1.2,8.4,0.6c1.4,1,1.4,1,0.1,2.2c-0.3,0.3-0.5,0.4-0.9,0.1c-2-1.9-4.9-2.1-7.2-0.6c-2.2,1.4-3.3,4.3-2.4,6.7
				c0.9,2.6,3.3,4.3,6.1,4.1c2.3-0.1,4.4-1.7,5.2-3.9c0.2-0.5,0-0.5-0.4-0.5C54.5,18.3,53.8,18.3,53,18.3L53,18.3z"/>
			<path class="st0" d="M84.1,24.1c-1-1.1-1.7-2.3-1.8-3.8c-0.1-2,0.8-3.7,2.5-4.8c1.6-1,3.3-1.2,5.1-0.3c0.2,0.1,0.5,0.5,0.6-0.1
				c0-0.2,0.3-0.1,0.5-0.1c1.6,0,1.6,0,1.6,1.6c0,2.6,0,5.1,0,7.7c0,1.1,0.1,2.1-0.4,3.1c-0.9,1.9-2.4,2.9-4.5,2.8
				c-2,0-3.5-1-4.4-2.8c-0.2-0.4-0.2-0.6,0.3-0.7c0,0,0.1,0,0.1-0.1c0.2,0,0.3-0.1,0.5-0.1c0.1,0,0.2,0,0.3-0.1h0.1
				c0.4-0.1,0.7-0.1,0.9,0.4c0.6,1.1,2.1,1.6,3.2,1.1c1.3-0.6,1.8-1.6,1.6-3c0-0.2-0.1-0.3-0.3-0.2c-1.5,0.9-3.1,0.9-4.6,0.2
				C85.2,25,85.2,25,85,25c-0.1-0.2-0.3-0.3-0.6-0.4l0,0l-0.1-0.1l0,0C84.3,24.2,84.2,24.1,84.1,24.1z M90.2,20.1
				c0-1.9-1.1-3.2-2.7-3.2s-3,1.5-3,3.1c0,1.8,1.3,3.2,3,3.2C89.1,23.2,90.2,21.9,90.2,20.1z"/>
			<path class="st0" d="M102.3,25.1c-2.7-0.1-4.6-1.7-5.2-4c-0.6-2.3,0.5-4.7,2.6-5.8s4.6-0.7,6.3,1c0.4,0.4,0.7,0.9,0.9,1.3
				c0.3,0.5,0.1,0.8-0.4,1c-2,0.9-4.1,1.8-6.1,2.8c-0.7,0.3-0.7,0.4-0.1,0.8c1.3,1,3.2,0.8,4.3-0.5c0.3-0.3,0.4-0.4,0.8-0.2
				c0.3,0.2,0.6,0.4,1,0.5c0.5,0.2,0.5,0.5,0.2,0.8C105.3,24.3,103.9,25.1,102.3,25.1z M99.1,19.4c1.6-0.7,3.1-1.4,4.7-2.1
				c-1-0.6-2-0.7-3-0.3C99.9,17.5,99.3,18.2,99.1,19.4z"/>
			<path class="st0" d="M64.4,25.3c-3,0-5.5-2.5-5.5-5.5s2.5-5.5,5.5-5.5c3,0,5.5,2.5,5.5,5.5C70,22.8,67.5,25.3,64.4,25.3z
				 M67.7,19.8c0-1.8-1.5-3.3-3.3-3.3s-3.3,1.5-3.3,3.3s1.5,3.3,3.3,3.3C66.3,23.1,67.7,21.6,67.7,19.8z"/>
			<path class="st0" d="M76.3,14.3c3.1,0,5.6,2.6,5.5,5.7c-0.1,2.9-2.4,5.4-5.7,5.3c-3-0.1-5.4-2.6-5.4-5.7
				C70.8,16.5,73.5,14.2,76.3,14.3z M79.6,19.8c0-1.8-1.5-3.3-3.2-3.3c-1.8,0-3.3,1.5-3.3,3.3c0,1.9,1.4,3.3,3.3,3.3
				C78.1,23.1,79.6,21.8,79.6,19.8z"/>
			<path class="st0" d="M96.2,17.1c0,2.4,0,4.9,0,7.3c0,0.4-0.1,0.6-0.6,0.6c-0.4,0-0.8,0-1.2,0c-0.4,0-0.5-0.1-0.5-0.5
				c0-5,0-9.9,0-14.9c0-0.4,0.1-0.5,0.5-0.5c1.8,0,1.8-0.1,1.8,1.7C96.2,12.9,96.2,15,96.2,17.1z"/>
			<path class="st0" d="M84.4,24.3L84.4,24.3C84.5,24.4,84.5,24.4,84.4,24.3z"/>
		</g>
	</g>
	<path class="st0" d="M113.6,49.8c-0.1,0.1-0.3,0.2-0.4,0.3C113.3,49.9,113.5,49.9,113.6,49.8z"/>
	<g>
		<g>
			<path class="st0" d="M52,34.3c1.8,0,3.3,0.2,4.6,0.6c1.3,0.4,2.3,1,3.2,1.8s1.4,1.6,1.9,2.7c0.4,1,0.6,2.2,0.6,3.4
				c0,1.3-0.2,2.4-0.6,3.5c-0.4,1-1,1.9-1.9,2.7s-1.9,1.4-3.2,1.8c-1.3,0.4-2.8,0.6-4.4,0.6h-3.7v9.3h-4.8V34.3
				C43.3,34.3,52,34.3,52,34.3z M52,47.5c0.9,0,1.6-0.1,2.3-0.3c0.7-0.2,1.3-0.6,1.6-1c0.4-0.4,0.8-1,1-1.5c0.2-0.6,0.3-1.3,0.3-2
				c0-0.6-0.1-1.4-0.3-1.9c-0.2-0.6-0.6-1-1-1.4c-0.4-0.4-1-0.6-1.6-0.9c-0.6-0.2-1.4-0.3-2.3-0.3h-3.7v9.4
				C48.3,47.5,52,47.5,52,47.5z"/>
			<path class="st0" d="M64.2,44.6c2.2-1.9,4.8-2.9,7.7-2.9c1,0,2,0.2,2.9,0.6c0.9,0.4,1.5,0.9,2.2,1.4c0.6,0.6,1,1.4,1.4,2.3
				c0.3,0.9,0.5,1.9,0.5,2.9v11.8h-2c-0.4,0-0.8-0.1-1-0.2c-0.2-0.1-0.4-0.4-0.6-0.8l-0.4-1.4c-0.5,0.4-1,0.8-1.4,1
				c-0.5,0.3-0.9,0.6-1.4,0.8c-0.5,0.2-1,0.4-1.5,0.5c-0.6,0.1-1.1,0.2-1.9,0.2c-0.8,0-1.5-0.1-2.2-0.3c-0.6-0.2-1.3-0.5-1.8-1
				c-0.5-0.4-0.9-1-1.1-1.5c-0.3-0.6-0.4-1.4-0.4-2.3c0-0.5,0.1-1,0.2-1.4c0.2-0.5,0.4-0.9,0.8-1.4c0.4-0.4,0.8-0.8,1.4-1.1
				c0.6-0.4,1.3-0.6,2.2-1c0.9-0.3,1.8-0.5,2.9-0.6c1-0.2,2.3-0.3,3.8-0.3v-1c0-1.3-0.3-2.2-0.8-2.8c-0.5-0.6-1.3-0.9-2.3-0.9
				c-0.6,0-1.4,0.1-1.9,0.3c-0.5,0.2-0.9,0.4-1.3,0.6c-0.4,0.2-0.6,0.4-1,0.6c-0.3,0.2-0.6,0.3-1,0.3c-0.3,0-0.6-0.1-0.8-0.3
				c-0.2-0.2-0.4-0.4-0.5-0.6L64.2,44.6z M74.5,52.7c-1.3,0.1-2.4,0.2-3.3,0.3c-0.9,0.2-1.5,0.4-2.2,0.6c-0.5,0.3-0.9,0.6-1.1,0.9
				c-0.2,0.3-0.4,0.6-0.4,1c0,0.8,0.2,1.4,0.6,1.6c0.5,0.3,1,0.5,1.9,0.5c0.9,0,1.8-0.2,2.4-0.5s1.4-0.9,1.9-1.5v-2.9H74.5z"/>
			<path class="st0" d="M87.3,45.2c0.6-1,1.3-1.9,2-2.7c0.8-0.6,1.8-1,2.8-1c0.9,0,1.5,0.2,2,0.6l-0.3,3.4c-0.1,0.2-0.2,0.4-0.3,0.5
				c-0.1,0.1-0.3,0.1-0.5,0.1s-0.5,0-0.8-0.1c-0.4-0.1-0.6-0.1-1-0.1c-0.5,0-1,0.1-1.4,0.2c-0.4,0.1-0.8,0.4-1,0.6
				c-0.3,0.3-0.6,0.6-0.8,1c-0.2,0.4-0.5,0.9-0.6,1.4v11.4h-4.4V41.9h2.7c0.5,0,0.8,0.1,1,0.3c0.2,0.2,0.3,0.5,0.4,0.9L87.3,45.2z"
				/>
			<path class="st0" d="M102.9,61c-1.6,0-2.9-0.5-3.7-1.4c-0.9-0.9-1.3-2.2-1.3-3.8V45.4H96c-0.2,0-0.5-0.1-0.6-0.2
				c-0.2-0.2-0.3-0.4-0.3-0.6v-1.8l3-0.5l1-5.1c0.1-0.2,0.2-0.4,0.4-0.6c0.2-0.1,0.4-0.2,0.6-0.2h2.3v5.8h4.9v3.2h-4.9v10.1
				c0,0.6,0.1,1,0.4,1.4c0.3,0.3,0.6,0.5,1.1,0.5c0.3,0,0.5,0,0.6-0.1s0.4-0.1,0.5-0.2s0.3-0.1,0.4-0.2c0.1-0.1,0.2-0.1,0.3-0.1
				c0.1,0,0.2,0,0.3,0.1c0.1,0.1,0.2,0.2,0.3,0.3l1.4,2.2c-0.6,0.6-1.4,1-2.3,1.3C104.6,60.7,103.7,61,102.9,61z"/>
			<path class="st0" d="M114.3,44.4c0.4-0.4,0.8-0.6,1.1-1c0.4-0.3,0.9-0.6,1.4-0.8c0.5-0.2,1-0.4,1.4-0.5c0.5-0.1,1-0.2,1.8-0.2
				c1,0,1.9,0.2,2.7,0.5c0.8,0.4,1.4,0.9,1.9,1.4c0.5,0.6,1,1.4,1.1,2.3c0.3,0.9,0.4,1.9,0.4,2.8v11.8h-4.4V48.8
				c0-1.1-0.3-2-0.8-2.7c-0.5-0.6-1.4-1-2.3-1c-0.8,0-1.4,0.2-2.2,0.5c-0.6,0.4-1.4,0.9-1.9,1.4v13.5h-4.4V42h2.7
				c0.6,0,1,0.3,1.1,0.8L114.3,44.4z"/>
			<path class="st0" d="M134,51.9c0.1,1,0.2,1.8,0.5,2.5c0.3,0.6,0.6,1.3,1,1.8c0.4,0.5,1,0.8,1.5,1c0.6,0.2,1.3,0.3,1.9,0.3
				c0.6,0,1.4-0.1,1.9-0.3c0.5-0.2,1-0.4,1.4-0.6c0.4-0.2,0.8-0.4,1-0.6c0.3-0.2,0.6-0.3,0.9-0.3c0.4,0,0.6,0.1,0.9,0.4l1.3,1.6
				c-0.5,0.6-1,1-1.6,1.4c-0.6,0.4-1.3,0.6-1.9,1c-0.6,0.2-1.4,0.4-2,0.5c-0.6,0.1-1.4,0.1-2,0.1c-1.3,0-2.5-0.2-3.6-0.6
				c-1-0.4-2-1-2.9-1.9c-0.8-0.9-1.4-1.9-1.9-3.1c-0.5-1.3-0.6-2.7-0.6-4.3c0-1.3,0.2-2.4,0.6-3.6c0.4-1.1,1-2.2,1.8-2.9
				c0.8-0.9,1.8-1.4,2.8-1.9c1-0.5,2.3-0.6,3.8-0.6c1.1,0,2.3,0.2,3.2,0.6c1,0.4,1.9,1,2.5,1.6c0.6,0.6,1.3,1.6,1.6,2.7
				c0.4,1,0.6,2.3,0.6,3.6c0,0.6-0.1,1.1-0.2,1.4c-0.1,0.2-0.4,0.4-0.9,0.4L134,51.9L134,51.9L134,51.9L134,51.9z M142.7,49.2
				c0-0.6-0.1-1.1-0.3-1.6c-0.2-0.5-0.4-1-0.8-1.4c-0.3-0.4-0.8-0.6-1.3-0.9c-0.5-0.2-1-0.3-1.8-0.3c-1.3,0-2.3,0.4-3.1,1
				c-0.8,0.8-1.3,1.8-1.4,3.1C134,49.2,142.7,49.2,142.7,49.2z"/>
			<path class="st0" d="M154.2,45.2c0.6-1,1.3-1.9,2-2.7c0.8-0.6,1.8-1,2.8-1c0.9,0,1.5,0.2,2,0.6l-0.3,3.4
				c-0.1,0.2-0.2,0.4-0.3,0.5c-0.1,0.1-0.3,0.1-0.5,0.1c-0.2,0-0.5,0-0.8-0.1c-0.4-0.1-0.6-0.1-1-0.1c-0.5,0-1,0.1-1.4,0.2
				s-0.8,0.4-1,0.6c-0.3,0.3-0.6,0.6-0.8,1c-0.2,0.4-0.5,0.9-0.6,1.4v11.4h-4.3V41.9h2.7c0.5,0,0.8,0.1,1,0.3
				c0.2,0.2,0.3,0.5,0.4,0.9L154.2,45.2z"/>
		</g>
	</g>
	<path class="st0" d="M3.7,63.6c0-0.6,0-1.2,0.2-1.7c0.2-0.5,0.3-0.8,0.6-1.2c0.3-0.4,0.5-0.5,1-0.6c0.3-0.2,0.8-0.2,1.2-0.2
		c0.5,0,0.8,0,1.2,0.2c0.3,0.2,0.6,0.3,1,0.6c0.3,0.3,0.5,0.6,0.6,1.2c0.1,0.6,0.1,1,0.1,1.5v1.4h3.2v1.7H3.7V63.6z M8.4,63.6
		c0-0.3,0-0.6-0.2-0.8c0-0.2-0.2-0.5-0.3-0.5S7.6,62,7.5,62c-0.2,0-0.5-0.2-0.6-0.2s-0.5,0-0.6,0.2c-0.2,0-0.3,0.2-0.5,0.3
		c-0.2,0.2-0.2,0.3-0.3,0.5c0,0.2-0.2,0.5-0.2,0.8V65h3.4v-1.4H8.4z"/>
	<path class="st0" d="M12.9,49.9v1.5c0,0.3-0.2,0.5-0.3,0.6l-3.1,2c-0.2,0-0.2,0.2-0.2,0.2c0,0.2,0,0.2,0,0.3v0.6h3.7v1.7H3.8v-2.7
		c0-0.6,0-1.2,0.2-1.7s0.3-0.8,0.5-1.2C4.6,51,5,50.9,5.3,50.7c0.3-0.2,0.6-0.2,1-0.2c0.3,0,0.6,0,0.8,0.2c0.3,0.2,0.5,0.2,0.8,0.3
		c0.2,0.2,0.5,0.3,0.6,0.6c0.2,0.3,0.3,0.5,0.3,0.8c0-0.2,0.2-0.2,0.2-0.3C9.2,52,9.2,52,9.4,51.9L12.9,49.9z M8.3,54.4
		c0-0.3,0-0.6-0.2-0.8c0-0.2-0.2-0.5-0.3-0.6c-0.2-0.2-0.3-0.3-0.5-0.3S7,52.4,6.7,52.4c-0.5,0-0.8,0.2-1,0.5
		c-0.2,0.3-0.3,0.8-0.3,1.4v1.2h3.1L8.3,54.4L8.3,54.4z"/>
	<path class="st0" d="M5,45.7h2.5v-3.2h1.4v3.2h2.7v-4.2h1.4v5.9H3.7v-5.9H5V45.7z"/>
	<path class="st0" d="M3.7,28.4h9.3v1.5h-6c-0.2,0-0.5,0-0.8,0l5.2,2.8c0.2,0.2,0.3,0.3,0.3,0.6v0.2c0,0.3-0.2,0.5-0.3,0.6L6.1,37
		c0.2,0,0.3,0,0.3,0c0.2,0,0.3,0,0.3,0h6v1.5H3.5V37v-0.2v-0.1v-0.2c0,0,0.2,0,0.2-0.2l5.2-2.9c0.2,0,0.3-0.2,0.5-0.2
		c0.2,0,0.3-0.2,0.5-0.2c-0.2,0-0.3-0.2-0.5-0.2s-0.3-0.2-0.5-0.2L4,30.4c0,0-0.2,0-0.2-0.2c0,0,0,0,0-0.2v-0.2v-0.2v-1.4H3.7
		L3.7,28.4z"/>
	<path class="st0" d="M12.9,23v1.7H3.7V23H12.9z"/>
	<path class="st0" d="M5,17.6h2.5v-3.2h1.4v3.2h2.7v-4h1.4v5.9H3.7v-5.9H5V17.6z"/>
	<path class="st0" d="M12.9,3.2v1.5c0,0.3-0.2,0.5-0.3,0.6l-3.1,2c-0.2,0-0.2,0.2-0.2,0.2c0,0.2,0,0.2,0,0.3v0.6h3.7v1.7H3.8V7.6
		c0-0.6,0-1.2,0.2-1.7s0.3-0.8,0.5-1.2C4.6,4.3,5,4.2,5.3,4c0.3-0.2,0.6-0.2,1-0.2c0.3,0,0.6,0,0.8,0.2c0.3,0.2,0.5,0.2,0.8,0.3
		c0.2,0.3,0.3,0.5,0.6,0.8C8.8,5.5,8.9,5.6,8.9,6c0-0.2,0.2-0.2,0.2-0.3c0.2-0.2,0.2-0.2,0.3-0.3L12.9,3.2z M8.3,7.6
		c0-0.3,0-0.6-0.2-0.8c0-0.2-0.2-0.5-0.3-0.6C7.6,6,7.5,5.8,7.3,5.8s-0.5,0-0.6,0c-0.5,0-0.8,0.2-1,0.5C5.4,6.6,5.1,6.9,5.1,7.7v1.2
		h3.2L8.3,7.6L8.3,7.6z"/>
</g>
</svg>
