<?xml version="1.0" encoding="utf-8"?>
<!-- Generator: Adobe Illustrator 21.0.0, SVG Export Plug-In . SVG Version: 6.00 Build 0)  -->
<svg version="1.1" id="Layer_1" xmlns="http://www.w3.org/2000/svg" xmlns:xlink="http://www.w3.org/1999/xlink" x="0px" y="0px"
	 viewBox="0 0 130.3 62.3" style="enable-background:new 0 0 130.3 62.3;" xml:space="preserve">
<style type="text/css">
	.st0{fill:#1F2733;}
	.st1{fill:#FFFFFF;}
</style>
<path class="st0" d="M102.7,1.8H27.6c-14.5,0-26.3,11-26.3,24.5v0c0,13.5,11.9,24.5,26.3,24.5h19.7c0.1,0,0.2,0,0.3,0
	c5.8,0.6,9.4,4.1,9.4,4.1l0,0l4.4,3.9c2.2,1.9,5.4,1.9,7.6,0l4.7-4.2c0.9-0.8,4.3-3.4,9.2-3.8c0.1,0,0.2,0,0.3,0h19.5
	c14.5,0,26.3-11,26.3-24.5v0C129,12.8,117.1,1.8,102.7,1.8z"/>
<g>
	<path class="st1" d="M24.8,23.4c-0.1,0.1-0.1,0.2-0.2,0.2c-0.1,0.1-0.2,0.1-0.3,0.1c-0.1,0-0.2,0-0.3-0.1c-0.1-0.1-0.3-0.1-0.4-0.2
		c-0.1-0.1-0.3-0.2-0.5-0.2c-0.2-0.1-0.4-0.1-0.7-0.1c-0.4,0-0.7,0.1-0.9,0.3c-0.2,0.2-0.3,0.4-0.3,0.7c0,0.2,0.1,0.4,0.2,0.5
		c0.1,0.1,0.3,0.2,0.5,0.3c0.2,0.1,0.4,0.2,0.7,0.3c0.3,0.1,0.5,0.2,0.8,0.3c0.3,0.1,0.5,0.2,0.8,0.3c0.3,0.1,0.5,0.3,0.7,0.5
		c0.2,0.2,0.4,0.4,0.5,0.7c0.1,0.3,0.2,0.6,0.2,1c0,0.4-0.1,0.9-0.2,1.3c-0.2,0.4-0.4,0.7-0.7,1c-0.3,0.3-0.7,0.5-1.1,0.7
		c-0.4,0.2-0.9,0.3-1.5,0.3c-0.3,0-0.6,0-0.9-0.1c-0.3-0.1-0.6-0.2-0.9-0.3c-0.3-0.1-0.6-0.2-0.8-0.4c-0.3-0.2-0.5-0.3-0.7-0.5
		l0.7-1.1c0-0.1,0.1-0.1,0.2-0.2c0.1,0,0.2-0.1,0.3-0.1c0.1,0,0.3,0,0.4,0.1c0.1,0.1,0.3,0.2,0.5,0.3c0.2,0.1,0.4,0.2,0.6,0.3
		c0.2,0.1,0.5,0.1,0.8,0.1c0.4,0,0.7-0.1,1-0.3c0.2-0.2,0.3-0.5,0.3-0.9c0-0.2-0.1-0.4-0.2-0.6c-0.1-0.1-0.3-0.3-0.5-0.4
		c-0.2-0.1-0.4-0.2-0.7-0.2s-0.5-0.2-0.8-0.2c-0.3-0.1-0.5-0.2-0.8-0.3s-0.5-0.3-0.7-0.5s-0.4-0.5-0.5-0.8S19,24.6,19,24.2
		c0-0.4,0.1-0.7,0.2-1.1c0.1-0.3,0.4-0.7,0.6-0.9c0.3-0.3,0.6-0.5,1-0.7c0.4-0.2,0.9-0.2,1.4-0.2c0.3,0,0.6,0,0.9,0.1
		c0.3,0,0.6,0.1,0.8,0.2s0.5,0.2,0.7,0.3c0.2,0.1,0.4,0.3,0.6,0.4L24.8,23.4z"/>
	<path class="st1" d="M28.5,24.2v4.4c0,0.3,0.1,0.6,0.2,0.8c0.2,0.2,0.4,0.3,0.7,0.3c0.2,0,0.4,0,0.6-0.1c0.2-0.1,0.4-0.2,0.6-0.4
		v-4.9h2.1v6.9h-1.3c-0.3,0-0.4-0.1-0.5-0.3l-0.1-0.4c-0.1,0.1-0.3,0.2-0.4,0.4c-0.1,0.1-0.3,0.2-0.5,0.3c-0.2,0.1-0.3,0.1-0.5,0.2
		s-0.4,0.1-0.6,0.1c-0.4,0-0.7-0.1-1-0.2c-0.3-0.1-0.5-0.3-0.7-0.6c-0.2-0.2-0.4-0.5-0.5-0.8s-0.2-0.7-0.2-1.1v-4.4H28.5z"/>
	<path class="st1" d="M34.3,31.1v-10h2.1v3.8c0.3-0.3,0.6-0.5,0.9-0.6c0.3-0.2,0.7-0.2,1.2-0.2c0.4,0,0.7,0.1,1,0.2
		c0.3,0.2,0.6,0.4,0.8,0.7c0.2,0.3,0.4,0.7,0.5,1.1s0.2,0.9,0.2,1.5c0,0.5-0.1,1-0.2,1.4c-0.1,0.4-0.3,0.8-0.6,1.1s-0.6,0.6-0.9,0.8
		c-0.4,0.2-0.8,0.3-1.2,0.3c-0.2,0-0.4,0-0.6-0.1c-0.2,0-0.3-0.1-0.4-0.2c-0.1-0.1-0.3-0.2-0.4-0.3c-0.1-0.1-0.2-0.2-0.3-0.3
		l-0.1,0.3c0,0.1-0.1,0.2-0.2,0.3c-0.1,0.1-0.2,0.1-0.3,0.1H34.3z M37.7,25.6c-0.2,0-0.3,0-0.4,0c-0.1,0-0.2,0.1-0.3,0.1
		c-0.1,0.1-0.2,0.1-0.3,0.2c-0.1,0.1-0.2,0.2-0.3,0.3v2.9c0.2,0.2,0.3,0.3,0.5,0.4s0.4,0.1,0.6,0.1c0.2,0,0.4,0,0.5-0.1
		c0.2-0.1,0.3-0.2,0.4-0.4s0.2-0.4,0.3-0.7c0.1-0.3,0.1-0.6,0.1-1c0-0.4,0-0.7-0.1-0.9s-0.1-0.5-0.2-0.6c-0.1-0.2-0.2-0.3-0.3-0.3
		C38,25.7,37.9,25.6,37.7,25.6z"/>
	<path class="st1" d="M46.3,25.7c-0.1,0.1-0.1,0.1-0.2,0.2s-0.1,0.1-0.2,0.1c-0.1,0-0.2,0-0.3-0.1c-0.1,0-0.2-0.1-0.3-0.1
		c-0.1,0-0.2-0.1-0.4-0.1s-0.3-0.1-0.5-0.1c-0.3,0-0.5,0.1-0.6,0.2c-0.1,0.1-0.2,0.2-0.2,0.4c0,0.1,0,0.2,0.1,0.3s0.2,0.2,0.4,0.2
		c0.2,0.1,0.3,0.1,0.5,0.2c0.2,0.1,0.4,0.1,0.6,0.2c0.2,0.1,0.4,0.2,0.6,0.3c0.2,0.1,0.4,0.2,0.5,0.4s0.3,0.3,0.4,0.5
		c0.1,0.2,0.1,0.4,0.1,0.7c0,0.3-0.1,0.7-0.2,0.9c-0.1,0.3-0.3,0.5-0.6,0.7c-0.2,0.2-0.6,0.4-0.9,0.5c-0.4,0.1-0.8,0.2-1.3,0.2
		c-0.2,0-0.5,0-0.7-0.1c-0.2,0-0.5-0.1-0.7-0.2c-0.2-0.1-0.4-0.2-0.6-0.3c-0.2-0.1-0.3-0.2-0.5-0.3l0.5-0.8c0.1-0.1,0.1-0.2,0.2-0.2
		c0.1-0.1,0.2-0.1,0.3-0.1c0.1,0,0.2,0,0.3,0.1c0.1,0.1,0.2,0.1,0.3,0.2c0.1,0.1,0.2,0.1,0.4,0.2c0.1,0.1,0.3,0.1,0.6,0.1
		c0.2,0,0.3,0,0.4-0.1c0.1,0,0.2-0.1,0.3-0.1c0.1-0.1,0.1-0.1,0.1-0.2c0-0.1,0-0.1,0-0.2c0-0.1,0-0.3-0.1-0.3
		c-0.1-0.1-0.2-0.2-0.4-0.2c-0.2-0.1-0.3-0.1-0.5-0.2s-0.4-0.1-0.6-0.2c-0.2-0.1-0.4-0.2-0.6-0.3s-0.4-0.2-0.5-0.4
		c-0.2-0.2-0.3-0.3-0.4-0.6c-0.1-0.2-0.1-0.5-0.1-0.8c0-0.3,0.1-0.6,0.2-0.8c0.1-0.3,0.3-0.5,0.5-0.7c0.2-0.2,0.5-0.4,0.9-0.5
		c0.3-0.1,0.7-0.2,1.2-0.2c0.2,0,0.5,0,0.7,0.1s0.5,0.1,0.7,0.2c0.2,0.1,0.4,0.2,0.6,0.3c0.2,0.1,0.3,0.2,0.4,0.4L46.3,25.7z"/>
	<path class="st1" d="M52.9,25.8c-0.1,0.1-0.1,0.1-0.2,0.2c-0.1,0-0.1,0.1-0.2,0.1c-0.1,0-0.2,0-0.3-0.1s-0.2-0.1-0.3-0.2
		c-0.1-0.1-0.2-0.1-0.4-0.2c-0.1,0-0.3-0.1-0.5-0.1c-0.3,0-0.5,0-0.7,0.1c-0.2,0.1-0.3,0.2-0.5,0.4c-0.1,0.2-0.2,0.4-0.3,0.6
		c-0.1,0.3-0.1,0.5-0.1,0.9c0,0.7,0.1,1.2,0.4,1.5c0.3,0.4,0.6,0.5,1.1,0.5c0.2,0,0.4,0,0.6-0.1c0.1-0.1,0.3-0.1,0.4-0.2
		c0.1-0.1,0.2-0.1,0.3-0.2c0.1-0.1,0.2-0.1,0.3-0.1c0.2,0,0.3,0.1,0.4,0.2l0.6,0.7c-0.2,0.2-0.4,0.4-0.7,0.6
		c-0.2,0.2-0.5,0.3-0.7,0.4c-0.2,0.1-0.5,0.1-0.7,0.2c-0.2,0-0.5,0.1-0.7,0.1c-0.4,0-0.8-0.1-1.2-0.2c-0.4-0.2-0.7-0.4-1-0.7
		c-0.3-0.3-0.5-0.7-0.7-1.1s-0.3-1-0.3-1.5c0-0.5,0.1-1,0.2-1.4s0.4-0.8,0.7-1.1c0.3-0.3,0.7-0.6,1.1-0.8c0.4-0.2,0.9-0.3,1.5-0.3
		c0.5,0,1,0.1,1.4,0.3c0.4,0.2,0.8,0.4,1.1,0.8L52.9,25.8z"/>
	<path class="st1" d="M54.4,31.1v-6.9h1.2c0.1,0,0.2,0,0.3,0c0.1,0,0.1,0,0.2,0.1c0,0,0.1,0.1,0.1,0.2c0,0.1,0,0.1,0.1,0.2l0.1,0.6
		c0.3-0.4,0.5-0.7,0.9-0.9c0.3-0.2,0.7-0.3,1-0.3c0.3,0,0.6,0.1,0.8,0.2l-0.3,1.5c0,0.1-0.1,0.2-0.1,0.2c-0.1,0-0.1,0.1-0.2,0.1
		c-0.1,0-0.2,0-0.3,0s-0.2,0-0.4,0c-0.5,0-1,0.3-1.3,0.9v4.2H54.4z"/>
	<path class="st1" d="M62.3,22.3c0,0.2,0,0.3-0.1,0.5c-0.1,0.1-0.2,0.3-0.3,0.4c-0.1,0.1-0.3,0.2-0.4,0.3c-0.2,0.1-0.3,0.1-0.5,0.1
		c-0.2,0-0.3,0-0.5-0.1c-0.1-0.1-0.3-0.2-0.4-0.3c-0.1-0.1-0.2-0.2-0.3-0.4c-0.1-0.1-0.1-0.3-0.1-0.5c0-0.2,0-0.3,0.1-0.5
		s0.2-0.3,0.3-0.4c0.1-0.1,0.2-0.2,0.4-0.3s0.3-0.1,0.5-0.1c0.2,0,0.3,0,0.5,0.1c0.2,0.1,0.3,0.1,0.4,0.3c0.1,0.1,0.2,0.2,0.3,0.4
		S62.3,22.1,62.3,22.3z M62.1,24.2v6.9H60v-6.9H62.1z"/>
	<path class="st1" d="M63.8,31.1v-10h2.1v3.8c0.3-0.3,0.6-0.5,0.9-0.6c0.3-0.2,0.7-0.2,1.2-0.2c0.4,0,0.7,0.1,1,0.2
		c0.3,0.2,0.6,0.4,0.8,0.7c0.2,0.3,0.4,0.7,0.5,1.1s0.2,0.9,0.2,1.5c0,0.5-0.1,1-0.2,1.4s-0.3,0.8-0.6,1.1c-0.3,0.3-0.6,0.6-0.9,0.8
		c-0.4,0.2-0.8,0.3-1.2,0.3c-0.2,0-0.4,0-0.6-0.1c-0.2,0-0.3-0.1-0.4-0.2c-0.1-0.1-0.3-0.2-0.4-0.3c-0.1-0.1-0.2-0.2-0.3-0.3
		l-0.1,0.3c0,0.1-0.1,0.2-0.2,0.3c-0.1,0.1-0.2,0.1-0.3,0.1H63.8z M67.2,25.6c-0.2,0-0.3,0-0.4,0c-0.1,0-0.2,0.1-0.3,0.1
		c-0.1,0.1-0.2,0.1-0.3,0.2c-0.1,0.1-0.2,0.2-0.3,0.3v2.9c0.2,0.2,0.3,0.3,0.5,0.4s0.4,0.1,0.6,0.1c0.2,0,0.4,0,0.5-0.1
		c0.2-0.1,0.3-0.2,0.4-0.4c0.1-0.2,0.2-0.4,0.3-0.7c0.1-0.3,0.1-0.6,0.1-1c0-0.4,0-0.7-0.1-0.9s-0.1-0.5-0.2-0.6s-0.2-0.3-0.3-0.3
		C67.5,25.7,67.3,25.6,67.2,25.6z"/>
	<path class="st1" d="M74.5,24.1c0.5,0,0.9,0.1,1.3,0.2s0.7,0.3,1,0.6c0.3,0.3,0.5,0.6,0.6,1s0.2,0.8,0.2,1.3c0,0.2,0,0.3,0,0.4
		c0,0.1,0,0.2-0.1,0.2c0,0.1-0.1,0.1-0.1,0.1c-0.1,0-0.1,0-0.2,0h-4c0.1,0.6,0.2,1,0.5,1.3c0.3,0.3,0.7,0.4,1.1,0.4
		c0.2,0,0.4,0,0.6-0.1c0.2-0.1,0.3-0.1,0.5-0.2s0.3-0.1,0.4-0.2c0.1-0.1,0.2-0.1,0.4-0.1c0.2,0,0.3,0.1,0.4,0.2l0.6,0.7
		c-0.2,0.2-0.4,0.4-0.7,0.6s-0.5,0.3-0.8,0.4s-0.5,0.1-0.8,0.2c-0.3,0-0.5,0.1-0.7,0.1c-0.5,0-0.9-0.1-1.4-0.2
		c-0.4-0.2-0.8-0.4-1.1-0.7c-0.3-0.3-0.6-0.7-0.8-1.2c-0.2-0.5-0.3-1-0.3-1.6c0-0.5,0.1-0.9,0.2-1.3c0.2-0.4,0.4-0.8,0.7-1.1
		c0.3-0.3,0.7-0.6,1.1-0.7S74,24.1,74.5,24.1z M74.5,25.5c-0.4,0-0.7,0.1-0.9,0.3c-0.2,0.2-0.4,0.5-0.4,1h2.6c0-0.2,0-0.3-0.1-0.5
		s-0.1-0.3-0.2-0.4s-0.2-0.2-0.4-0.3C74.9,25.6,74.8,25.5,74.5,25.5z"/>
	<path class="st1" d="M82.8,21.4c0.1,0,0.1,0,0.2,0.1s0.1,0.1,0.2,0.1s0.1,0.1,0.2,0.2l4.6,5.8c0-0.2,0-0.4,0-0.5c0-0.2,0-0.3,0-0.5
		v-5.2h2v9.7h-1.2c-0.2,0-0.3,0-0.4-0.1c-0.1-0.1-0.2-0.2-0.3-0.3L83.3,25c0,0.2,0,0.3,0,0.5s0,0.3,0,0.5v5.2h-2v-9.7h1.2
		C82.7,21.4,82.7,21.4,82.8,21.4z"/>
	<path class="st1" d="M94.6,24.1c0.5,0,1,0.1,1.4,0.2c0.4,0.2,0.8,0.4,1.1,0.7c0.3,0.3,0.5,0.7,0.7,1.1c0.2,0.4,0.3,0.9,0.3,1.5
		c0,0.6-0.1,1-0.3,1.5s-0.4,0.8-0.7,1.1S96.4,30.8,96,31s-0.9,0.3-1.4,0.3c-0.5,0-1-0.1-1.4-0.3c-0.4-0.2-0.8-0.4-1.1-0.7
		c-0.3-0.3-0.6-0.7-0.7-1.1c-0.2-0.4-0.3-0.9-0.3-1.5c0-0.5,0.1-1,0.3-1.5c0.2-0.4,0.4-0.8,0.7-1.1c0.3-0.3,0.7-0.5,1.1-0.7
		C93.5,24.2,94,24.1,94.6,24.1z M94.6,29.7c0.5,0,0.8-0.2,1.1-0.5c0.2-0.3,0.3-0.8,0.3-1.5s-0.1-1.2-0.3-1.5
		c-0.2-0.3-0.6-0.5-1.1-0.5c-0.5,0-0.8,0.2-1.1,0.5c-0.2,0.3-0.3,0.8-0.3,1.5s0.1,1.2,0.3,1.5C93.7,29.5,94.1,29.7,94.6,29.7z"/>
	<path class="st1" d="M98.4,24.2h1.7c0.1,0,0.3,0,0.4,0.1c0.1,0.1,0.2,0.2,0.2,0.3l0.7,3.1c0.1,0.2,0.1,0.5,0.1,0.7
		c0,0.2,0.1,0.4,0.1,0.7c0.1-0.2,0.1-0.4,0.2-0.7c0.1-0.2,0.1-0.5,0.2-0.7l0.9-3.1c0-0.1,0.1-0.2,0.2-0.3c0.1-0.1,0.2-0.1,0.4-0.1
		h0.9c0.1,0,0.3,0,0.4,0.1c0.1,0.1,0.2,0.2,0.2,0.3l0.8,3.1c0.1,0.2,0.1,0.5,0.2,0.7s0.1,0.4,0.2,0.7c0-0.2,0.1-0.4,0.1-0.7
		c0.1-0.2,0.1-0.5,0.2-0.7l0.7-3.1c0-0.1,0.1-0.2,0.2-0.3s0.2-0.1,0.4-0.1h1.6l-2.2,6.9h-1.7c-0.1,0-0.2,0-0.2-0.1
		c-0.1-0.1-0.1-0.1-0.1-0.3l-1-3.5c0-0.2-0.1-0.3-0.1-0.5s-0.1-0.3-0.1-0.5c0,0.2-0.1,0.3-0.1,0.5c0,0.2-0.1,0.3-0.1,0.5l-1,3.4
		c-0.1,0.2-0.2,0.3-0.4,0.3h-1.6L98.4,24.2z"/>
</g>
</svg>
