<?xml version="1.0" encoding="utf-8"?>
<!-- Generator: Adobe Illustrator 21.0.0, SVG Export Plug-In . SVG Version: 6.00 Build 0)  -->
<svg version="1.1" id="Layer_1" xmlns="http://www.w3.org/2000/svg" xmlns:xlink="http://www.w3.org/1999/xlink" x="0px" y="0px"
	 viewBox="0 0 270.5 80.5" style="enable-background:new 0 0 270.5 80.5;" xml:space="preserve">
<style type="text/css">
	.st0{fill:#818797;}
</style>
<g id="Layer_1_2_">
	<g>
		<path class="st0" d="M18.1,3.5c-2.4,0-5.6,2.6-7.4,4.3C6.6,11.3,2.9,18,2.9,23.3c0,7.6,6.5,10.5,8.1,10.5c0.5,0,1-0.3,1-1
			c0-0.6-0.4-1-0.7-1.5c-1.5-2.3-2-4.5-2-7.4c0-6.1,2.8-11.8,5.2-14.3c0.4-0.5,1.4-1.5,1.7-1.5c0.3,0,0.4,0.2,0.4,1l-0.3,40.1
			c0,6.3-1.8,8.8-1.8,10.2c0,0.6,0.3,0.8,0.8,0.8c2.5,0,5.1-3.1,5.8-4.2c2.2-3.8,2.8-6.8,2.8-15.5V6.8c0-0.9-0.3-1.3-1.1-1.9
			C21.4,4,19.9,3.5,18.1,3.5z M90.7,3.5c-1.2,0-1.7,0.6-1.8,2.6l-0.3,8l-7-0.2c-0.4,0-0.6,0.1-0.8,0.5c-0.6,1.1-0.9,2-0.9,3.4
			c0,1.2,0.5,1.3,1,1.3l7.3,0.2v15.3c0,3.2-2,7.4-5.7,10.9c0,0,0.3-1.1,0.3-2.2c0-3.1-2-6-4.7-8l-6.6-4.9c1.4-1.6,3.7-4.8,3.7-7.4
			c0-2.1-1.3-2.9-3.7-2.9c-3.4,0-7.4,3.1-7.4,7.8c0,1.7,0.8,3.2,1.9,4.4c-1.6,3-3.8,7-5.5,9.8c-1.3,2.2-3.4,5.5-4.6,5.5
			c-0.9,0-1.4-1.5-1.4-7.1c0-4.7,0.3-9.7,0.5-14.6c0-1.1-0.2-2.1-1.6-3.1c-1.3-0.9-3-2-4.7-2c-3.8,0-6.3,3.5-8.1,6.8
			c-1.8,3.5-2.8,6.5-4.2,10.7l0.2-14.8c0-1.1-0.2-1.5-1.1-1.8c-1.1-0.5-2.7-1-4.1-1c-1.2,0-1.3,0.5-1.3,1.8L30,40.2V47
			c0,6.2,0.8,7.2,4.4,7.2c2,0,2.7-0.2,2.7-1.9c0.1-1.1,0.6-3.8,1.3-6.5c2.1-8,4.6-14.3,8.9-19.1c0.4-0.5,0.8-0.3,0.7,0.4
			c0,0-0.7,10.8-0.7,15.2c0,7.8,1.2,11.9,5.1,11.9c3.8,0,7.6-4.9,9.7-8.2l6.6-11c4.3,3.6,7.3,6.5,7.3,9.9c0,2.1-1.3,4.2-3.4,4.2
			c-2.6,0-4.2-2.7-5.9-2.7c-1.4,0-3.3,2.8-3.3,4.3s3.2,3.6,9.1,3.6c8.6,0,13.2-5.9,16-12.4c0.5,7.8,3.6,12.3,8.4,12.3
			c3.2,0,6.8-4,8.5-8.9c0,0,0.2,1.3,1.4,3.9c1.7,3.4,4.4,4.9,7.7,4.9c4.1,0,7.6-2.5,9.7-6.6c0.3,3.1,3,6.6,7.2,6.6
			c2.7,0,5.1-2,6.7-5.4c0,0,2.1,5.6,8,5.6c3.4,0,7.3-3.1,8.3-5.4l0.1,3.3l-8.9,8.2c-2.6,2.5-5.3,6.1-5.3,10.1c0,5.1,4.8,8,9,8
			c4.4,0,7.3-2.8,8.8-5.1c2-3,2.8-8.7,2.8-14.2l-0.2-8.3c6-6.6,10.7-15.6,12.7-22.1l4.5-0.1c0.9-0.1,0.8,0.3,0.7,0.8
			c-0.8,3.4-1.5,7.2-1.5,11c0,6.3,1.4,9,3.5,11.2c1.8,1.9,3.6,2.5,5.5,2.5c3.7,0,6-3.1,6.8-5c1.7,3.4,4.3,5,7.6,5
			c4.1,0,7.6-2.5,9.7-6.6c0.3,3.1,3,6.6,7.2,6.6c3.2,0,5-1.8,6.5-5.3c0,1.1,0.1,2.3,0.1,3.4c0,0.6,0.5,0.9,0.9,1.1
			c1.3,0.5,2.5,0.8,3.6,0.8c2.8,0,3.4-0.6,3.4-2.4c0-3,0.1-7.7,0.9-11.5c0.9-3.8,2.3-8,4.1-11c0.2-0.3,0.6-0.2,0.6,0.1
			c0.3,6.4,0.7,17.1,2.4,19.9c0.8,1.3,2.1,2.3,4,2.3c0.9,0,2-0.4,2.3-0.6s0.4-0.5,0.4-0.9c0-8.1,2.5-16,5.1-21.3
			c0.1-0.2,0.3-0.2,0.3,0l-0.1,5.9c0,9.6,0.7,15.7,5.5,18.6c0.9,0.5,2,0.8,3.1,0.8c2.5,0,4.7-1.4,5.8-3.6c0.9-1.7,1.7-5,1.7-6.9
			c0-0.7,0-1.9-1.2-1.9c-0.7,0-1,0.5-1.2,1.2c-0.4,1.6-0.7,2.9-1.3,4.5c-0.6,1.5-1.4,2.3-2.4,2.3c-1.2,0-1.8-0.9-2.1-1.5
			c-1.5-2.3-1.6-7.5-1.6-11.8l0.4-11.2c0-0.9-0.4-2-1.8-2.9c-1-0.6-3.4-1.6-4.9-1.6c-1.4,0-2,0.8-2.5,1.9
			c-0.9,2.1-4.1,10.1-4.9,16.7c0,0.2-0.2,0.2-0.3,0c-0.4-4.6-0.7-10.2-0.7-14c0-1.1-0.3-2.8-2.7-3.8c-1.2-0.5-2.2-0.8-3.3-0.8
			c-1.5,0-1.8,0.7-2.3,1.7c-1.7,3.1-2.8,7.1-4.6,12.2V23c0-0.5-0.3-1.3-1.3-1.4c-2.4-0.5-3.5-0.8-4.4-0.8c-0.7,0-1.1,0.5-1.1,1.1
			l-0.1,19.8c-0.5,2.4-2.3,8.2-4.9,8.2c-2.2,0-3.2-2.2-3.2-11.3l0.4-14.9c0-0.9-0.6-1.3-1.5-1.7c-1.3-0.5-2.3-0.7-3.6-0.7
			c-1.6,0-2.2,0.8-1.9,2.7c-1.8-2.4-3.6-3.8-6.8-3.8c-6.4,0-11.2,7.7-11.2,18.9c-0.1,3.1,0.7,6.2,0.7,6.2c-0.6,2.6-1.9,4.7-3.8,4.7
			c-2.4,0-3.9-3.3-3.9-9.2c0-5.8,2.2-12.4,2.2-14.2c0-2.1-1.4-3.4-3.8-3.4c-1.2,0-5.7,1-7.9,1.3c0,0,0.3-1.1,0.2-1.9
			c0-2-1-3.3-3.3-3.3c-2.9,0-5,2.1-5,5.6c0,1.6,0.9,3.1,2.1,3.8c-1.6,6.6-4.1,11.4-7.9,16.9l0.3-22c0-0.7-0.2-1.2-1.6-1.7
			c-0.7-0.3-2-0.7-3.5-0.7c-2.2,0-2.1,1.6-1.9,2.8c-1-1.8-3.2-3.9-6.6-3.9c-9.3,0-12.2,14.2-10.8,24.3c0,1.2-1.2,5.6-3.9,5.6
			c-2.2,0-3.2-2.2-3.2-11.3l0.4-14.9c0-0.9-0.6-1.3-1.5-1.7c-1.3-0.5-2.3-0.7-3.6-0.7c-1.6,0-2.2,0.8-1.9,2.7
			c-1.8-2.4-3.6-3.8-6.8-3.8c-6.4,0-11.3,7-11.3,18.2c0,4.3-3.7,10.8-6.2,10.8c-1.4,0-3-2.6-3-9.3c0-4.6,0.6-20.1,0.6-20.1l9-0.1
			c0.4,0,0.7-0.5,0.8-0.8c0.4-0.8,0.6-1.4,0.6-2.4c0-0.9-0.2-1.2-1.3-1.3l-9-0.5l0.4-8.3c0-0.5-0.3-0.9-0.9-1.1
			C94.2,4.1,92,3.5,90.7,3.5z M117.9,25.3c2.4,0,4.8,2.2,4.8,9.9c0,9.8-3.6,14.3-6.3,14.3c-2.6,0-4.5-3.6-4.5-10.7
			S113.8,25.3,117.9,25.3L117.9,25.3z M204.1,25.3c2.4,0,4.8,2.2,4.8,9.9c0,9.8-3.6,14.3-6.3,14.3c-2.6,0-4.5-3.6-4.5-10.7
			C198.2,31.8,200.1,25.3,204.1,25.3L204.1,25.3z M149.4,25.5c3.1,0,4.5,3.2,4.5,9.5c0,9.4-2.8,14.8-6.2,14.8
			c-2.2,0-4.7-3.6-4.5-10.6C143.2,34.7,144.7,25.5,149.4,25.5L149.4,25.5z M154.7,56.9v3.7c0,12.3-3.3,14.4-5.9,14.4
			c-1,0-3.4-0.8-3.4-3.8c0-4.3,4.5-9.1,5.8-10.6L154.7,56.9L154.7,56.9z"/>
	</g>
</g>
</svg>
