<?xml version="1.0" encoding="utf-8"?>
<!-- Generator: Adobe Illustrator 21.0.0, SVG Export Plug-In . SVG Version: 6.00 Build 0)  -->
<svg version="1.1" id="Layer_1" xmlns="http://www.w3.org/2000/svg" xmlns:xlink="http://www.w3.org/1999/xlink" x="0px" y="0px"
	 viewBox="0 0 292 79" style="enable-background:new 0 0 292 79;" xml:space="preserve">
<style type="text/css">
	.st0{fill:#818797;}
</style>
<g id="Layer_1_2_">
	<g>
		<path class="st0" d="M8.9,36L51.6,7.7c1.9-1.1,4.1-1.1,6,0L100.4,36c1.7,0.8,2.4,2.8,1.6,4.6c-0.3,0.7-0.9,1.3-1.6,1.6L94.7,46
			c-14-22.1-43.2-28.7-65.3-14.7c-6,3.7-11,8.7-14.8,14.6l-5.8-3.8c-1.7-0.9-2.3-2.9-1.5-4.6C7.7,36.9,8.3,36.4,8.9,36z"/>
		<path class="st0" d="M54.6,35.7C42.4,35.7,31,42,24.4,52.4l9.8,6.5c6.7-11.2,21.3-14.8,32.5-8c3.3,2,6,4.7,8,8l9.8-6.5
			C78.2,42,66.8,35.7,54.6,35.7z"/>
		<path class="st0" d="M54.6,59.3c-4.3,0-8.3,2.4-10.4,6.1l6.6,4.3c1.1,0.9,2.4,1.4,3.8,1.4c1.4,0,2.8-0.5,3.8-1.4l6.6-4.3
			C62.9,61.7,58.9,59.3,54.6,59.3z"/>
		<path class="st0" d="M128.8,38.9l10.7,15.4H132l-8.1-11.9v11.9h-6.1V23.8h6.1V36l7.7-12.1h7.1L128.8,38.9z M150,23.9h-6.1v30.4
			h15.7v-6.1h-9.7L150,23.9L150,23.9z M177.7,22.8l12.8,31.5h-6.9l-1.2-3.3h-10.1l-1.2,3.3h-6.9L177,22.8H177.7z M180.2,45.3
			l-2.7-7.9l-2.8,7.9H180.2z M199.1,40.8l-6.3-16.9h-6.9l12.8,31.5h0.6l12.8-31.5h-6.9L199.1,40.8z M216.8,54.4h6.1V23.9h-6.1V54.4z
			 M247.3,23.9l-6.2,10.5l-6.2-10.5h-7.4l10.6,16.7v13.7h6V40.6l10.7-16.7L247.3,23.9z M286.2,38.6c0,8.7-7.1,15.8-15.8,15.8
			c-8.7,0-15.8-7.1-15.8-15.8s7.1-15.8,15.8-15.8l0,0C279.1,22.9,286.2,29.9,286.2,38.6z M280.3,38.6c0-5.4-4.4-9.8-9.8-9.8
			s-9.8,4.4-9.8,9.8s4.4,9.8,9.8,9.8l0,0C275.8,48.4,280.3,44,280.3,38.6L280.3,38.6L280.3,38.6z"/>
	</g>
</g>
</svg>
