<?xml version="1.0" encoding="utf-8"?>
<!-- Generator: Adobe Illustrator 21.0.0, SVG Export Plug-In . SVG Version: 6.00 Build 0)  -->
<svg version="1.1" id="Layer_1" xmlns="http://www.w3.org/2000/svg" xmlns:xlink="http://www.w3.org/1999/xlink" x="0px" y="0px"
	 viewBox="0 0 142.2 53.3" style="enable-background:new 0 0 142.2 53.3;" xml:space="preserve">
<style type="text/css">
	.st0{fill:#82889A;}
</style>
<g>
	<g>
		<path class="st0" d="M87.7,16.8c-0.2-5.3,4-10,9.3-10.2c5.7-0.3,10.3,3.9,10.5,9.6c0.2,5.3-4.1,10-9.6,10.2
			C92.4,26.6,87.9,22.3,87.7,16.8z M97.6,10.3c-3.4,0-6.2,2.7-6.3,6.2c0,3.4,2.8,6.3,6.3,6.3c3.4,0,6.2-2.8,6.2-6.3
			S101,10.3,97.6,10.3z"/>
		<path class="st0" d="M14.9,26.3c-1.6,0-3.1,0-4.5,0c-0.2,0-0.4-0.2-0.5-0.4c-1.5-2.1-3-4.4-4.4-6.5c-0.1-0.2-0.2-0.2-0.4-0.5
			c0,2.6,0,5,0,7.4c-1.3,0-2.5,0-3.8,0c0-6.3,0-12.8,0-19.2c1.2,0,2.4,0,3.8,0c0,2.4,0,5,0,7.4c0.1,0,0.1,0,0.2,0
			c0.1-0.1,0.2-0.2,0.2-0.3C6.9,12,8.3,9.7,9.7,7.5c0.2-0.3,0.4-0.5,0.8-0.5c1.3,0,2.5,0,4,0c-0.7,1-1.3,1.9-1.8,2.8
			c-1.4,2.1-2.7,4.2-4,6.3c-0.2,0.3-0.2,0.5,0,0.9c2,2.8,4,5.7,6,8.6C14.6,25.9,14.6,26.1,14.9,26.3z"/>
		<path class="st0" d="M30.5,26.3c0.7-1.6,1.3-3.1,1.9-4.7c2-5,4-9.8,6-14.7c0.1-0.2,0.2-0.3,0.4-0.5c0.2,0.2,0.4,0.3,0.5,0.5
			c2.5,6.2,5,12.4,7.6,18.6c0.1,0.2,0.2,0.5,0.3,0.8c-1.5,0-2.7,0-4,0c-0.1,0-0.3-0.2-0.3-0.3c-0.2-0.5-0.4-0.9-0.5-1.4
			c-0.1-0.3-0.2-0.4-0.6-0.4c-1.8,0-3.7,0-5.5,0c-0.3,0-0.5,0.2-0.6,0.5c-0.2,0.5-0.3,0.9-0.5,1.3c-0.1,0.2-0.3,0.3-0.4,0.3
			C33.2,26.3,32,26.3,30.5,26.3z M38.9,15.8c-0.1,0-0.1,0-0.2,0c-0.5,1.6-1.1,3.1-1.7,4.7c1.2,0,2.3,0,3.5,0
			C40.1,19,39.4,17.4,38.9,15.8z"/>
		<path class="st0" d="M30.1,52c0.7-1.6,1.3-3.1,1.9-4.7c2-5,4-9.8,6-14.7c0.1-0.2,0.2-0.3,0.4-0.5c0.2,0.2,0.4,0.3,0.5,0.5
			c2.5,6.2,5,12.4,7.6,18.6c0.1,0.2,0.2,0.5,0.3,0.8c-1.5,0-2.7,0-4,0c-0.1,0-0.3-0.2-0.3-0.3c-0.2-0.5-0.4-0.9-0.5-1.4
			c-0.1-0.3-0.2-0.4-0.6-0.4c-1.8,0-3.7,0-5.5,0c-0.3,0-0.5,0.2-0.6,0.5c-0.2,0.5-0.3,0.9-0.5,1.3c-0.1,0.2-0.3,0.3-0.4,0.3
			C33,52.1,31.6,52,30.1,52z M38.5,41.6c-0.1,0-0.1,0-0.2,0c-0.5,1.6-1.1,3.1-1.7,4.7c1.2,0,2.3,0,3.5,0
			C39.7,44.6,39.1,43.1,38.5,41.6z"/>
		<path class="st0" d="M44.3,7.2c1.4,0,2.7,0,4,0c0.2,0,0.4,0.2,0.5,0.4c1.1,2.9,2.1,5.8,3.2,8.7c0.2,0.5,0.4,1,0.6,1.6
			c0.5-1.2,0.8-2.2,1.2-3.3c0.8-2.3,1.7-4.6,2.5-6.9c0.1-0.2,0.2-0.5,0.4-0.5c1.4,0,2.7,0,4.1,0c-0.5,1.1-0.9,2.2-1.3,3.3
			c-2.1,5.3-4.3,10.5-6.4,15.8c-0.2,0.3-0.4,0.5-0.5,0.8c-0.2-0.2-0.4-0.5-0.5-0.8c-2.5-6.2-5-12.4-7.6-18.6
			C44.4,7.4,44.4,7.4,44.3,7.2z"/>
		<path class="st0" d="M77.1,26.3c0-0.2,0-0.5,0-0.6c0-2.5,0-5,0-7.5c0-0.4-0.2-0.8-0.3-1.1c-2-3.1-3.9-6.3-5.9-9.3
			c-0.2-0.2-0.2-0.4-0.4-0.7c1.5,0,3,0,4.4,0c0.2,0,0.4,0.2,0.5,0.5c1.1,1.9,2.3,3.8,3.4,5.8c0.1,0.1,0.2,0.2,0.2,0.4
			c0.8-1.2,1.5-2.4,2.1-3.6c0.5-0.9,1.1-1.8,1.6-2.7c0.1-0.2,0.3-0.3,0.5-0.3c1.5,0,2.8,0,4.4,0c-0.5,0.7-0.8,1.3-1.2,1.9
			c-1.8,2.7-3.4,5.4-5.2,8.2C81.1,17.6,81,18,81,18.4c0,2.4,0,5,0,7.4c0,0.2,0,0.4,0,0.6C79.7,26.3,78.5,26.3,77.1,26.3z"/>
		<path class="st0" d="M17.7,7.2c1.3,0,2.5,0,3.7,0c0,5.1,0,10.2,0,15.3c2,0,4,0,6,0c0,1.3,0,2.5,0,3.8c-3.3,0-6.5,0-9.8,0
			C17.7,20,17.7,13.5,17.7,7.2z"/>
		<path class="st0" d="M67.5,26.3c-1.3,0-2.5,0-3.7,0c0-6.4,0-12.8,0-19.2c1.2,0,2.5,0,3.7,0C67.5,13.5,67.5,20,67.5,26.3z"/>
		<path class="st0" d="M49.1,42.3c0-3,0-9,0-9v-0.8c0,0,5.9-0.1,8.5,0.2c2.9,0.2,5,2.6,5.1,5.5c0,1.8-0.4,3.4-1.8,4.7
			c-0.4,0.4-0.8,0.7-1.4,0.9c-0.2,0.1-0.8,0.2-0.8,0.2s0.3,0.5,0.5,0.8c1.3,2.2,4.2,7.3,4.2,7.3s-0.1,0-0.8,0c-1.1,0-3.1,0-3.1,0
			h-0.5l-4-7.5h-1.8c0,0,0,0.6,0,0.8c0,1.9,0,6.7,0,6.7h-1h-2.4h-0.6C49.1,52,49.1,45.3,49.1,42.3z M55.2,40.8l1.5-0.1
			c0.7,0,1.2-0.4,1.5-1c0.6-1.1,0.2-3.3-1.8-3.4c-0.3,0-0.5,0-0.8,0c-0.8,0-2.3,0-2.3,0v4.4H55.2z"/>
		<path class="st0" d="M112.8,42.3c0-3,0-9,0-9v-0.8c0,0,5.9-0.1,8.5,0.2c2.9,0.2,5,2.6,5.1,5.5c0,1.8-0.4,3.4-1.8,4.7
			c-0.4,0.4-0.8,0.7-1.4,0.9c-0.2,0.1-0.8,0.2-0.8,0.2s0.3,0.5,0.5,0.8c1.3,2.2,4.2,7.3,4.2,7.3s-0.1,0-0.8,0c-1.1,0-3.1,0-3.1,0
			h-0.5l-4-7.5H117c0,0,0,0.6,0,0.8c0,1.9,0,6.7,0,6.7h-1h-2.4H113C112.8,52,112.8,45.3,112.8,42.3z M118.9,40.8l1.5-0.1
			c0.7,0,1.2-0.4,1.5-1c0.6-1.1,0.2-3.3-1.8-3.4c-0.3,0-0.5,0-0.8,0c-0.8,0-2.3,0-2.3,0v4.4H118.9z"/>
		<path class="st0" d="M18.1,42.3c0-3,0-9,0-9v-0.8c0,0,5.9-0.1,8.5,0.2c2.9,0.2,5,2.6,5.1,5.5c0,1.8-0.4,3.4-1.8,4.7
			c-2.1,1.7-4,1.5-5.2,1.7c-0.4,0.1-0.8,0.1-1.2,0.1h-1.2c0,0,0,0.6,0,0.8c0,1.9,0,6.7,0,6.7h-1h-2.4h-0.6
			C18.1,52,18.1,45.3,18.1,42.3z M24.2,40.8l1.5-0.1c0.7,0,1.2-0.4,1.5-1c0.6-1.1,0.2-3.3-1.8-3.4c-0.3,0-0.5,0-0.8,0
			c-0.8,0-2.3,0-2.3,0v4.4H24.2z"/>
		<path class="st0" d="M129.2,46.7c1.7,1.1,3.4,1.6,5.4,1.5c1.4-0.1,2.3-1,2.1-2.1c-0.2-0.8-0.8-1.2-1.5-1.5
			c-1.1-0.5-2.4-0.9-3.4-1.5c-2.4-1.5-3.3-3.5-2.6-6.4c0.5-2.3,2.7-4,5.3-4.2c1.5-0.1,3,0.2,4.4,0.6c0.2,0.1,0.5,0.2,0.5,0.2
			s0,0.2-0.1,0.5c-0.2,0.9-0.4,2.8-0.4,2.8l-0.1,0.6c0,0-0.4-0.2-0.6-0.2c-0.8-0.4-1.7-0.5-2.5-0.6c-1.2-0.2-2.2,0.2-2.6,1.1
			c-0.5,1.1-0.1,2.1,1.1,2.7c1.1,0.5,2.4,0.9,3.5,1.6c1.2,0.8,2.3,1.7,2.7,3.1c0.9,2.9-0.6,6-3.4,7c-2.8,1-5.4,0.4-8-0.8
			c-0.2-0.1-0.5-0.2-0.5-0.2S129.1,48,129.2,46.7z"/>
		<polygon class="st0" points="103.4,48.1 103.4,44.2 108.4,44.2 108.4,40.3 103.4,40.3 103.4,36.4 109.2,36.4 109.2,32.4 
			103.4,32.4 101.5,32.4 99.3,32.4 99.3,52 101.5,52 103.4,52 109.4,52 109.4,48.1 		"/>
		<polygon class="st0" points="78.2,32.6 64.4,32.6 64.4,36.5 69.3,36.5 69.3,52 73.2,52 73.2,36.5 78.2,36.5 		"/>
		<polygon class="st0" points="125.8,6.5 121.2,5.3 115.7,26.3 120.7,26.3 		"/>
		<polygon class="st0" points="134,3 129.5,1.6 123,26.3 127.9,26.3 		"/>
		<polygon class="st0" points="95.6,52.3 95.6,52 95.6,32.9 91.7,32.9 91.7,43.6 81.7,31.9 81.2,31.9 81.2,32.6 81.2,51.7 
			85.1,51.7 85.1,41.5 91.7,48.8 91.7,48.8 91.8,49 95,52.3 		"/>
	</g>
</g>
</svg>
