<?xml version="1.0" encoding="utf-8"?>
<!-- Generator: Adobe Illustrator 22.0.0, SVG Export Plug-In . SVG Version: 6.00 Build 0)  -->
<svg version="1.1" id="Layer_1" xmlns="http://www.w3.org/2000/svg" xmlns:xlink="http://www.w3.org/1999/xlink" x="0px" y="0px"
	 viewBox="0 0 99.7 110" style="enable-background:new 0 0 99.7 110;" xml:space="preserve">
<style type="text/css">
	.st0{fill:#393D49;}
</style>
<g>
	<path class="st0" d="M67.6,109.8H32.2c-17.7,0-32.1-14.4-32.1-32.1V32.2c0-17.7,14.4-32.1,32.1-32.1h35.5
		c17.7,0,32.1,14.4,32.1,32.1v45.6C99.7,95.4,85.3,109.8,67.6,109.8z M32.2,10.1C20,10.1,10.1,20,10.1,32.2v45.6
		c0,12.2,9.9,22.1,22.1,22.1h35.5c12.2,0,22.1-9.9,22.1-22.1V32.2c0-12.2-9.9-22.1-22.1-22.1H32.2z"/>
</g>
<path class="st0" d="M49.7,39.4H29.2c-2.7,0-4.8-2.1-4.8-4.8v0c0-2.7,2.1-4.8,4.8-4.8h20.5c2.7,0,4.8,2.1,4.8,4.8v0
	C54.5,37.2,52.3,39.4,49.7,39.4z"/>
<path class="st0" d="M64.2,59.7h-35c-2.7,0-4.8-2.1-4.8-4.8v0c0-2.7,2.1-4.8,4.8-4.8h35c2.7,0,4.8,2.1,4.8,4.8v0
	C69,57.6,66.9,59.7,64.2,59.7z"/>
<path class="st0" d="M64.2,79.4h-35c-2.7,0-4.8-2.1-4.8-4.8v0c0-2.7,2.1-4.8,4.8-4.8h35c2.7,0,4.8,2.1,4.8,4.8v0
	C69,77.3,66.9,79.4,64.2,79.4z"/>
</svg>
