<?xml version="1.0" encoding="utf-8"?>
<!-- Generator: Adobe Illustrator 22.0.0, SVG Export Plug-In . SVG Version: 6.00 Build 0)  -->
<svg version="1.1" xmlns="http://www.w3.org/2000/svg" xmlns:xlink="http://www.w3.org/1999/xlink" x="0px" y="0px"
	 viewBox="0 0 204.3 77.3" style="enable-background:new 0 0 204.3 77.3;" xml:space="preserve">
<style type="text/css">
	.st0{fill:#818897;}
	.st1{opacity:0.6;fill:#818897;enable-background:new    ;}
	.st2{fill:#4C525F;}
	.st3{display:none;}
	.st4{display:inline;}
	.st5{display:inline;fill:#818897;}
</style>
<g id="Layer_1">
	<g>
		<g>
			<path id="XMLID_112_" class="st0" d="M42.1,41.7l-0.6,0.9c0,0-1.9,1.5-2,2.5c0.1,0.5,0.8,1.8,0.8,1.8s-3.3-3.7-3.7-3.4
				c-0.4-0.8-2.4,2.7-2.4,2.7s1.5,1.4,2.1,1.5c0.6,0.1,2.2-0.4,2.4-0.1c0.2,0.3,0.2,1.9-4.5,0.1c-0.3-0.1-1.3,0.4-1.7,0.9
				c-0.8-0.1-4.1-0.4-3.3-0.9c0,0,3.2,0.6,3.7-1.3c-0.1-0.9-1.1-3.9-3.2-2.7c-0.8,0-4.4,8.5-2.3,1.6c-0.3-0.6-0.8,0.1-3.1-3.3
				c-0.1-0.2-0.7,1.6-1.4,4.1c0.5,1.6,1,6.2,1,8.1c0,2.6,0.8,7.9,0.8,7.8c0,0.1,0.9-5.5,0.9-5.5s0.2,8.4,0.3,9
				c0.1,0.6,1.7,2.9,1.8,3.6c0.4,0.8,2.2,3.3,1.4-1.5c0.1-1.5,1.1-4.2,1.4,1.1c0.2,1.2,1.5,3.1,1.9,3.4c0.5,0.2,0.8,1.9,0.7-13.2
				c0.2,1.3,2.1,18.4,2.1,18.4l2.6-11.7c0,0,0.8,4,2.1,5.8c0.2-0.4,1.6-2.3,1.8-6.3c0.6-0.8,1.6-1.4,1.8-1.5
				c0.2-0.1,0.2-2.8-0.5-6.2c0.4-0.3,0.8,1.2,0.8,1.2s0.6-3.4-0.5-6c-0.3-2.5,0.8-7.8,0.8-8.4C44.1,43.5,42.8,41.4,42.1,41.7z"/>
			<path id="XMLID_111_" class="st1" d="M31.5,32.7c0,0-2.7-6,1.2,0.2c0.4-0.2,3.8-1.9,4.9-1c0.5,0.5,2.3,2.5,2.3,2.7
				c0,0.2,0.2,0.5-4.6,1.8c-0.1,0-1.6,1.5,0.8,2.8c0.6,0.4,3.2,2.1,4.7,0.3c0.2,0.3,2.3,1.8-1.4,4c-0.4,0-1,0.3-3.6-2.3
				c-0.1,0.2,1,3.7-2.2,3.2c-0.5-0.1-1.3-0.1-1.9-1.7c0-0.3,0-1.2,0.2-1.5c0.2-0.3-2.3,2.3-3.7,2.5c-1,0-3.3-0.7-3.4-3.3
				c0.1-1.1,0.7-1.4,0.7-1.4s3.5,3.1,7-0.7c0.2-0.3,1.2-1.5-0.5-2.4c-0.3-0.1-4.1-0.8-4.4-1.6C27.8,33.8,27.5,33.9,31.5,32.7z"/>
			<path id="XMLID_110_" class="st0" d="M58.7,44.9c0,0-0.6,1.4,0,2.8c0.6,1,0.4,1,0.7,1.6c0.7,0.1,1,0.7,1.3-1.2
				C60.6,46.3,60.6,44.6,58.7,44.9z"/>
			<path id="XMLID_109_" class="st0" d="M9.9,15.9c0,0,1.2,0-2-3.5c-0.3,0-1-0.6-0.2,1.5C8.3,14.7,8.9,15.8,9.9,15.9z"/>
			<path id="XMLID_108_" class="st0" d="M3.9,14.8c0,0,1.3-0.7-2.1-3.2C1.6,11.5,0.3,11.4,3.9,14.8z"/>
			<path id="XMLID_107_" class="st0" d="M0.2,3.6c0,0,0.4-0.8,1.2,0.4C2,4.9,3.9,7.3,3.9,7.4C3.8,7.6,3.8,8.1,3.6,8.4
				C3.1,8.4,3,8.7,1.8,6.8C1.2,6-0.6,4.3,0.2,3.6z"/>
			<path id="XMLID_106_" class="st0" d="M7.3,6.2c0,0,1.4,0.1,2.1,2.4C9.6,8.8,9.2,8.9,9,8.7C8.8,8.5,7.4,7.1,7.3,6.9
				C7.3,6.6,7,6.3,7.3,6.2z"/>
			<path id="XMLID_105_" class="st0" d="M9.3,0.2c0,0-0.8,1.2-0.2,2C9.6,2.9,11,4,11.7,4.3c0.6-0.6,0.3-1.8,0.2-2.2
				C11.2,1.6,9.6-0.4,9.3,0.2z"/>
			<path id="XMLID_104_" class="st0" d="M13.8,7.3c0,0-0.3,0.1,0.4,0.7c0.5,0.8,0.9,1.2,1.1,1.1c0.1-0.2,0-0.6,0-0.6
				S14.3,6.3,13.8,7.3z"/>
			<path id="XMLID_103_" class="st0" d="M17.2,3.5c0,0-0.4-0.1,0.4,0.8c0.4,0.8,0.8,1.4,1.2,1.4c0.2-0.1,0.2-0.4,0.2-0.4
				S18.1,3,17.2,3.5z"/>
			<path id="XMLID_100_" class="st0" d="M60.4,25.6C57.7,15.3,49,9.6,48.7,9.4c-12.8-8.9-24.6-3-24.6-3s1,0.4,0.9,1.1
				c-0.1,0.7-1,0.4-1,0.4l-1-1.2l-1.4,0.5c0,0,0.1,0.3-0.2,0.7C19.6,7.5,18,9,18,9l-0.4,1.1c0,0-1.5,1.4-0.3,1.4
				c1.2-0.1,1.9,2.9,2.1,3.7c6.9,8.7-1.4-0.3-2.1-1.1c-2.8,0.1-3-1.8-3-1.8s-1.5,1.7-1.8,2.5c2.3,0.6,0.3,4.1-0.1,3.4
				c-0.4-0.6-1.3-1.9-1.7-1.9c0.3,6.4-2.6,3.2-2.6,3.2s0,0-0.4,0.8c3.4,4.5-0.4,1.2-0.4,1.3C0.3,39,10.8,49.9,10.8,49.9
				c0-0.7,1.4-3,1.7-3.6c0.4-0.7,0.8-1.3,1.5-4.1c0.6-2.8,2-2.5,2.2-6.1c0.2-3.7,4.1-12.2,4.1-12.2l0.3-1.4c0,0,8.6-7.3,9.2-8
				c4-3.5,7.2-1.7,8.2-1.1c1.6,1.8,9.3,10.5,9.8,11.2c0.8,2.1,2.5,9.6,2.8,11.5c0.3,1.8,5.2,9,5.5,9.7c0.1-0.6,0.8-1.9,0.8-1.9
				c1.9-3.7,0.5-3.1,0.1-3.5c-0.8-1.5-0.4-2.8,0-2.7c4.8,4,1.9-2.3,1.9-2.3s1.2,1.8,2,2.8C62.3,32.4,60.5,26.3,60.4,25.6z
				 M22.9,14.1c-0.8,0.7-1.6-1.5-2.5-2.8c-1.1-1.4-0.4-1.6-0.4-1.6c0.5-0.9,2.2,2.2,2.9,3C23.6,13.6,23.2,13.7,22.9,14.1z"/>
			<g id="Layer_4_8_">
				<path id="XMLID_99_" class="st0" d="M29.5,28.8c0,0-5.1-11.6,1.9,0.3c0.6-0.3,3.5-2.8,6.2,0c0.3-0.3,1.9-3.1,0.7,0.4
					c0.5,0.3,1.5,0.5,3.6,6.7c0.7,1.6,10,22.9,10,22.9s0.8,3.9-1.4,2.4c-0.4-0.8-0.4-1.5-0.1-2.8c-0.3-0.9-2.7-4.3-3.6-7.3
					c0,0.3-0.7-1.5-0.4,8c0.2,0.3,2.4,8,6,5.3c0.1,0.4,1.1,4.3,4.1-2.7c0.4-0.4,2.1-1.8,2.9-3.4c0.3-0.8,0.8-1.1-0.8-2
					c0.3-0.4,1.4-0.3-0.3-2.3c-0.9-1.8-8.1-15-8.1-15.2c-0.3-0.8-2.6-4.1-8.6-12.8c0.8,1.1,7.2,9.3,7.5,9.5
					c-0.1-1.3,0.9-1.3-2.6-7.6c-0.4-1.8,0-2.7-2-4.4c0.4-0.1,0.1-0.7,0.1-0.7s-2.5-4-8.8-8.5c-0.9-0.4-3.3-1-6.5,2
					c-1.5,1.2-5.9,4.7-6,6.4c-0.4,0-1.1,0.6-2.8,5.4c-0.2,0.5-2.1,4.8-2.1,5.1c-0.1,0.6-0.1,2.6-0.1,2.6L25.4,25
					c0,0-8.7,15.6-9.4,17.4c-0.6,1.8-3.5,8.7-4.3,9.9c-0.8,1.2-2.8,4.9-2.8,5.4c0,0.5-1.4,0.1,2.1,4.2c0.5,1,1.4,2.6,1.6,4.3
					c1.1,0.1,2.6,1.9,9.9-5.3c0-0.9-0.5-5.4-0.4-6.5c-0.4-1.8-1.4-2.9-1.5-3c-0.1-0.1-0.9,1.6-1.2,2.7c-0.7,1.5-2.1,3.5-0.8,5.5
					c-0.1,0.2-1.6,1.5-2.2,2c-0.4-0.5-1.8-1.6,1.5-7.8c1.5-3.4,4.1-9.3,4.9-11.6c0.8-2.5,2.3-4.9,2.4-7c0.8-0.9,1.2,0.2,2-4.1
					C27.8,30.5,28.9,29,29.5,28.8z"/>
			</g>
		</g>
	</g>
	<g>
		<g>
			<path class="st0" d="M102.1,14.3V35h-3.8V22.3c0-0.3,0-0.6,0-0.9c0-0.3,0-0.6,0.1-0.9l-5.9,11.2c-0.3,0.6-0.8,0.9-1.5,0.9h-0.6
				c-0.3,0-0.6-0.1-0.9-0.2c-0.3-0.2-0.5-0.4-0.6-0.7L83,20.5c0,0.3,0.1,0.7,0.1,1c0,0.3,0,0.6,0,0.9V35h-3.8V14.3h3.2
				c0.2,0,0.3,0,0.5,0c0.1,0,0.3,0,0.4,0.1c0.1,0,0.2,0.1,0.3,0.2c0.1,0.1,0.2,0.2,0.3,0.4l5.8,11c0.2,0.3,0.3,0.7,0.5,1
				c0.2,0.4,0.3,0.7,0.4,1.1c0.1-0.4,0.3-0.8,0.4-1.1c0.2-0.4,0.3-0.7,0.5-1l5.7-11c0.1-0.2,0.2-0.3,0.3-0.4s0.2-0.2,0.3-0.2
				c0.1,0,0.2-0.1,0.4-0.1c0.1,0,0.3,0,0.5,0H102.1z"/>
			<path class="st0" d="M105.2,22.3c0.9-0.8,1.8-1.4,2.9-1.7c1-0.4,2.2-0.6,3.4-0.6c0.9,0,1.7,0.1,2.3,0.4c0.7,0.3,1.3,0.7,1.8,1.2
				c0.5,0.5,0.8,1.1,1.1,1.8c0.3,0.7,0.4,1.5,0.4,2.3V35h-1.8c-0.4,0-0.7-0.1-0.8-0.2s-0.4-0.3-0.5-0.7l-0.3-0.9
				c-0.4,0.3-0.7,0.6-1.1,0.9c-0.3,0.2-0.7,0.5-1.1,0.6c-0.4,0.2-0.8,0.3-1.2,0.4s-0.9,0.1-1.4,0.1c-0.6,0-1.2-0.1-1.8-0.3
				c-0.5-0.2-1-0.4-1.4-0.8s-0.7-0.8-0.9-1.3c-0.2-0.5-0.3-1.1-0.3-1.7c0-0.5,0.1-1.1,0.4-1.6s0.7-1,1.4-1.5
				c0.7-0.4,1.6-0.8,2.7-1.1c1.1-0.3,2.5-0.5,4.2-0.5v-0.8c0-0.9-0.2-1.6-0.6-2s-0.9-0.6-1.7-0.6c-0.5,0-1,0.1-1.4,0.2
				c-0.4,0.1-0.7,0.3-0.9,0.4c-0.3,0.1-0.5,0.3-0.8,0.4c-0.2,0.1-0.5,0.2-0.8,0.2c-0.3,0-0.5-0.1-0.7-0.2c-0.2-0.1-0.3-0.3-0.5-0.5
				L105.2,22.3z M113.2,28.8c-1,0-1.8,0.1-2.4,0.2c-0.6,0.1-1.1,0.3-1.5,0.5s-0.6,0.4-0.8,0.6c-0.2,0.2-0.2,0.5-0.2,0.8
				c0,0.6,0.2,1,0.5,1.2s0.8,0.4,1.3,0.4c0.7,0,1.2-0.1,1.7-0.3c0.5-0.2,1-0.6,1.4-1.1V28.8z"/>
			<path class="st0" d="M129.2,23.3c-0.1,0.2-0.2,0.3-0.3,0.3c-0.1,0.1-0.3,0.1-0.4,0.1c-0.2,0-0.4,0-0.6-0.1
				c-0.2-0.1-0.4-0.2-0.7-0.3c-0.2-0.1-0.5-0.2-0.8-0.3c-0.3-0.1-0.7-0.1-1.1-0.1c-0.6,0-1.1,0.1-1.5,0.4s-0.5,0.6-0.5,1
				c0,0.3,0.1,0.5,0.3,0.7c0.2,0.2,0.5,0.4,0.8,0.5c0.3,0.1,0.7,0.3,1.1,0.4c0.4,0.1,0.8,0.3,1.3,0.4c0.4,0.2,0.9,0.3,1.3,0.5
				c0.4,0.2,0.8,0.4,1.1,0.7c0.3,0.3,0.6,0.7,0.8,1.1c0.2,0.4,0.3,0.9,0.3,1.5c0,0.7-0.1,1.4-0.4,2c-0.3,0.6-0.6,1.1-1.1,1.6
				c-0.5,0.4-1.1,0.8-1.9,1c-0.8,0.2-1.6,0.4-2.6,0.4c-0.5,0-1,0-1.5-0.1c-0.5-0.1-1-0.2-1.4-0.4s-0.9-0.4-1.3-0.6
				c-0.4-0.2-0.7-0.5-1-0.7l0.9-1.5c0.1-0.2,0.2-0.3,0.4-0.4c0.2-0.1,0.4-0.1,0.6-0.1c0.2,0,0.5,0.1,0.7,0.2
				c0.2,0.1,0.4,0.2,0.7,0.4s0.5,0.3,0.9,0.4c0.3,0.1,0.8,0.2,1.3,0.2c0.4,0,0.7,0,1-0.1s0.5-0.2,0.7-0.3c0.2-0.1,0.3-0.3,0.4-0.5
				c0.1-0.2,0.1-0.4,0.1-0.6c0-0.3-0.1-0.6-0.3-0.8s-0.5-0.4-0.8-0.5c-0.3-0.2-0.7-0.3-1.1-0.4c-0.4-0.1-0.9-0.3-1.3-0.4
				s-0.9-0.3-1.3-0.5c-0.4-0.2-0.8-0.5-1.1-0.8c-0.3-0.3-0.6-0.7-0.8-1.2s-0.3-1-0.3-1.7c0-0.6,0.1-1.2,0.4-1.7
				c0.2-0.5,0.6-1,1.1-1.4c0.5-0.4,1.1-0.8,1.8-1c0.7-0.2,1.5-0.4,2.5-0.4c1,0,2,0.2,2.8,0.5c0.9,0.3,1.6,0.8,2.1,1.3L129.2,23.3z"
				/>
			<path class="st0" d="M137.8,35.2c-0.7,0-1.3-0.1-1.8-0.3c-0.5-0.2-0.9-0.5-1.3-0.8c-0.4-0.4-0.6-0.8-0.8-1.3
				c-0.2-0.5-0.3-1.1-0.3-1.7v-7.9h-1.4c-0.2,0-0.4-0.1-0.5-0.2c-0.1-0.1-0.2-0.3-0.2-0.6v-1.5l2.3-0.4l0.8-3.8
				c0.1-0.4,0.4-0.6,0.9-0.6h2.1v4.5h3.8v2.7h-3.8v7.7c0,0.4,0.1,0.7,0.3,1c0.2,0.2,0.5,0.4,0.8,0.4c0.2,0,0.4,0,0.5-0.1
				c0.1,0,0.2-0.1,0.3-0.1s0.2-0.1,0.3-0.1c0.1,0,0.2-0.1,0.2-0.1c0.1,0,0.2,0,0.3,0.1c0.1,0.1,0.2,0.1,0.2,0.3l1.2,1.9
				c-0.5,0.4-1.2,0.8-1.8,1S138.5,35.2,137.8,35.2z"/>
			<path class="st0" d="M146.5,28.2c0.1,1.4,0.5,2.4,1.2,3s1.5,1,2.6,1c0.5,0,1-0.1,1.4-0.2c0.4-0.1,0.7-0.3,1-0.4
				c0.3-0.2,0.6-0.3,0.8-0.4s0.5-0.2,0.7-0.2c0.3,0,0.5,0.1,0.7,0.3l1.1,1.4c-0.4,0.5-0.9,0.9-1.4,1.2c-0.5,0.3-1,0.6-1.6,0.8
				c-0.5,0.2-1.1,0.3-1.6,0.4s-1.1,0.1-1.6,0.1c-1,0-2-0.2-2.9-0.5s-1.7-0.8-2.3-1.5s-1.2-1.5-1.6-2.5c-0.4-1-0.6-2.1-0.6-3.4
				c0-1,0.2-1.9,0.5-2.8c0.3-0.9,0.8-1.7,1.4-2.3s1.4-1.2,2.3-1.6c0.9-0.4,1.9-0.6,3-0.6c0.9,0,1.8,0.1,2.6,0.4s1.5,0.7,2.1,1.3
				c0.6,0.6,1,1.3,1.3,2.1s0.5,1.8,0.5,2.8c0,0.3,0,0.5,0,0.7s-0.1,0.3-0.1,0.5c-0.1,0.1-0.2,0.2-0.3,0.2c-0.1,0-0.3,0.1-0.4,0.1
				H146.5z M152.7,25.9c0-0.4-0.1-0.8-0.2-1.2s-0.3-0.7-0.5-1c-0.2-0.3-0.5-0.5-0.9-0.7c-0.4-0.2-0.8-0.2-1.3-0.2
				c-0.9,0-1.7,0.3-2.2,0.8c-0.5,0.5-0.9,1.3-1,2.3H152.7z"/>
			<path class="st0" d="M162.3,22.7c0.5-0.8,1-1.5,1.6-2s1.3-0.7,2.1-0.7c0.7,0,1.2,0.2,1.6,0.5l-0.3,2.9c0,0.2-0.1,0.3-0.2,0.4
				c-0.1,0.1-0.2,0.1-0.4,0.1c-0.2,0-0.4,0-0.7-0.1c-0.3,0-0.6-0.1-0.8-0.1c-0.4,0-0.7,0.1-1,0.2s-0.5,0.3-0.7,0.4
				c-0.2,0.2-0.4,0.4-0.6,0.7s-0.3,0.6-0.5,0.9v9h-3.9V20.3h2.3c0.4,0,0.7,0.1,0.8,0.2c0.2,0.1,0.3,0.4,0.3,0.7L162.3,22.7z"/>
			<path class="st0" d="M178.4,23.3c-0.1,0.2-0.2,0.3-0.3,0.3c-0.1,0.1-0.3,0.1-0.4,0.1c-0.2,0-0.4,0-0.6-0.1
				c-0.2-0.1-0.4-0.2-0.7-0.3c-0.2-0.1-0.5-0.2-0.8-0.3c-0.3-0.1-0.7-0.1-1.1-0.1c-0.6,0-1.1,0.1-1.5,0.4s-0.5,0.6-0.5,1
				c0,0.3,0.1,0.5,0.3,0.7c0.2,0.2,0.5,0.4,0.8,0.5c0.3,0.1,0.7,0.3,1.1,0.4c0.4,0.1,0.8,0.3,1.3,0.4c0.4,0.2,0.9,0.3,1.3,0.5
				c0.4,0.2,0.8,0.4,1.1,0.7c0.3,0.3,0.6,0.7,0.8,1.1c0.2,0.4,0.3,0.9,0.3,1.5c0,0.7-0.1,1.4-0.4,2c-0.3,0.6-0.6,1.1-1.1,1.6
				c-0.5,0.4-1.1,0.8-1.9,1c-0.8,0.2-1.6,0.4-2.6,0.4c-0.5,0-1,0-1.5-0.1c-0.5-0.1-1-0.2-1.4-0.4s-0.9-0.4-1.3-0.6
				c-0.4-0.2-0.7-0.5-1-0.7l0.9-1.5c0.1-0.2,0.2-0.3,0.4-0.4c0.2-0.1,0.4-0.1,0.6-0.1c0.2,0,0.5,0.1,0.7,0.2
				c0.2,0.1,0.4,0.2,0.7,0.4s0.5,0.3,0.9,0.4c0.3,0.1,0.8,0.2,1.3,0.2c0.4,0,0.7,0,1-0.1s0.5-0.2,0.7-0.3c0.2-0.1,0.3-0.3,0.4-0.5
				c0.1-0.2,0.1-0.4,0.1-0.6c0-0.3-0.1-0.6-0.3-0.8s-0.5-0.4-0.8-0.5c-0.3-0.2-0.7-0.3-1.1-0.4c-0.4-0.1-0.9-0.3-1.3-0.4
				s-0.9-0.3-1.3-0.5c-0.4-0.2-0.8-0.5-1.1-0.8c-0.3-0.3-0.6-0.7-0.8-1.2s-0.3-1-0.3-1.7c0-0.6,0.1-1.2,0.4-1.7
				c0.2-0.5,0.6-1,1.1-1.4c0.5-0.4,1.1-0.8,1.8-1c0.7-0.2,1.5-0.4,2.5-0.4c1,0,2,0.2,2.8,0.5s1.6,0.8,2.1,1.3L178.4,23.3z"/>
		</g>
	</g>
	<g>
		<g>
			<path class="st2" d="M88.5,50.8c0,0-0.1,0.1-0.1,0.1c0,0-0.1,0-0.2,0c-0.1,0-0.2-0.1-0.3-0.2s-0.3-0.2-0.6-0.4
				c-0.2-0.1-0.5-0.3-0.9-0.4C86,50,85.6,49.9,85,49.9c-0.7,0-1.4,0.1-1.9,0.4c-0.6,0.3-1,0.6-1.4,1.1c-0.4,0.5-0.7,1.1-0.9,1.7
				c-0.2,0.7-0.3,1.4-0.3,2.3c0,0.9,0.1,1.7,0.3,2.3c0.2,0.7,0.5,1.3,0.9,1.7c0.4,0.5,0.8,0.8,1.4,1.1c0.5,0.2,1.1,0.4,1.8,0.4
				c0.6,0,1.1-0.1,1.5-0.2c0.4-0.1,0.7-0.3,1-0.5s0.5-0.3,0.6-0.5s0.3-0.2,0.4-0.2s0.2,0,0.3,0.1L89,60c-0.2,0.3-0.4,0.5-0.7,0.7
				c-0.3,0.2-0.6,0.4-1,0.6c-0.4,0.2-0.8,0.3-1.2,0.4s-0.9,0.1-1.4,0.1c-0.8,0-1.5-0.1-2.2-0.4c-0.7-0.3-1.2-0.7-1.7-1.3
				c-0.5-0.5-0.8-1.2-1.1-2c-0.3-0.8-0.4-1.7-0.4-2.7c0-1,0.1-1.8,0.4-2.6c0.3-0.8,0.6-1.5,1.1-2c0.5-0.6,1.1-1,1.8-1.3
				S84.1,49,85,49c0.8,0,1.5,0.1,2.2,0.4c0.6,0.3,1.2,0.6,1.6,1.1L88.5,50.8z"/>
			<path class="st2" d="M92.1,54.9v0.2c0,0.9,0.1,1.8,0.3,2.5s0.5,1.3,0.9,1.8c0.4,0.5,0.9,0.8,1.5,1.1c0.6,0.2,1.2,0.4,1.9,0.4
				c0.6,0,1.2-0.1,1.6-0.2c0.5-0.1,0.8-0.3,1.2-0.5c0.3-0.2,0.6-0.3,0.7-0.5s0.3-0.2,0.4-0.2c0.1,0,0.2,0,0.3,0.1l0.3,0.4
				c-0.2,0.3-0.5,0.5-0.8,0.7c-0.3,0.2-0.7,0.4-1.1,0.6c-0.4,0.2-0.8,0.3-1.3,0.4c-0.5,0.1-0.9,0.1-1.4,0.1c-0.9,0-1.6-0.1-2.3-0.4
				c-0.7-0.3-1.3-0.7-1.8-1.3c-0.5-0.6-0.9-1.3-1.2-2.1c-0.3-0.8-0.4-1.8-0.4-2.8c0-0.9,0.1-1.7,0.4-2.5s0.6-1.4,1.1-2
				c0.5-0.5,1.1-1,1.8-1.3c0.7-0.3,1.5-0.5,2.4-0.5c0.7,0,1.4,0.1,2,0.4c0.6,0.2,1.1,0.6,1.6,1.1c0.4,0.5,0.8,1,1,1.7
				s0.4,1.5,0.4,2.3c0,0.2,0,0.3-0.1,0.4c0,0.1-0.1,0.1-0.3,0.1H92.1z M100.4,54.1c0-0.7-0.1-1.3-0.3-1.8s-0.5-1-0.8-1.4
				c-0.3-0.4-0.8-0.7-1.2-0.8c-0.5-0.2-1-0.3-1.6-0.3c-0.6,0-1.2,0.1-1.7,0.3c-0.5,0.2-1,0.5-1.3,0.9c-0.4,0.4-0.7,0.8-0.9,1.4
				c-0.2,0.5-0.4,1.1-0.5,1.8H100.4z"/>
			<path class="st2" d="M105.9,52.2c0.2-0.5,0.4-1,0.7-1.4c0.2-0.4,0.5-0.7,0.9-1s0.7-0.5,1.1-0.6c0.4-0.1,0.8-0.2,1.3-0.2
				c0.3,0,0.5,0,0.8,0.1c0.3,0,0.5,0.1,0.7,0.2l-0.1,0.8c0,0.1-0.1,0.2-0.2,0.2c-0.1,0-0.3,0-0.5-0.1s-0.5-0.1-0.8-0.1
				c-0.5,0-0.9,0.1-1.3,0.2c-0.4,0.1-0.7,0.4-1,0.7c-0.3,0.3-0.6,0.7-0.8,1.1c-0.2,0.4-0.4,0.9-0.6,1.5v8.1h-1.2V49.2h0.6
				c0.1,0,0.2,0,0.3,0.1s0.1,0.2,0.1,0.3L105.9,52.2z"/>
			<path class="st2" d="M124,61.7h-1.2V50.4h-7.2v8.5c0,0.3,0,0.6,0.1,0.9c0.1,0.2,0.2,0.5,0.4,0.6c0.2,0.2,0.3,0.3,0.5,0.4
				c0.2,0.1,0.4,0.1,0.7,0.1c0.3,0,0.6,0,0.8-0.1s0.4-0.2,0.6-0.3c0.2-0.1,0.3-0.2,0.4-0.3s0.2-0.1,0.2-0.1c0.1,0,0.1,0,0.2,0.1
				l0.3,0.5c-0.3,0.4-0.7,0.6-1.2,0.8c-0.5,0.2-1,0.3-1.5,0.3c-0.8,0-1.5-0.2-2-0.7c-0.5-0.5-0.7-1.2-0.7-2.2v-8.5h-1.8
				c-0.1,0-0.2,0-0.2-0.1s-0.1-0.1-0.1-0.2v-0.5l2.1-0.2l0.3-4.5c0-0.1,0.1-0.1,0.1-0.2c0-0.1,0.1-0.1,0.2-0.1h0.6v4.8h8.4V61.7z
				 M124.6,44.7c0,0.2,0,0.3-0.1,0.4c-0.1,0.1-0.1,0.2-0.3,0.3c-0.1,0.1-0.2,0.2-0.4,0.2s-0.3,0.1-0.4,0.1s-0.3,0-0.4-0.1
				c-0.1-0.1-0.3-0.1-0.4-0.2c-0.1-0.1-0.2-0.2-0.2-0.3s-0.1-0.3-0.1-0.4s0-0.3,0.1-0.4s0.1-0.3,0.2-0.4c0.1-0.1,0.2-0.2,0.4-0.2
				c0.1-0.1,0.3-0.1,0.4-0.1s0.3,0,0.4,0.1c0.1,0.1,0.3,0.1,0.4,0.2s0.2,0.2,0.3,0.4C124.5,44.4,124.6,44.5,124.6,44.7z"/>
			<path class="st2" d="M129.1,61.7V50.5l-1.8-0.1c-0.2,0-0.4-0.1-0.4-0.3v-0.5h2.1v-1.1c0-0.8,0.1-1.5,0.3-2.1
				c0.2-0.6,0.6-1.1,1-1.6c0.4-0.4,1-0.8,1.6-1c0.6-0.2,1.3-0.3,2.1-0.3c0.3,0,0.6,0,0.8,0.1c0.3,0,0.5,0.1,0.8,0.2l-0.1,0.6
				c0,0.1,0,0.1-0.1,0.1c-0.1,0-0.1,0-0.2,0s-0.2,0-0.4,0c-0.2,0-0.3,0-0.6,0c-1.3,0-2.3,0.3-3.1,1c-0.7,0.7-1.1,1.7-1.1,3.1v1h7.3
				v12.1h-1.2V50.4h-6.1v11.2H129.1z"/>
			<path class="st2" d="M150.2,50.8c0,0-0.1,0.1-0.1,0.1c0,0-0.1,0-0.2,0c-0.1,0-0.2-0.1-0.3-0.2s-0.3-0.2-0.6-0.4
				c-0.2-0.1-0.5-0.3-0.9-0.4c-0.4-0.1-0.8-0.2-1.3-0.2c-0.7,0-1.4,0.1-1.9,0.4c-0.6,0.3-1,0.6-1.4,1.1c-0.4,0.5-0.7,1.1-0.9,1.7
				c-0.2,0.7-0.3,1.4-0.3,2.3c0,0.9,0.1,1.7,0.3,2.3c0.2,0.7,0.5,1.3,0.9,1.7c0.4,0.5,0.8,0.8,1.4,1.1c0.5,0.2,1.1,0.4,1.8,0.4
				c0.6,0,1.1-0.1,1.5-0.2c0.4-0.1,0.7-0.3,1-0.5s0.5-0.3,0.6-0.5s0.3-0.2,0.4-0.2s0.2,0,0.3,0.1l0.3,0.4c-0.2,0.3-0.4,0.5-0.7,0.7
				c-0.3,0.2-0.6,0.4-1,0.6c-0.4,0.2-0.8,0.3-1.2,0.4s-0.9,0.1-1.4,0.1c-0.8,0-1.5-0.1-2.2-0.4c-0.7-0.3-1.2-0.7-1.7-1.3
				c-0.5-0.5-0.8-1.2-1.1-2c-0.3-0.8-0.4-1.7-0.4-2.7c0-1,0.1-1.8,0.4-2.6c0.3-0.8,0.6-1.5,1.1-2c0.5-0.6,1.1-1,1.8-1.3
				s1.5-0.5,2.4-0.5c0.8,0,1.5,0.1,2.2,0.4c0.6,0.3,1.2,0.6,1.6,1.1L150.2,50.8z"/>
			<path class="st2" d="M153.3,50.9c0.7-0.7,1.3-1.1,2.1-1.5c0.7-0.3,1.5-0.5,2.4-0.5c0.7,0,1.3,0.1,1.8,0.3
				c0.5,0.2,0.9,0.5,1.3,0.9s0.6,0.9,0.7,1.4c0.2,0.6,0.3,1.2,0.3,1.9v8.1h-0.5c-0.3,0-0.4-0.1-0.5-0.4l-0.2-1.6
				c-0.3,0.3-0.7,0.6-1,0.9c-0.3,0.3-0.7,0.5-1.1,0.7c-0.4,0.2-0.8,0.3-1.2,0.4c-0.4,0.1-0.9,0.2-1.4,0.2c-0.4,0-0.8-0.1-1.2-0.2
				c-0.4-0.1-0.8-0.3-1.1-0.6c-0.3-0.3-0.6-0.6-0.8-1s-0.3-0.9-0.3-1.5c0-0.5,0.2-1,0.5-1.5c0.3-0.5,0.8-0.8,1.4-1.2
				s1.5-0.6,2.5-0.8c1-0.2,2.2-0.3,3.6-0.4v-1.3c0-1.2-0.2-2-0.7-2.7c-0.5-0.6-1.2-0.9-2.2-0.9c-0.6,0-1.1,0.1-1.5,0.3
				s-0.8,0.4-1.1,0.6s-0.5,0.4-0.7,0.6c-0.2,0.2-0.3,0.3-0.5,0.3c-0.1,0-0.2,0-0.2-0.1s-0.1-0.1-0.2-0.2L153.3,50.9z M160.7,55.6
				c-1.2,0-2.2,0.1-3.1,0.3c-0.9,0.1-1.6,0.3-2.1,0.6c-0.6,0.3-1,0.6-1.2,0.9c-0.3,0.3-0.4,0.7-0.4,1.2c0,0.4,0.1,0.8,0.2,1.1
				c0.1,0.3,0.3,0.6,0.6,0.8s0.5,0.3,0.8,0.4c0.3,0.1,0.6,0.1,0.9,0.1c0.5,0,0.9-0.1,1.3-0.2c0.4-0.1,0.8-0.3,1.1-0.4
				c0.3-0.2,0.7-0.4,1-0.7c0.3-0.3,0.6-0.5,0.9-0.8V55.6z"/>
			<path class="st2" d="M176.1,61.7h-1.2V50.4h-7.2v8.5c0,0.3,0,0.6,0.1,0.9c0.1,0.2,0.2,0.5,0.4,0.6c0.2,0.2,0.3,0.3,0.5,0.4
				c0.2,0.1,0.4,0.1,0.7,0.1c0.3,0,0.6,0,0.8-0.1s0.4-0.2,0.6-0.3c0.2-0.1,0.3-0.2,0.4-0.3s0.2-0.1,0.2-0.1c0.1,0,0.1,0,0.2,0.1
				l0.3,0.5c-0.3,0.4-0.7,0.6-1.2,0.8c-0.5,0.2-1,0.3-1.5,0.3c-0.8,0-1.5-0.2-2-0.7c-0.5-0.5-0.7-1.2-0.7-2.2v-8.5h-1.8
				c-0.1,0-0.2,0-0.2-0.1s-0.1-0.1-0.1-0.2v-0.5l2.1-0.2l0.3-4.5c0-0.1,0.1-0.1,0.1-0.2c0-0.1,0.1-0.1,0.2-0.1h0.6v4.8h8.4V61.7z
				 M176.6,44.7c0,0.2,0,0.3-0.1,0.4c-0.1,0.1-0.1,0.2-0.3,0.3c-0.1,0.1-0.2,0.2-0.4,0.2s-0.3,0.1-0.4,0.1s-0.3,0-0.4-0.1
				c-0.1-0.1-0.3-0.1-0.4-0.2c-0.1-0.1-0.2-0.2-0.2-0.3s-0.1-0.3-0.1-0.4s0-0.3,0.1-0.4s0.1-0.3,0.2-0.4c0.1-0.1,0.2-0.2,0.4-0.2
				c0.1-0.1,0.3-0.1,0.4-0.1s0.3,0,0.4,0.1c0.1,0.1,0.3,0.1,0.4,0.2s0.2,0.2,0.3,0.4C176.6,44.4,176.6,44.5,176.6,44.7z"/>
			<path class="st2" d="M185.3,49c0.9,0,1.7,0.2,2.4,0.5c0.7,0.3,1.3,0.7,1.8,1.3s0.9,1.2,1.1,2c0.3,0.8,0.4,1.7,0.4,2.7
				s-0.1,1.9-0.4,2.7c-0.3,0.8-0.6,1.5-1.1,2c-0.5,0.6-1.1,1-1.8,1.3c-0.7,0.3-1.5,0.5-2.4,0.5c-0.9,0-1.7-0.2-2.4-0.5
				c-0.7-0.3-1.3-0.7-1.8-1.3c-0.5-0.6-0.9-1.2-1.1-2c-0.3-0.8-0.4-1.7-0.4-2.7s0.1-1.9,0.4-2.7s0.6-1.5,1.1-2s1.1-1,1.8-1.3
				C183.6,49.1,184.4,49,185.3,49z M185.3,60.9c0.7,0,1.4-0.1,2-0.4c0.6-0.3,1-0.6,1.4-1.1c0.4-0.5,0.7-1.1,0.8-1.7s0.3-1.4,0.3-2.3
				c0-0.8-0.1-1.6-0.3-2.3c-0.2-0.7-0.5-1.3-0.8-1.7c-0.4-0.5-0.8-0.9-1.4-1.1c-0.6-0.3-1.2-0.4-2-0.4c-0.7,0-1.4,0.1-2,0.4
				c-0.6,0.3-1,0.6-1.4,1.1c-0.4,0.5-0.7,1.1-0.8,1.7c-0.2,0.7-0.3,1.4-0.3,2.3c0,0.8,0.1,1.6,0.3,2.3s0.5,1.3,0.8,1.7
				c0.4,0.5,0.8,0.8,1.4,1.1C183.9,60.8,184.5,60.9,185.3,60.9z"/>
			<path class="st2" d="M195.5,51.3c0.6-0.7,1.2-1.3,2-1.7c0.8-0.4,1.6-0.7,2.5-0.7c0.7,0,1.3,0.1,1.8,0.3c0.5,0.2,1,0.5,1.3,0.9
				c0.3,0.4,0.6,0.9,0.8,1.5c0.2,0.6,0.3,1.2,0.3,2v8H203v-8c0-1.2-0.3-2.1-0.8-2.8c-0.5-0.7-1.4-1-2.4-1c-0.8,0-1.6,0.2-2.3,0.6
				c-0.7,0.4-1.3,1-1.9,1.7v9.4h-1.2V49.2h0.7c0.2,0,0.3,0.1,0.4,0.3L195.5,51.3z"/>
		</g>
	</g>
</g>
<g id="Layer_2" class="st3">
	<g class="st4">
		<g>
			<path class="st0" d="M153,32.4v-4.8c0-4.2-1-6.9-6.9-6.9c-1.5,0-3.1,0.2-4.4,0.7v-9.3l-5.9,1v26.5c3.2,0.5,4.9,0.7,7.8,0.7
				C151.7,40.4,153,37,153,32.4L153,32.4z M147.1,32.4c0,1.8-0.4,3.2-3.3,3.2c-0.8,0-1.3,0-2.1-0.1v-9.1c0.9-0.4,1.7-0.8,2.9-0.8
				c2,0,2.5,1.1,2.5,2.5V32.4z"/>
			<path class="st0" d="M133.9,32.3v-3.9c0-4.2-1.9-7.6-8.3-7.6c-6.5,0-8.3,3.4-8.3,7.6v3.9c0,4.8,2.5,8.1,8.8,8.1
				c2.9,0,4.4-0.2,7.4-0.8v-4.8c-3,0.5-4.5,0.6-6.9,0.6c-2.6,0-3.4-0.6-3.4-2.8v-0.4H133.9z M123.1,27.6c0-1.4,0.5-2.5,2.5-2.5
				c2,0,2.5,1.1,2.5,2.5v0.8h-4.9V27.6z"/>
			<path class="st0" d="M90.5,21H85l-0.5,4.9h5c3.1,0,3.3,0.6,3.3,2.6v0.8h-4.1c-4,0-6.2,1.4-6.2,5.3c0,3.3,1.9,5.7,5.5,5.7
				c1.3,0,3.3-0.2,5.6-1.4l0.2,1.2h4.9v0V28.5C98.8,23.1,97.3,21,90.5,21z M92.9,35.4c-0.9,0.4-1.6,0.8-2.8,0.8
				c-1.1,0-1.6-0.6-1.6-1.6c0-1.1,0.5-1.3,1.8-1.3h2.6V35.4z"/>
			<path class="st0" d="M163.3,20.7c-6.9,0-8.6,3.9-8.6,7.9v3.9c0,4,1.7,7.9,8.6,7.9c6.9,0,8.6-3.9,8.6-7.9v-3.9
				C171.9,24.6,170.2,20.7,163.3,20.7z M166,33.1c0,1.4-0.7,2.5-2.7,2.5c-2,0-2.7-1.1-2.7-2.5v-5c0-1.4,0.7-2.5,2.7-2.5
				c2,0,2.7,1.1,2.7,2.5V33.1z"/>
			<path class="st0" d="M78.6,40.2h-5.9V25.9h-2.9V21h2.9V18c0-4,1.7-6.4,6.4-6.4h3.9v4.9h-2.5c-1.8,0-2,0.7-2,2l0,2.5h4.4l-0.5,4.9
				h-3.9V40.2L78.6,40.2z"/>
			<path class="st0" d="M115.4,26.3c-3.1-0.5-3.9-0.6-5.4-0.6c-2.6,0-3.4,0.6-3.4,2.8v4.2c0,2.2,0.8,2.8,3.4,2.8
				c1.5,0,2.3-0.1,5.4-0.6v4.8c-2.7,0.6-4.4,0.8-5.9,0.8c-6.3,0-8.8-3.3-8.8-8.1v-3.4c0-4.8,2.5-8.1,8.8-8.1c1.5,0,3.2,0.2,5.9,0.8
				V26.3L115.4,26.3z"/>
			<polygon class="st0" points="210,40.2 203.7,40.2 198.3,31.1 198.3,40.2 192.4,40.2 192.4,13.1 198.3,12.2 198.3,29.5 203.7,21 
				210,21 204.2,30.3 			"/>
			<path class="st0" d="M182.1,20.7c-6.9,0-8.6,3.9-8.6,7.9v3.9c0,4,1.7,7.9,8.6,7.9c6.9,0,8.6-3.9,8.6-7.9v-3.9
				C190.7,24.6,189,20.7,182.1,20.7z M184.8,33.1c0,1.4-0.7,2.5-2.7,2.5c-2,0-2.7-1.1-2.7-2.5v-5c0-1.4,0.7-2.5,2.7-2.5
				c2,0,2.7,1.1,2.7,2.5V33.1z"/>
		</g>
	</g>
	<path class="st5" d="M26.3,13.9c-14.5,0-26.2,11.7-26.2,26.2c0,12.6,8.9,23.1,20.7,25.6V47.5h-4.8v-8h4.8v-4.8
		c0-6.5,2.7-10.4,10.4-10.4h6.4v8h-4c-3,0-3.2,1.1-3.2,3.2l0,4h7.2l-0.8,8h-6.4V66c12.5-2,22.1-12.8,22.1-25.9
		C52.5,25.6,40.8,13.9,26.3,13.9z"/>
	<g class="st4">
		<g>
			<path class="st2" d="M80,57.5c0,0-0.1,0.1-0.1,0.1c0,0-0.1,0-0.2,0c-0.1,0-0.2-0.1-0.3-0.2s-0.3-0.2-0.6-0.4
				c-0.2-0.1-0.5-0.3-0.9-0.4c-0.4-0.1-0.8-0.2-1.3-0.2c-0.7,0-1.4,0.1-1.9,0.4c-0.6,0.3-1,0.6-1.4,1.1c-0.4,0.5-0.7,1.1-0.9,1.7
				c-0.2,0.7-0.3,1.4-0.3,2.3c0,0.9,0.1,1.7,0.3,2.3c0.2,0.7,0.5,1.3,0.9,1.7c0.4,0.5,0.8,0.8,1.4,1.1c0.5,0.2,1.1,0.4,1.8,0.4
				c0.6,0,1.1-0.1,1.5-0.2c0.4-0.1,0.7-0.3,1-0.5s0.5-0.3,0.6-0.5s0.3-0.2,0.4-0.2s0.2,0,0.3,0.1l0.3,0.4c-0.2,0.3-0.4,0.5-0.7,0.7
				c-0.3,0.2-0.6,0.4-1,0.6c-0.4,0.2-0.8,0.3-1.2,0.4s-0.9,0.1-1.4,0.1c-0.8,0-1.5-0.1-2.2-0.4c-0.7-0.3-1.2-0.7-1.7-1.3
				c-0.5-0.5-0.8-1.2-1.1-2c-0.3-0.8-0.4-1.7-0.4-2.7c0-1,0.1-1.8,0.4-2.6c0.3-0.8,0.6-1.5,1.1-2c0.5-0.6,1.1-1,1.8-1.3
				s1.5-0.5,2.4-0.5c0.8,0,1.5,0.1,2.2,0.4c0.6,0.3,1.2,0.6,1.6,1.1L80,57.5z"/>
			<path class="st2" d="M83.6,61.6v0.2c0,0.9,0.1,1.8,0.3,2.5c0.2,0.7,0.5,1.3,0.9,1.8c0.4,0.5,0.9,0.8,1.5,1.1
				c0.6,0.2,1.2,0.4,1.9,0.4c0.6,0,1.2-0.1,1.6-0.2c0.5-0.1,0.8-0.3,1.2-0.5c0.3-0.2,0.6-0.3,0.7-0.5s0.3-0.2,0.4-0.2
				c0.1,0,0.2,0,0.3,0.1l0.3,0.4c-0.2,0.3-0.5,0.5-0.8,0.7c-0.3,0.2-0.7,0.4-1.1,0.6c-0.4,0.2-0.8,0.3-1.3,0.4
				c-0.5,0.1-0.9,0.1-1.4,0.1c-0.9,0-1.6-0.1-2.3-0.4c-0.7-0.3-1.3-0.7-1.8-1.3c-0.5-0.6-0.9-1.3-1.2-2.1c-0.3-0.8-0.4-1.8-0.4-2.8
				c0-0.9,0.1-1.7,0.4-2.5s0.6-1.4,1.1-2c0.5-0.5,1.1-1,1.8-1.3c0.7-0.3,1.5-0.5,2.4-0.5c0.7,0,1.4,0.1,2,0.4
				c0.6,0.2,1.1,0.6,1.6,1.1c0.4,0.5,0.8,1,1,1.7s0.4,1.5,0.4,2.3c0,0.2,0,0.3-0.1,0.4c0,0.1-0.1,0.1-0.3,0.1H83.6z M91.9,60.8
				c0-0.7-0.1-1.3-0.3-1.8s-0.5-1-0.8-1.4c-0.3-0.4-0.8-0.7-1.2-0.8c-0.5-0.2-1-0.3-1.6-0.3c-0.6,0-1.2,0.1-1.7,0.3
				c-0.5,0.2-1,0.5-1.3,0.9c-0.4,0.4-0.7,0.8-0.9,1.4c-0.2,0.5-0.4,1.1-0.5,1.8H91.9z"/>
			<path class="st2" d="M97.4,58.8c0.2-0.5,0.4-1,0.7-1.4c0.2-0.4,0.5-0.7,0.9-1s0.7-0.5,1.1-0.6c0.4-0.1,0.8-0.2,1.3-0.2
				c0.3,0,0.5,0,0.8,0.1c0.3,0,0.5,0.1,0.7,0.2l-0.1,0.8c0,0.1-0.1,0.2-0.2,0.2c-0.1,0-0.3,0-0.5-0.1s-0.5-0.1-0.8-0.1
				c-0.5,0-0.9,0.1-1.3,0.2c-0.4,0.1-0.7,0.4-1,0.7c-0.3,0.3-0.6,0.7-0.8,1.1c-0.2,0.4-0.4,0.9-0.6,1.5v8.1h-1.2V55.8h0.6
				c0.1,0,0.2,0,0.3,0.1s0.1,0.2,0.1,0.3L97.4,58.8z"/>
			<path class="st2" d="M115.5,68.3h-1.2V57.1h-7.2v8.5c0,0.3,0,0.6,0.1,0.9c0.1,0.2,0.2,0.5,0.4,0.6c0.2,0.2,0.3,0.3,0.5,0.4
				c0.2,0.1,0.4,0.1,0.7,0.1c0.3,0,0.6,0,0.8-0.1s0.4-0.2,0.6-0.3c0.2-0.1,0.3-0.2,0.4-0.3s0.2-0.1,0.2-0.1c0.1,0,0.1,0,0.2,0.1
				l0.3,0.5c-0.3,0.4-0.7,0.6-1.2,0.8c-0.5,0.2-1,0.3-1.5,0.3c-0.8,0-1.5-0.2-2-0.7c-0.5-0.5-0.7-1.2-0.7-2.2v-8.5h-1.8
				c-0.1,0-0.2,0-0.2-0.1s-0.1-0.1-0.1-0.2v-0.5l2.1-0.2l0.3-4.5c0-0.1,0.1-0.1,0.1-0.2c0-0.1,0.1-0.1,0.2-0.1h0.6v4.8h8.4V68.3z
				 M116.1,51.4c0,0.2,0,0.3-0.1,0.4c-0.1,0.1-0.1,0.2-0.3,0.3c-0.1,0.1-0.2,0.2-0.4,0.2s-0.3,0.1-0.4,0.1s-0.3,0-0.4-0.1
				c-0.1-0.1-0.3-0.1-0.4-0.2c-0.1-0.1-0.2-0.2-0.2-0.3s-0.1-0.3-0.1-0.4s0-0.3,0.1-0.4s0.1-0.3,0.2-0.4c0.1-0.1,0.2-0.2,0.4-0.2
				c0.1-0.1,0.3-0.1,0.4-0.1s0.3,0,0.4,0.1c0.1,0.1,0.3,0.1,0.4,0.2s0.2,0.2,0.3,0.4C116.1,51.1,116.1,51.2,116.1,51.4z"/>
			<path class="st2" d="M120.6,68.3V57.1l-1.8-0.1c-0.2,0-0.4-0.1-0.4-0.3v-0.5h2.1v-1.1c0-0.8,0.1-1.5,0.3-2.1
				c0.2-0.6,0.6-1.1,1-1.6c0.4-0.4,1-0.8,1.6-1c0.6-0.2,1.3-0.3,2.1-0.3c0.3,0,0.6,0,0.8,0.1c0.3,0,0.5,0.1,0.8,0.2l-0.1,0.6
				c0,0.1,0,0.1-0.1,0.1c-0.1,0-0.1,0-0.2,0s-0.2,0-0.4,0c-0.2,0-0.3,0-0.6,0c-1.3,0-2.3,0.3-3.1,1c-0.7,0.7-1.1,1.7-1.1,3.1v1h7.3
				v12.1h-1.2V57.1h-6.1v11.2H120.6z"/>
			<path class="st2" d="M141.7,57.5c0,0-0.1,0.1-0.1,0.1c0,0-0.1,0-0.2,0c-0.1,0-0.2-0.1-0.3-0.2s-0.3-0.2-0.6-0.4
				c-0.2-0.1-0.5-0.3-0.9-0.4c-0.4-0.1-0.8-0.2-1.3-0.2c-0.7,0-1.4,0.1-1.9,0.4c-0.6,0.3-1,0.6-1.4,1.1c-0.4,0.5-0.7,1.1-0.9,1.7
				c-0.2,0.7-0.3,1.4-0.3,2.3c0,0.9,0.1,1.7,0.3,2.3c0.2,0.7,0.5,1.3,0.9,1.7c0.4,0.5,0.8,0.8,1.4,1.1c0.5,0.2,1.1,0.4,1.8,0.4
				c0.6,0,1.1-0.1,1.5-0.2c0.4-0.1,0.7-0.3,1-0.5s0.5-0.3,0.6-0.5s0.3-0.2,0.4-0.2s0.2,0,0.3,0.1l0.3,0.4c-0.2,0.3-0.4,0.5-0.7,0.7
				c-0.3,0.2-0.6,0.4-1,0.6c-0.4,0.2-0.8,0.3-1.2,0.4s-0.9,0.1-1.4,0.1c-0.8,0-1.5-0.1-2.2-0.4c-0.7-0.3-1.2-0.7-1.7-1.3
				c-0.5-0.5-0.8-1.2-1.1-2c-0.3-0.8-0.4-1.7-0.4-2.7c0-1,0.1-1.8,0.4-2.6c0.3-0.8,0.6-1.5,1.1-2c0.5-0.6,1.1-1,1.8-1.3
				s1.5-0.5,2.4-0.5c0.8,0,1.5,0.1,2.2,0.4c0.6,0.3,1.2,0.6,1.6,1.1L141.7,57.5z"/>
			<path class="st2" d="M144.8,57.6c0.7-0.7,1.3-1.1,2.1-1.5c0.7-0.3,1.5-0.5,2.4-0.5c0.7,0,1.3,0.1,1.8,0.3
				c0.5,0.2,0.9,0.5,1.3,0.9s0.6,0.9,0.7,1.4c0.2,0.6,0.3,1.2,0.3,1.9v8.1h-0.5c-0.3,0-0.4-0.1-0.5-0.4l-0.2-1.6
				c-0.3,0.3-0.7,0.6-1,0.9c-0.3,0.3-0.7,0.5-1.1,0.7c-0.4,0.2-0.8,0.3-1.2,0.4c-0.4,0.1-0.9,0.2-1.4,0.2c-0.4,0-0.8-0.1-1.2-0.2
				c-0.4-0.1-0.8-0.3-1.1-0.6c-0.3-0.3-0.6-0.6-0.8-1s-0.3-0.9-0.3-1.5c0-0.5,0.2-1,0.5-1.5c0.3-0.5,0.8-0.8,1.4-1.2
				s1.5-0.6,2.5-0.8c1-0.2,2.2-0.3,3.6-0.4v-1.3c0-1.2-0.2-2-0.7-2.7c-0.5-0.6-1.2-0.9-2.2-0.9c-0.6,0-1.1,0.1-1.5,0.3
				s-0.8,0.4-1.1,0.6s-0.5,0.4-0.7,0.6c-0.2,0.2-0.3,0.3-0.5,0.3c-0.1,0-0.2,0-0.2-0.1S145.1,58,145,58L144.8,57.6z M152.2,62.3
				c-1.2,0-2.2,0.1-3.1,0.3c-0.9,0.1-1.6,0.3-2.1,0.6c-0.6,0.3-1,0.6-1.2,0.9c-0.3,0.3-0.4,0.7-0.4,1.2c0,0.4,0.1,0.8,0.2,1.1
				c0.1,0.3,0.3,0.6,0.6,0.8s0.5,0.3,0.8,0.4c0.3,0.1,0.6,0.1,0.9,0.1c0.5,0,0.9-0.1,1.3-0.2c0.4-0.1,0.8-0.3,1.1-0.4
				c0.3-0.2,0.7-0.4,1-0.7c0.3-0.3,0.6-0.5,0.9-0.8V62.3z"/>
			<path class="st2" d="M167.6,68.3h-1.2V57.1h-7.2v8.5c0,0.3,0,0.6,0.1,0.9c0.1,0.2,0.2,0.5,0.4,0.6c0.2,0.2,0.3,0.3,0.5,0.4
				c0.2,0.1,0.4,0.1,0.7,0.1c0.3,0,0.6,0,0.8-0.1s0.4-0.2,0.6-0.3c0.2-0.1,0.3-0.2,0.4-0.3s0.2-0.1,0.2-0.1c0.1,0,0.1,0,0.2,0.1
				l0.3,0.5c-0.3,0.4-0.7,0.6-1.2,0.8c-0.5,0.2-1,0.3-1.5,0.3c-0.8,0-1.5-0.2-2-0.7c-0.5-0.5-0.7-1.2-0.7-2.2v-8.5h-1.8
				c-0.1,0-0.2,0-0.2-0.1s-0.1-0.1-0.1-0.2v-0.5l2.1-0.2l0.3-4.5c0-0.1,0.1-0.1,0.1-0.2c0-0.1,0.1-0.1,0.2-0.1h0.6v4.8h8.4V68.3z
				 M168.1,51.4c0,0.2,0,0.3-0.1,0.4c-0.1,0.1-0.1,0.2-0.3,0.3c-0.1,0.1-0.2,0.2-0.4,0.2s-0.3,0.1-0.4,0.1s-0.3,0-0.4-0.1
				c-0.1-0.1-0.3-0.1-0.4-0.2c-0.1-0.1-0.2-0.2-0.2-0.3s-0.1-0.3-0.1-0.4s0-0.3,0.1-0.4s0.1-0.3,0.2-0.4c0.1-0.1,0.2-0.2,0.4-0.2
				c0.1-0.1,0.3-0.1,0.4-0.1s0.3,0,0.4,0.1c0.1,0.1,0.3,0.1,0.4,0.2s0.2,0.2,0.3,0.4C168.1,51.1,168.1,51.2,168.1,51.4z"/>
			<path class="st2" d="M176.8,55.6c0.9,0,1.7,0.2,2.4,0.5c0.7,0.3,1.3,0.7,1.8,1.3s0.9,1.2,1.1,2c0.3,0.8,0.4,1.7,0.4,2.7
				s-0.1,1.9-0.4,2.7c-0.3,0.8-0.6,1.5-1.1,2c-0.5,0.6-1.1,1-1.8,1.3c-0.7,0.3-1.5,0.5-2.4,0.5c-0.9,0-1.7-0.2-2.4-0.5
				c-0.7-0.3-1.3-0.7-1.8-1.3c-0.5-0.6-0.9-1.2-1.1-2c-0.3-0.8-0.4-1.7-0.4-2.7s0.1-1.9,0.4-2.7s0.6-1.5,1.1-2s1.1-1,1.8-1.3
				C175.1,55.8,175.9,55.6,176.8,55.6z M176.8,67.6c0.7,0,1.4-0.1,2-0.4c0.6-0.3,1-0.6,1.4-1.1c0.4-0.5,0.7-1.1,0.8-1.7
				c0.2-0.7,0.3-1.4,0.3-2.3c0-0.8-0.1-1.6-0.3-2.3c-0.2-0.7-0.5-1.3-0.8-1.7c-0.4-0.5-0.8-0.9-1.4-1.1c-0.6-0.3-1.2-0.4-2-0.4
				c-0.7,0-1.4,0.1-2,0.4c-0.6,0.3-1,0.6-1.4,1.1c-0.4,0.5-0.7,1.1-0.8,1.7c-0.2,0.7-0.3,1.4-0.3,2.3c0,0.8,0.1,1.6,0.3,2.3
				c0.2,0.7,0.5,1.3,0.8,1.7c0.4,0.5,0.8,0.8,1.4,1.1C175.4,67.4,176,67.6,176.8,67.6z"/>
			<path class="st2" d="M187,58c0.6-0.7,1.2-1.3,2-1.7c0.8-0.4,1.6-0.7,2.5-0.7c0.7,0,1.3,0.1,1.8,0.3c0.5,0.2,1,0.5,1.3,0.9
				c0.3,0.4,0.6,0.9,0.8,1.5c0.2,0.6,0.3,1.2,0.3,2v8h-1.2v-8c0-1.2-0.3-2.1-0.8-2.8c-0.5-0.7-1.4-1-2.4-1c-0.8,0-1.6,0.2-2.3,0.6
				c-0.7,0.4-1.3,1-1.9,1.7v9.4h-1.2V55.8h0.7c0.2,0,0.3,0.1,0.4,0.3L187,58z"/>
		</g>
	</g>
	<g class="st4">
		<g>
			<path class="st0" d="M24,20.9c2.2,0,4.4,0,6.6,0c0.6,0,0.8,0.1,0.9,0.8c0.4,3.7-0.2,7.2-2.1,10.3c-1.2,1.9-2.8,3.4-4.8,4.5
				c-2.1,1.3-4.4,1.8-6.8,2c-3.1,0.3-6.1-0.3-8.9-1.8c-3.1-1.6-5.4-3.9-7.1-7c-1.4-2.7-2-5.6-1.8-8.6c0.3-3.6,1.7-6.8,4.2-9.5
				c2.4-2.6,5.2-4.3,8.6-5c5.4-1.1,10.2,0,14.4,3.7c0.3,0.3,0.3,0.4,0,0.7c-0.8,0.8-1.6,1.6-2.4,2.4c-0.3,0.3-0.4,0.4-0.8,0.1
				c-1-0.8-2.1-1.5-3.3-2c-1-0.4-2-0.5-3.1-0.7c-1.9-0.3-3.7,0-5.5,0.7c-3.6,1.4-5.9,4.1-6.9,7.9C4.3,24,5.4,28,8.9,31.2
				c1.9,1.8,4.3,2.8,7,2.9c2.7,0.1,5.1-0.4,7.3-2c2.3-1.6,3.4-3.7,3.9-6.3c0.1-0.5-0.2-0.4-0.5-0.4c-1.2,0-2.5,0-3.7,0
				c-1.8,0-3.7,0-5.5,0c-0.6,0-0.8-0.2-0.8-0.8c0-1,0.1-2,0-2.9c0-0.6,0.2-0.8,0.8-0.8C19.6,21,21.8,20.9,24,20.9z"/>
			<path class="st0" d="M94.3,36.3c-2.8,2.6-5.8,2.9-9.1,1.6c-2.5-1-4.4-2.7-5.5-5.2c-1.6-3.8-1.3-7.6,1.2-11c2-2.7,4.8-4,8.2-3.9
				c1.7,0,3.2,0.5,4.5,1.7c0.2,0.2,0.4,0.3,0.6,0.4c0.1-0.1,0.1-0.1,0.1-0.1c0-1.4,0-1.4,1.4-1.4c0.8,0,1.6,0,2.4,0
				c0.6,0,0.7,0.1,0.7,0.7c0,2.4,0,4.9,0,7.3c0,3.6,0,7.2,0,10.8c0,2.7-0.5,5.3-2.3,7.4c-1.3,1.6-3,2.5-5,3
				c-2.5,0.5-4.9,0.4-7.2-0.8c-2.1-1.1-3.5-2.7-4.5-4.8c-0.1-0.3-0.1-0.3,0.2-0.5c1.1-0.4,2.2-0.9,3.3-1.4c0.5-0.2,0.6,0.1,0.7,0.4
				c1.1,2,2.8,3.2,5.1,3.2c2.9,0,4.9-1.9,5.3-4.8C94.4,38.1,94.4,37.2,94.3,36.3z M89.1,34.4c1.3,0,2.4-0.4,3.3-1.2
				c2.7-2.2,3-6.9,0.6-9.6c-1.8-2-4.6-2.4-6.9-0.9c-1.7,1.1-2.5,2.7-2.8,4.6C82.9,31.1,85.6,34.4,89.1,34.4z"/>
			<path class="st0" d="M33.2,28.1c-0.1-5.7,4.6-10.7,11-10.3c5.4,0.3,10,4.4,9.9,10.5c-0.1,6.1-4.5,10.3-10.6,10.4
				C38,38.7,33.1,34.5,33.2,28.1z M43.6,34.4c0.4,0,0.9,0,1.3-0.1c3.1-0.8,5.1-3.9,4.6-7.1c-0.6-3.2-2.8-5.3-5.8-5.3
				c-3,0-5.2,2.1-5.8,5.3C37.2,30.9,40,34.4,43.6,34.4z"/>
			<path class="st0" d="M56,28.1c-0.1-5.7,4.6-10.7,11-10.3c5.4,0.3,10,4.4,9.9,10.5c-0.1,6.1-4.5,10.3-10.6,10.4
				C60.7,38.7,55.9,34.5,56,28.1z M66.4,34.4c0.4,0,0.8-0.1,1.2-0.1c3.1-0.7,5.1-3.9,4.6-7.1c-0.6-3.3-2.8-5.3-5.9-5.3
				c-2.9,0-5.1,2.1-5.6,5.3C60,30.9,62.8,34.4,66.4,34.4z"/>
			<path class="st0" d="M114,31.4c1.5,3.6,6.1,3.9,8.6,1.7c0.4-0.3,0.8-0.7,1.1-1.1c0.3-0.4,0.5-0.4,0.8-0.1
				c0.9,0.6,1.8,1.2,2.7,1.8c0.4,0.3,0.3,0.5,0.1,0.8c-1.6,1.9-3.5,3.3-6,3.9c-2.5,0.6-5,0.3-7.3-0.9c-2.2-1.1-3.7-2.9-4.6-5.1
				c-0.8-1.8-1-3.6-0.8-5.5c0.2-2.1,0.9-4,2.3-5.7c2.2-2.7,5.1-3.7,8.4-3.4c3.3,0.3,5.7,2.1,7.3,5c0.4,0.8,0.8,1.6,1.1,2.4
				c0.1,0.3,0.1,0.4-0.2,0.6c-4.2,1.7-8.4,3.4-12.6,5.1C114.6,31,114.3,31.2,114,31.4z M113.3,27.8c3-1.2,5.9-2.4,8.8-3.6
				c0.4-0.2,0.4-0.3,0.2-0.6c-0.4-0.6-1-1-1.6-1.3C117.1,20.7,113,23.8,113.3,27.8z"/>
			<path class="st0" d="M106.5,22.6c0,4.8,0,9.7,0,14.5c0,0.7-0.2,0.8-0.8,0.8c-1-0.1-2-0.1-3,0c-0.6,0-0.8-0.1-0.8-0.8
				c0-4.8,0-9.5,0-14.3c0-4.9,0-9.8,0-14.7c0-0.7,0.2-0.9,0.9-0.8c1,0.1,2,0.1,3,0c0.6,0,0.8,0.2,0.8,0.8
				C106.4,12.9,106.5,17.8,106.5,22.6z"/>
		</g>
	</g>
	<g class="st4">
		<g>
			<path class="st2" d="M11.1,57.3c0,0-0.1,0.1-0.1,0.1c0,0-0.1,0-0.2,0c-0.1,0-0.2-0.1-0.3-0.2s-0.3-0.2-0.6-0.4
				c-0.2-0.1-0.5-0.3-0.9-0.4c-0.4-0.1-0.8-0.2-1.3-0.2c-0.7,0-1.4,0.1-1.9,0.4c-0.6,0.3-1,0.6-1.4,1.1c-0.4,0.5-0.7,1.1-0.9,1.7
				c-0.2,0.7-0.3,1.4-0.3,2.3c0,0.9,0.1,1.7,0.3,2.3c0.2,0.7,0.5,1.3,0.9,1.7c0.4,0.5,0.8,0.8,1.4,1.1c0.5,0.2,1.1,0.4,1.8,0.4
				c0.6,0,1.1-0.1,1.5-0.2c0.4-0.1,0.7-0.3,1-0.5s0.5-0.3,0.6-0.5s0.3-0.2,0.4-0.2s0.2,0,0.3,0.1l0.3,0.4c-0.2,0.3-0.4,0.5-0.7,0.7
				c-0.3,0.2-0.6,0.4-1,0.6c-0.4,0.2-0.8,0.3-1.2,0.4s-0.9,0.1-1.4,0.1c-0.8,0-1.5-0.1-2.2-0.4c-0.7-0.3-1.2-0.7-1.7-1.3
				c-0.5-0.5-0.8-1.2-1.1-2c-0.3-0.8-0.4-1.7-0.4-2.7c0-1,0.1-1.8,0.4-2.6c0.3-0.8,0.6-1.5,1.1-2c0.5-0.6,1.1-1,1.8-1.3
				s1.5-0.5,2.4-0.5c0.8,0,1.5,0.1,2.2,0.4c0.6,0.3,1.2,0.6,1.6,1.1L11.1,57.3z"/>
			<path class="st2" d="M14.7,61.3v0.2c0,0.9,0.1,1.8,0.3,2.5s0.5,1.3,0.9,1.8c0.4,0.5,0.9,0.8,1.5,1.1c0.6,0.2,1.2,0.4,1.9,0.4
				c0.6,0,1.2-0.1,1.6-0.2c0.5-0.1,0.8-0.3,1.2-0.5c0.3-0.2,0.6-0.3,0.7-0.5s0.3-0.2,0.4-0.2c0.1,0,0.2,0,0.3,0.1l0.3,0.4
				c-0.2,0.3-0.5,0.5-0.8,0.7c-0.3,0.2-0.7,0.4-1.1,0.6c-0.4,0.2-0.8,0.3-1.3,0.4c-0.5,0.1-0.9,0.1-1.4,0.1c-0.9,0-1.6-0.1-2.3-0.4
				c-0.7-0.3-1.3-0.7-1.8-1.3c-0.5-0.6-0.9-1.3-1.2-2.1c-0.3-0.8-0.4-1.8-0.4-2.8c0-0.9,0.1-1.7,0.4-2.5s0.6-1.4,1.1-2
				c0.5-0.5,1.1-1,1.8-1.3c0.7-0.3,1.5-0.5,2.4-0.5c0.7,0,1.4,0.1,2,0.4c0.6,0.2,1.1,0.6,1.6,1.1c0.4,0.5,0.8,1,1,1.7
				s0.4,1.5,0.4,2.3c0,0.2,0,0.3-0.1,0.4c0,0.1-0.1,0.1-0.3,0.1H14.7z M23,60.6c0-0.7-0.1-1.3-0.3-1.8s-0.5-1-0.8-1.4
				c-0.3-0.4-0.8-0.7-1.2-0.8c-0.5-0.2-1-0.3-1.6-0.3c-0.6,0-1.2,0.1-1.7,0.3c-0.5,0.2-1,0.5-1.3,0.9c-0.4,0.4-0.7,0.8-0.9,1.4
				c-0.2,0.5-0.4,1.1-0.5,1.8H23z"/>
			<path class="st2" d="M28.5,58.6c0.2-0.5,0.4-1,0.7-1.4c0.2-0.4,0.5-0.7,0.9-1s0.7-0.5,1.1-0.6c0.4-0.1,0.8-0.2,1.3-0.2
				c0.3,0,0.5,0,0.8,0.1c0.3,0,0.5,0.1,0.7,0.2l-0.1,0.8c0,0.1-0.1,0.2-0.2,0.2c-0.1,0-0.3,0-0.5-0.1s-0.5-0.1-0.8-0.1
				c-0.5,0-0.9,0.1-1.3,0.2c-0.4,0.1-0.7,0.4-1,0.7c-0.3,0.3-0.6,0.7-0.8,1.1c-0.2,0.4-0.4,0.9-0.6,1.5v8.1h-1.2V55.6H28
				c0.1,0,0.2,0,0.3,0.1s0.1,0.2,0.1,0.3L28.5,58.6z"/>
			<path class="st2" d="M46.6,68.1h-1.2V56.9h-7.2v8.5c0,0.3,0,0.6,0.1,0.9c0.1,0.2,0.2,0.5,0.4,0.6c0.2,0.2,0.3,0.3,0.5,0.4
				c0.2,0.1,0.4,0.1,0.7,0.1c0.3,0,0.6,0,0.8-0.1s0.4-0.2,0.6-0.3c0.2-0.1,0.3-0.2,0.4-0.3s0.2-0.1,0.2-0.1c0.1,0,0.1,0,0.2,0.1
				l0.3,0.5c-0.3,0.4-0.7,0.6-1.2,0.8c-0.5,0.2-1,0.3-1.5,0.3c-0.8,0-1.5-0.2-2-0.7c-0.5-0.5-0.7-1.2-0.7-2.2v-8.5h-1.8
				c-0.1,0-0.2,0-0.2-0.1s-0.1-0.1-0.1-0.2v-0.5L37,56l0.3-4.5c0-0.1,0.1-0.1,0.1-0.2c0-0.1,0.1-0.1,0.2-0.1h0.6V56h8.4V68.1z
				 M47.2,51.1c0,0.2,0,0.3-0.1,0.4c-0.1,0.1-0.1,0.2-0.3,0.3c-0.1,0.1-0.2,0.2-0.4,0.2s-0.3,0.1-0.4,0.1s-0.3,0-0.4-0.1
				c-0.1-0.1-0.3-0.1-0.4-0.2c-0.1-0.1-0.2-0.2-0.2-0.3S45,51.3,45,51.1s0-0.3,0.1-0.4s0.1-0.3,0.2-0.4c0.1-0.1,0.2-0.2,0.4-0.2
				c0.1-0.1,0.3-0.1,0.4-0.1s0.3,0,0.4,0.1c0.1,0.1,0.3,0.1,0.4,0.2s0.2,0.2,0.3,0.4C47.2,50.8,47.2,51,47.2,51.1z"/>
			<path class="st2" d="M51.7,68.1V56.9l-1.8-0.1c-0.2,0-0.4-0.1-0.4-0.3V56h2.1v-1.1c0-0.8,0.1-1.5,0.3-2.1c0.2-0.6,0.6-1.1,1-1.6
				c0.4-0.4,1-0.8,1.6-1c0.6-0.2,1.3-0.3,2.1-0.3c0.3,0,0.6,0,0.8,0.1c0.3,0,0.5,0.1,0.8,0.2l-0.1,0.6c0,0.1,0,0.1-0.1,0.1
				c-0.1,0-0.1,0-0.2,0s-0.2,0-0.4,0c-0.2,0-0.3,0-0.6,0c-1.3,0-2.3,0.3-3.1,1c-0.7,0.7-1.1,1.7-1.1,3.1v1h7.3v12.1H59V56.9h-6.1
				v11.2H51.7z"/>
			<path class="st2" d="M72.8,57.3c0,0-0.1,0.1-0.1,0.1c0,0-0.1,0-0.2,0c-0.1,0-0.2-0.1-0.3-0.2s-0.3-0.2-0.6-0.4
				c-0.2-0.1-0.5-0.3-0.9-0.4c-0.4-0.1-0.8-0.2-1.3-0.2c-0.7,0-1.4,0.1-1.9,0.4c-0.6,0.3-1,0.6-1.4,1.1c-0.4,0.5-0.7,1.1-0.9,1.7
				c-0.2,0.7-0.3,1.4-0.3,2.3c0,0.9,0.1,1.7,0.3,2.3c0.2,0.7,0.5,1.3,0.9,1.7c0.4,0.5,0.8,0.8,1.4,1.1c0.5,0.2,1.1,0.4,1.8,0.4
				c0.6,0,1.1-0.1,1.5-0.2c0.4-0.1,0.7-0.3,1-0.5s0.5-0.3,0.6-0.5s0.3-0.2,0.4-0.2s0.2,0,0.3,0.1l0.3,0.4c-0.2,0.3-0.4,0.5-0.7,0.7
				c-0.3,0.2-0.6,0.4-1,0.6c-0.4,0.2-0.8,0.3-1.2,0.4s-0.9,0.1-1.4,0.1c-0.8,0-1.5-0.1-2.2-0.4c-0.7-0.3-1.2-0.7-1.7-1.3
				c-0.5-0.5-0.8-1.2-1.1-2c-0.3-0.8-0.4-1.7-0.4-2.7c0-1,0.1-1.8,0.4-2.6c0.3-0.8,0.6-1.5,1.1-2c0.5-0.6,1.1-1,1.8-1.3
				s1.5-0.5,2.4-0.5c0.8,0,1.5,0.1,2.2,0.4c0.6,0.3,1.2,0.6,1.6,1.1L72.8,57.3z"/>
			<path class="st2" d="M75.9,57.4c0.7-0.7,1.3-1.1,2.1-1.5c0.7-0.3,1.5-0.5,2.4-0.5c0.7,0,1.3,0.1,1.8,0.3c0.5,0.2,0.9,0.5,1.3,0.9
				s0.6,0.9,0.7,1.4c0.2,0.6,0.3,1.2,0.3,1.9v8.1H84c-0.3,0-0.4-0.1-0.5-0.4l-0.2-1.6c-0.3,0.3-0.7,0.6-1,0.9
				c-0.3,0.3-0.7,0.5-1.1,0.7c-0.4,0.2-0.8,0.3-1.2,0.4c-0.4,0.1-0.9,0.2-1.4,0.2c-0.4,0-0.8-0.1-1.2-0.2c-0.4-0.1-0.8-0.3-1.1-0.6
				c-0.3-0.3-0.6-0.6-0.8-1s-0.3-0.9-0.3-1.5c0-0.5,0.2-1,0.5-1.5c0.3-0.5,0.8-0.8,1.4-1.2s1.5-0.6,2.5-0.8c1-0.2,2.2-0.3,3.6-0.4
				v-1.3c0-1.2-0.2-2-0.7-2.7c-0.5-0.6-1.2-0.9-2.2-0.9c-0.6,0-1.1,0.1-1.5,0.3s-0.8,0.4-1.1,0.6s-0.5,0.4-0.7,0.6
				c-0.2,0.2-0.3,0.3-0.5,0.3c-0.1,0-0.2,0-0.2-0.1s-0.1-0.1-0.2-0.2L75.9,57.4z M83.3,62c-1.2,0-2.2,0.1-3.1,0.3
				c-0.9,0.1-1.6,0.3-2.1,0.6c-0.6,0.3-1,0.6-1.2,0.9c-0.3,0.3-0.4,0.7-0.4,1.2c0,0.4,0.1,0.8,0.2,1.1c0.1,0.3,0.3,0.6,0.6,0.8
				s0.5,0.3,0.8,0.4c0.3,0.1,0.6,0.1,0.9,0.1c0.5,0,0.9-0.1,1.3-0.2c0.4-0.1,0.8-0.3,1.1-0.4c0.3-0.2,0.7-0.4,1-0.7
				c0.3-0.3,0.6-0.5,0.9-0.8V62z"/>
			<path class="st2" d="M98.7,68.1h-1.2V56.9h-7.2v8.5c0,0.3,0,0.6,0.1,0.9c0.1,0.2,0.2,0.5,0.4,0.6c0.2,0.2,0.3,0.3,0.5,0.4
				c0.2,0.1,0.4,0.1,0.7,0.1c0.3,0,0.6,0,0.8-0.1s0.4-0.2,0.6-0.3c0.2-0.1,0.3-0.2,0.4-0.3s0.2-0.1,0.2-0.1c0.1,0,0.1,0,0.2,0.1
				l0.3,0.5c-0.3,0.4-0.7,0.6-1.2,0.8c-0.5,0.2-1,0.3-1.5,0.3c-0.8,0-1.5-0.2-2-0.7c-0.5-0.5-0.7-1.2-0.7-2.2v-8.5h-1.8
				c-0.1,0-0.2,0-0.2-0.1s-0.1-0.1-0.1-0.2v-0.5L89,56l0.3-4.5c0-0.1,0.1-0.1,0.1-0.2c0-0.1,0.1-0.1,0.2-0.1h0.6V56h8.4V68.1z
				 M99.2,51.1c0,0.2,0,0.3-0.1,0.4c-0.1,0.1-0.1,0.2-0.3,0.3c-0.1,0.1-0.2,0.2-0.4,0.2s-0.3,0.1-0.4,0.1s-0.3,0-0.4-0.1
				c-0.1-0.1-0.3-0.1-0.4-0.2c-0.1-0.1-0.2-0.2-0.2-0.3S97,51.3,97,51.1s0-0.3,0.1-0.4s0.1-0.3,0.2-0.4c0.1-0.1,0.2-0.2,0.4-0.2
				c0.1-0.1,0.3-0.1,0.4-0.1s0.3,0,0.4,0.1c0.1,0.1,0.3,0.1,0.4,0.2s0.2,0.2,0.3,0.4C99.2,50.8,99.2,51,99.2,51.1z"/>
			<path class="st2" d="M107.9,55.4c0.9,0,1.7,0.2,2.4,0.5c0.7,0.3,1.3,0.7,1.8,1.3s0.9,1.2,1.1,2c0.3,0.8,0.4,1.7,0.4,2.7
				s-0.1,1.9-0.4,2.7c-0.3,0.8-0.6,1.5-1.1,2c-0.5,0.6-1.1,1-1.8,1.3c-0.7,0.3-1.5,0.5-2.4,0.5c-0.9,0-1.7-0.2-2.4-0.5
				c-0.7-0.3-1.3-0.7-1.8-1.3c-0.5-0.6-0.9-1.2-1.1-2c-0.3-0.8-0.4-1.7-0.4-2.7s0.1-1.9,0.4-2.7s0.6-1.5,1.1-2s1.1-1,1.8-1.3
				C106.2,55.5,107,55.4,107.9,55.4z M107.9,67.3c0.7,0,1.4-0.1,2-0.4c0.6-0.3,1-0.6,1.4-1.1c0.4-0.5,0.7-1.1,0.8-1.7
				s0.3-1.4,0.3-2.3c0-0.8-0.1-1.6-0.3-2.3c-0.2-0.7-0.5-1.3-0.8-1.7c-0.4-0.5-0.8-0.9-1.4-1.1c-0.6-0.3-1.2-0.4-2-0.4
				c-0.7,0-1.4,0.1-2,0.4c-0.6,0.3-1,0.6-1.4,1.1c-0.4,0.5-0.7,1.1-0.8,1.7c-0.2,0.7-0.3,1.4-0.3,2.3c0,0.8,0.1,1.6,0.3,2.3
				s0.5,1.3,0.8,1.7c0.4,0.5,0.8,0.8,1.4,1.1C106.5,67.2,107.1,67.3,107.9,67.3z"/>
			<path class="st2" d="M118.1,57.8c0.6-0.7,1.2-1.3,2-1.7c0.8-0.4,1.6-0.7,2.5-0.7c0.7,0,1.3,0.1,1.8,0.3c0.5,0.2,1,0.5,1.3,0.9
				c0.3,0.4,0.6,0.9,0.8,1.5c0.2,0.6,0.3,1.2,0.3,2v8h-1.2v-8c0-1.2-0.3-2.1-0.8-2.8c-0.5-0.7-1.4-1-2.4-1c-0.8,0-1.6,0.2-2.3,0.6
				c-0.7,0.4-1.3,1-1.9,1.7v9.4h-1.2V55.6h0.7c0.2,0,0.3,0.1,0.4,0.3L118.1,57.8z"/>
		</g>
	</g>
</g>
</svg>
