<?xml version="1.0" encoding="utf-8"?>
<!-- Generator: Adobe Illustrator 22.0.0, SVG Export Plug-In . SVG Version: 6.00 Build 0)  -->
<svg version="1.1" id="Layer_1" xmlns="http://www.w3.org/2000/svg" xmlns:xlink="http://www.w3.org/1999/xlink" x="0px" y="0px"
	 viewBox="0 0 298.3 343" style="enable-background:new 0 0 298.3 343;" xml:space="preserve">
<style type="text/css">
	.st0{fill:url(#SVGID_1_);}
	.st1{opacity:0.64;}
	.st2{fill:url(#SVGID_2_);}
	.st3{fill:#D3915B;}
</style>
<g>
	<g>
		<g>
			<linearGradient id="SVGID_1_" gradientUnits="userSpaceOnUse" x1="0.869" y1="171.5158" x2="298.0769" y2="171.5158">
				<stop  offset="0" style="stop-color:#252B35"/>
				<stop  offset="1" style="stop-color:#252B35"/>
			</linearGradient>
			<path class="st0" d="M152.3,341.9c-1.8,0.9-3.9,0.9-5.7,0l-2.3-1.2c-8.9-4.5-18-7.4-26.8-11.5C63.4,303.5,7.4,269.7,0.9,205.7
				l-0.1-1.2V70.4c0-1.4,0.8-2.7,2.1-3.3L147.1,0.9c1.5-0.7,3.3-0.7,4.8,0L296,67.1c1.3,0.6,2.1,1.9,2.1,3.3L298,205.7
				c-6.5,64-62.5,97.8-116.6,123.5c-8.8,4.2-17.9,7.1-26.8,11.5L152.3,341.9z M23.8,204c5.5,50.8,51,79.6,103.6,104.6
				c6.4,3.1,13,4.8,19.6,8c1.6,0.8,3.4,0.8,5,0c6.6-3.2,13.2-4.9,19.6-8c52.7-25.1,98.2-53.9,103.6-104.6V85.1
				c0-1.4-0.8-2.7-2.1-3.3L151,25.7c-1-0.4-2.1-0.4-3,0l-122.1,56c-1.3,0.6-2.1,1.9-2.1,3.3V204z"/>
		</g>
	</g>
	<g class="st1">
		<g>
			<linearGradient id="SVGID_2_" gradientUnits="userSpaceOnUse" x1="64.0505" y1="-25.6925" x2="272.0845" y2="391.8152">
				<stop  offset="0" style="stop-color:#252B35"/>
				<stop  offset="1" style="stop-color:#2E2529"/>
			</linearGradient>
			<path class="st2" d="M152.3,341.9c-1.8,0.9-3.9,0.9-5.7,0l-2.3-1.2c-8.9-4.5-18-7.4-26.8-11.5C63.4,303.5,7.4,269.7,0.9,205.7
				l-0.1-1.2V70.4c0-1.4,0.8-2.7,2.1-3.3L147,0.9c1.5-0.7,3.3-0.7,4.8,0l144.1,66.1c1.3,0.6,2.1,1.9,2.1,3.3L298,205.7
				c-6.5,64-62.5,97.8-116.6,123.5c-8.8,4.2-17.9,7.1-26.8,11.5L152.3,341.9z M23.7,204c5.5,50.8,51,79.6,103.6,104.6
				c6.4,3.1,13,4.8,19.6,8c1.6,0.8,3.4,0.8,5,0c6.6-3.2,13.2-4.9,19.6-8c52.7-25.1,98.2-53.9,103.6-104.6V85.1
				c0-1.4-0.8-2.7-2.1-3.3l-122.1-56c-1-0.4-2.1-0.4-3,0l-122.1,56c-1.3,0.6-2.1,1.9-2.1,3.3V204z"/>
		</g>
	</g>
	<path class="st3" d="M92.4,181.2l35.2,35.2c3.1,3.1,7.6,4.2,11.8,3c1.9-0.6,3.6-1.6,5-3l59-59c4.6-4.6,4.6-12.2,0-16.8
		c-2.2-2.2-5.2-3.5-8.4-3.5c-3.2,0-6.2,1.2-8.4,3.5L136,191.2l-26.8-26.8c-2.3-2.3-5.4-3.5-8.4-3.5c-3,0-6.1,1.2-8.4,3.5
		C87.8,169,87.8,176.5,92.4,181.2z"/>
</g>
</svg>
