<?xml version="1.0" encoding="utf-8"?>
<!-- Generator: Adobe Illustrator 21.0.0, SVG Export Plug-In . SVG Version: 6.00 Build 0)  -->
<svg version="1.1" id="Layer_1" xmlns="http://www.w3.org/2000/svg" xmlns:xlink="http://www.w3.org/1999/xlink" x="0px" y="0px"
	 viewBox="0 0 37.9 38.2" style="enable-background:new 0 0 37.9 38.2;" xml:space="preserve">
<style type="text/css">
	.st0{opacity:0.4;fill:#2D2B2D;}
	.st1{fill:#2D2B2D;}
	.st2{fill:#CD915A;}
</style>
<circle class="st0" cx="18.8" cy="19" r="18.5"/>
<circle class="st1" cx="18.8" cy="19.1" r="13.2"/>
<g>
	<g>
		<path class="st2" d="M17.8,26.2v-0.8c0-0.3-0.2-0.5-0.5-0.5c-0.9-0.1-1.7-0.3-2.3-0.6c-0.2-0.1-0.4-0.4-0.3-0.6l0.3-1.2
			c0.1-0.3,0.4-0.5,0.7-0.3c0.7,0.3,1.6,0.6,2.6,0.6c1.1,0,1.8-0.4,1.8-1.2c0-0.7-0.6-1.2-2-1.6c-2-0.7-3.4-1.6-3.4-3.4
			c0-1.5,1-2.8,2.8-3.3c0.2-0.1,0.4-0.3,0.4-0.5v-0.9c0-0.3,0.2-0.5,0.5-0.5h0.8c0.3,0,0.5,0.2,0.5,0.5v0.7c0,0.3,0.2,0.5,0.5,0.5
			c0.8,0.1,1.3,0.2,1.8,0.4c0.2,0.1,0.4,0.4,0.3,0.6l-0.3,1.1c-0.1,0.3-0.4,0.5-0.7,0.4c-0.5-0.2-1.2-0.4-2.2-0.4
			c-1.2,0-1.6,0.5-1.6,1.1c0,0.6,0.7,1,2.3,1.6c2.2,0.8,3.1,1.8,3.1,3.5c0,1.6-1,2.9-2.9,3.4c-0.2,0.1-0.4,0.3-0.4,0.5v1
			c0,0.3-0.2,0.5-0.5,0.5h-0.8C18.1,26.8,17.8,26.5,17.8,26.2z"/>
	</g>
</g>
</svg>
