<?xml version="1.0" encoding="utf-8"?>
<!-- Generator: Adobe Illustrator 21.0.0, SVG Export Plug-In . SVG Version: 6.00 Build 0)  -->
<svg version="1.1" id="Layer_1" xmlns="http://www.w3.org/2000/svg" xmlns:xlink="http://www.w3.org/1999/xlink" x="0px" y="0px"
	 viewBox="0 0 296 94" style="enable-background:new 0 0 296 94;" xml:space="preserve">
<style type="text/css">
	.st0{fill:#818797;}
</style>
<g>
	<path class="st0" d="M105.6,52.5c-2.6-1.4-3.7-2.6-3.7-4c0-2,1.7-3.1,4.6-3.1c3.1,0,5.9,1.4,5.9,1.4l2.2-6.8c0,0-2-1.7-7.9-1.7
		c-8.4,0-14.1,4.8-14.1,11.6c0,4,2.8,6.8,6.2,8.8c2.8,1.7,4,2.8,4,4.6c0,1.8-1.4,3.4-4.2,3.4c-4,0-7.9-2-7.9-2l-2.2,6.8
		c0,0,3.4,2.2,9.3,2.2c8.4,0,14.7-4.2,14.7-11.9C112.4,57.6,109.3,54.5,105.6,52.5 M139.8,38.1c-4.2,0-7.7,2-10.2,5.1l0,0l3.7-19.2
		h-9.7l-9.3,48.9h9.7l3.1-16.7c1.1-6.2,4.6-10.2,7.7-10.2c2.2,0,3.1,1.4,3.1,3.7c0,1.4,0,2.8-0.3,4.2l-3.7,19.2h9.7l3.7-19.8
		c0.3-2,0.6-4.6,0.6-6.2C147.7,41.5,145,38.1,139.8,38.1 M164.5,66.1c-3.4,0-4.6-2.8-4.6-6.2c0-5.3,2.8-14.4,7.9-14.4
		c3.4,0,4.6,2.8,4.6,5.7C172.4,57.3,169.5,66.1,164.5,66.1z M169.3,38.1c-11.6,0-19.2,10.4-19.2,22.1c0,7.3,4.6,13.3,13.3,13.3
		c11.3,0,19-10.2,19-22.1C182.3,44.6,178.3,38.1,169.3,38.1z M197.6,66.4c-2.6,0-4-1.4-4-1.4l1.7-9c1.1-5.9,4.2-9.9,7.7-9.9
		c2.8,0,4,2.8,4,5.3C206.6,57.6,203,66.4,197.6,66.4z M207,38.1c-6.6,0-10.2,5.7-10.2,5.7l0,0l0.6-5.1h-8.4c-0.3,3.4-1.1,8.8-2,12.8
		l-6.8,35.1h9.7l2.6-14.1h0.3c0,0,2,1.1,5.7,1.1c11.3,0,18.7-11.6,18.7-23.2C216.9,44.1,214,38.1,207,38.1z M230.4,24.5
		c-3.1,0-5.3,2.6-5.3,5.7c0,2.8,1.7,4.8,4.6,4.8l0,0c3.1,0,5.7-2,5.7-5.7C235.2,26.5,233.2,24.5,230.4,24.5 M217.1,72.8h9.7l6.6-34
		h-9.7L217.1,72.8z M257.5,38.9h-6.8l0.3-1.7c0.6-3.4,2.6-6.2,5.7-6.2c1.7,0,3.1,0.6,3.1,0.6l2-7.7c0,0-1.7-0.9-5.1-0.9
		c-3.4,0-6.8,0.9-9.3,3.1c-3.4,2.8-4.8,6.8-5.7,10.8l-0.3,1.7h-4.6l-1.4,7.3h4.6l-5.1,26.9h9.7l5.1-26.9h6.6L257.5,38.9z
		 M280.4,38.9c0,0-5.9,15-8.8,23.2l0,0c-0.3-2.6-2.2-23.2-2.2-23.2h-10.2l5.7,31.1c0,0.6,0,1.1-0.3,1.7c-1.1,2.2-3.1,4.2-5.1,5.7
		c-1.7,1.4-4,2.2-5.3,2.8l2.6,8.2c2-0.3,5.9-2,9.3-5.1c4.2-4,8.4-10.4,12.4-19L290,39.1L280.4,38.9z"/>
	<g>
		<g>
			<path class="st0" d="M53.8,86.2l23.2-5.1c0,0-8.4-57.7-8.4-58.2c0-0.3-0.3-0.6-0.6-0.6c-0.6,0-6.6-0.6-6.6-0.6s-2.9-2.9-4.2-4
				L53.8,86.2z"/>
			<path class="st0" d="M56.2,16.8c-0.4-0.1-1,0-1.2,0c0,0-0.9,0.3-2.2,0.9c-1.4-4-4-7.7-8.2-7.7h-0.3c-1.1-1.7-2.8-2.2-4.2-2.2
				c-10.2-0.3-15,12.4-16.7,19c-2.2,0.6-4.6,1.4-7.1,2.2c-2.2,0.6-2.2,0.9-2.6,2.8C13.4,33.3,7.7,78,7.7,78l44.9,8.4L56.2,16.8z
				 M43.9,19.9c0,0.3,0,0.3,0,0.6l-8.2,2.2c1.7-5.9,4.6-8.4,7.1-9.7C43.4,14.8,43.9,16.8,43.9,19.9z M39.7,10.4
				c0.6,0,0.9,0.3,1.4,0.6c-3.4,1.4-6.8,5.1-8.4,13l-6.2,1.7C28.4,19.9,32.4,10.4,39.7,10.4z M41.4,44.8c0,0-2.6-1.4-5.9-1.4
				c-4.8,0-5.1,2.8-5.1,3.7c0,4,10.8,5.7,10.8,15.2c0,7.7-4.8,12.4-11.3,12.4c-7.7,0-11.6-4.8-11.6-4.8l2-6.8c0,0,4,3.4,7.3,3.4
				c2.2,0,3.1-1.7,3.1-3.1c0-5.3-8.8-5.7-8.8-14.4c0-7.3,5.3-14.4,15.9-14.4c4.8-0.3,6.8,1.1,6.8,1.1L41.4,44.8z M45.6,12.3
				c2,0.6,3.7,3.1,4.6,5.9l-3.7,1.1c0-0.3,0-0.6,0-0.9C46.5,16,46.2,14,45.6,12.3z"/>
		</g>
	</g>
</g>
</svg>
