<?xml version="1.0" encoding="utf-8"?>
<!-- Generator: Adobe Illustrator 22.0.0, SVG Export Plug-In . SVG Version: 6.00 Build 0)  -->
<svg version="1.1" xmlns="http://www.w3.org/2000/svg" xmlns:xlink="http://www.w3.org/1999/xlink" x="0px" y="0px"
	 viewBox="0 0 20.3 28.5" style="enable-background:new 0 0 20.3 28.5;" xml:space="preserve">
<style type="text/css">
	.st0{display:none;}
	.st1{display:inline;fill:#818897;}
	.st2{display:inline;}
	.st3{fill:#818897;}
</style>
<g id="Layer_1" class="st0">
	<path class="st1" d="M8.8,28.5H3V14.3H0.1V9.5H3v-3c0-4,1.7-6.3,6.3-6.3h3.9V5h-2.5c-1.8,0-2,0.7-2,2v2.5h4.4l-0.5,4.8H8.7
		L8.8,28.5L8.8,28.5z"/>
	<g class="st2">
		<path class="st3" d="M14,10.6c0.5-0.8,1.1-1.4,1.9-1.8C16.8,8.3,17.7,8,18.8,8c1.1,0,2.1,0.1,3.1,0.5c1.5,0.6,2.4,1.7,2.9,3.2
			c0.3,1.1,0.5,2.2,0.5,3.3c0,1.4,0,2.7,0,4.1c0,2,0,3.9,0,5.9c0,0.3,0,0.3-0.3,0.3c-1.6,0-3.1,0-4.7,0c-0.3,0-0.3,0-0.3-0.3
			c0-2.9,0-5.7,0-8.6c0-0.6-0.1-1.2-0.2-1.8c-0.4-1.4-1.3-1.9-2.7-1.8c-0.6,0-1.2,0.2-1.7,0.6c-0.6,0.5-0.9,1.2-1,2
			c-0.1,0.6-0.1,1.1-0.1,1.7c0,2.7,0,5.3,0,8c0,0.3,0,0.3-0.3,0.3c-1.5,0-3.1,0-4.6,0c-0.3,0-0.3,0-0.3-0.3c0-5.4,0-10.8,0-16.2
			c0-0.3,0-0.3,0.4-0.3c1.5,0,2.9,0,4.4,0c0.4,0,0.4,0,0.4,0.4C14,9.4,14,10,14,10.6z"/>
		<path class="st3" d="M0.4,16.8c0-2.7,0-5.4,0-8.1c0-0.4,0-0.4,0.4-0.4c1.5,0,3,0,4.6,0c0.3,0,0.3,0,0.3,0.3c0,5.4,0,10.8,0,16.2
			c0,0.2-0.1,0.3-0.3,0.3c-1.6,0-3.1,0-4.7,0c-0.3,0-0.3-0.1-0.3-0.3C0.4,22.2,0.4,19.5,0.4,16.8z"/>
		<path class="st3" d="M3.1,6.2C1.4,6.2,0,4.7,0,3.1C0,1.4,1.5,0,3.1,0c1.6,0,3,1.3,3,3.1C6.2,4.8,4.7,6.2,3.1,6.2z"/>
	</g>
</g>
<g id="Layer_2">
	<path class="st3" d="M18.7,11.8L4.3,4.2C2.4,3.2,0,4.6,0,6.8v15.1c0,2.2,2.3,3.6,4.3,2.6l14.4-7.5C20.8,15.9,20.8,12.9,18.7,11.8z"
		/>
</g>
</svg>
