<?xml version="1.0" encoding="utf-8"?>
<!-- Generator: Adobe Illustrator 21.0.0, SVG Export Plug-In . SVG Version: 6.00 Build 0)  -->
<svg version="1.1" xmlns="http://www.w3.org/2000/svg" xmlns:xlink="http://www.w3.org/1999/xlink" x="0px" y="0px"
	 viewBox="0 0 120 18.8" style="enable-background:new 0 0 120 18.8;" xml:space="preserve">
<style type="text/css">
	.st0{fill:#13B077;}
</style>
<g id="Layer_2">
</g>
<g id="Layer_1">
	<g transform="translate(40 400)">
		<g>
			<path class="st0" d="M-24.2-381.5c-0.1,0-0.2,0-0.3-0.1l-5.7-3.1l-5.7,3.1c-0.2,0.1-0.4,0.1-0.6,0c-0.2-0.1-0.3-0.3-0.2-0.5
				l1-6.2l-4.1-4.1c-0.1-0.1-0.2-0.4-0.1-0.5c0.1-0.2,0.2-0.3,0.4-0.4l6.2-1l2.6-5.2c0.1-0.2,0.3-0.3,0.5-0.3s0.4,0.1,0.5,0.3
				l2.6,5.2l6.2,1c0.2,0,0.4,0.2,0.4,0.4c0.1,0.2,0,0.4-0.1,0.5l-4.1,4.1l1,6.2c0,0.2-0.1,0.4-0.2,0.5
				C-24-381.5-24.1-381.5-24.2-381.5z"/>
		</g>
	</g>
	<g transform="translate(40 400)">
		<g>
			<path class="st0" d="M0.9-381.5c-0.1,0-0.2,0-0.3-0.1l-5.7-3.1l-5.7,3.1c-0.2,0.1-0.4,0.1-0.6,0c-0.2-0.1-0.3-0.3-0.2-0.5l1-6.2
				l-4.1-4.1c-0.1-0.1-0.2-0.4-0.1-0.5c0.1-0.2,0.2-0.3,0.4-0.4l6.2-1l2.6-5.2c0.1-0.2,0.3-0.3,0.5-0.3s0.4,0.1,0.5,0.3l2.6,5.2
				l6.2,1c0.2,0,0.4,0.2,0.4,0.4c0.1,0.2,0,0.4-0.1,0.5l-4.1,4.1l1,6.2c0,0.2-0.1,0.4-0.2,0.5S1-381.5,0.9-381.5z"/>
		</g>
	</g>
	<g transform="translate(40 400)">
		<g>
			<path class="st0" d="M26-381.5c-0.1,0-0.2,0-0.3-0.1l-5.7-3.1l-5.7,3.1c-0.2,0.1-0.4,0.1-0.6,0c-0.2-0.1-0.3-0.3-0.2-0.5l1-6.2
				l-4.1-4.1c-0.1-0.1-0.2-0.4-0.1-0.5c0.1-0.2,0.2-0.3,0.4-0.4l6.2-1l2.6-5.2c0.1-0.2,0.3-0.3,0.5-0.3s0.4,0.1,0.5,0.3l2.6,5.2
				l6.2,1c0.2,0,0.4,0.2,0.4,0.4c0.1,0.2,0,0.4-0.1,0.5l-4.1,4.1l1,6.2c0,0.2-0.1,0.4-0.2,0.5C26.2-381.5,26.1-381.5,26-381.5z"/>
		</g>
	</g>
	<g transform="translate(40 400)">
		<g>
			<path class="st0" d="M51.1-381.5c-0.1,0-0.2,0-0.3-0.1l-5.7-3.1l-5.7,3.1c-0.2,0.1-0.4,0.1-0.6,0c-0.2-0.1-0.3-0.3-0.2-0.5l1-6.2
				l-4.1-4.1c-0.1-0.1-0.2-0.4-0.1-0.5c0.1-0.2,0.2-0.3,0.4-0.4l6.2-1l2.6-5.2c0.1-0.2,0.3-0.3,0.5-0.3s0.4,0.1,0.5,0.3l2.6,5.2
				l6.2,1c0.2,0,0.4,0.2,0.4,0.4c0.1,0.2,0,0.4-0.1,0.5l-4.1,4.1l1,6.2c0,0.2-0.1,0.4-0.2,0.5C51.3-381.5,51.2-381.5,51.1-381.5z"/>
		</g>
	</g>
	<g transform="translate(40 400)">
		<g>
			<path class="st0" d="M76.2-381.5c-0.1,0-0.2,0-0.3-0.1l-5.7-3.1l-5.7,3.1c-0.2,0.1-0.4,0.1-0.6,0c-0.2-0.1-0.3-0.3-0.2-0.5l1-6.2
				l-4.1-4.1c-0.1-0.1-0.2-0.4-0.1-0.5c0.1-0.2,0.2-0.3,0.4-0.4l6.2-1l2.6-5.2c0.1-0.2,0.3-0.3,0.5-0.3s0.4,0.1,0.5,0.3l2.6,5.2
				l6.2,1c0.2,0,0.4,0.2,0.4,0.4c0.1,0.2,0,0.4-0.1,0.5l-4.1,4.1l1,6.2c0,0.2-0.1,0.4-0.2,0.5S76.3-381.5,76.2-381.5z"/>
		</g>
	</g>
</g>
</svg>
