<?xml version="1.0" encoding="utf-8"?>
<!-- Generator: Adobe Illustrator 21.0.0, SVG Export Plug-In . SVG Version: 6.00 Build 0)  -->
<svg version="1.1" id="Layer_1" xmlns="http://www.w3.org/2000/svg" xmlns:xlink="http://www.w3.org/1999/xlink" x="0px" y="0px"
	 viewBox="0 0 91.8 46.8" style="enable-background:new 0 0 91.8 46.8;" xml:space="preserve">
<style type="text/css">
	.st0{fill:#828999;}
</style>
<g>
	<g>
		<g>
			<path class="st0" d="M76.1,0.9c-0.5,0-1.2,0-1.8,0.1l-3.2,5.6c1.4-0.9,3.2-1.3,5-1.3c5.7,0,10.4,4.7,10.4,10.4
				s-4.7,10.4-10.4,10.4c-5.7,0-10.3-4.6-10.4-10.3l-3.3,5.6c2.2,5.4,7.6,9,13.6,9c8.1,0,14.8-6.7,14.8-14.8
				C90.9,7.5,84.1,0.9,76.1,0.9z"/>
			<path class="st0" d="M31.3,16.3l2.5-4.4l5.7,9.7l6.6-11.2l6.6,11.2L63.9,2.5c0.5-1,1.7-1.7,2.8-1.7H70L52.7,30.3l-6.6-11.2
				l-6.6,11.2L31.3,16.3L31.3,16.3z"/>
			<path class="st0" d="M36,0.9L18.7,30.4L1.5,0.9h3.2c1.2,0,2.3,0.6,2.8,1.7l11.2,19.2L29.9,2.6c0.5-1,1.7-1.7,2.8-1.7
				C32.8,0.9,36,0.9,36,0.9z"/>
		</g>
		<g>
			<path class="st0" d="M12,42.7V46H9.7V36h3.5c0.7,0,1.3,0.1,1.8,0.2c0.5,0.2,0.9,0.4,1.2,0.7c0.4,0.3,0.6,0.6,0.7,1.1
				c0.2,0.4,0.2,0.8,0.2,1.3c0,0.5-0.1,0.9-0.2,1.4c-0.2,0.4-0.4,0.8-0.7,1.1c-0.4,0.3-0.8,0.5-1.2,0.7c-0.5,0.2-1.1,0.2-1.8,0.2
				C13.3,42.7,12,42.7,12,42.7z M12,40.9h1.2c0.6,0,1.1-0.1,1.3-0.4s0.4-0.7,0.4-1.2c0-0.2-0.1-0.4-0.1-0.6
				c-0.1-0.2-0.2-0.4-0.3-0.5c-0.1-0.1-0.3-0.2-0.5-0.3s-0.5-0.1-0.8-0.1H12V40.9z"/>
			<path class="st0" d="M28,46h-1.8c-0.2,0-0.4-0.1-0.5-0.1c-0.1-0.1-0.2-0.2-0.3-0.4l-0.6-1.7h-3.8l-0.6,1.7
				c-0.1,0.1-0.1,0.2-0.3,0.4c-0.1,0.1-0.3,0.2-0.5,0.2h-1.8l3.8-10h2.4L28,46z M21.5,42.2h2.7l-0.9-2.7c-0.1-0.2-0.1-0.4-0.2-0.6
				c-0.1-0.2-0.2-0.5-0.2-0.8c-0.1,0.3-0.2,0.5-0.2,0.8c-0.1,0.2-0.2,0.5-0.2,0.6L21.5,42.2z"/>
			<path class="st0" d="M32.5,42.3V46h-2.3V36h3.2c0.7,0,1.4,0.1,1.8,0.2c0.5,0.2,0.9,0.4,1.2,0.6c0.3,0.2,0.5,0.6,0.7,0.9
				c0.1,0.4,0.2,0.8,0.2,1.2c0,0.4-0.1,0.6-0.1,0.9c-0.1,0.3-0.2,0.5-0.4,0.8c-0.2,0.2-0.4,0.5-0.6,0.6c-0.2,0.2-0.5,0.4-0.9,0.5
				c0.2,0.1,0.3,0.2,0.4,0.3c0.1,0.1,0.2,0.2,0.4,0.4l2.1,3.5h-2.1c-0.4,0-0.6-0.1-0.8-0.4l-1.7-2.9c-0.1-0.1-0.2-0.2-0.2-0.3
				c-0.1-0.1-0.2-0.1-0.4-0.1h-0.5V42.3z M32.5,40.7h0.9c0.3,0,0.6-0.1,0.8-0.1c0.2-0.1,0.4-0.2,0.5-0.4c0.1-0.1,0.2-0.3,0.3-0.5
				c0.1-0.2,0.1-0.4,0.1-0.6c0-0.4-0.1-0.8-0.4-1c-0.3-0.2-0.7-0.4-1.3-0.4h-1V40.7z"/>
			<path class="st0" d="M47.5,36v1.8h-2.8V46h-2.3v-8.2h-2.8V36H47.5z"/>
			<path class="st0" d="M51.3,36.1c0.1,0,0.1,0,0.2,0.1c0.1,0,0.1,0.1,0.2,0.1c0.1,0.1,0.1,0.1,0.2,0.2l4.7,6c0-0.2-0.1-0.4-0.1-0.5
				s0-0.4,0-0.5v-5.3h2.1v10h-1.2c-0.2,0-0.4,0-0.5-0.1s-0.2-0.2-0.4-0.3l-4.7-6c0,0.2,0,0.4,0.1,0.5c0,0.2,0,0.3,0,0.5v5.4h-2.1V36
				h1.2C51.1,36,51.2,36,51.3,36.1z"/>
			<path class="st0" d="M68,36v1.8h-4.1v2.3h3.1v1.7h-3.1v2.4H68v1.8h-6.4V36H68z"/>
			<path class="st0" d="M73,42.3V46h-2.3V36h3.2c0.7,0,1.4,0.1,1.8,0.2c0.5,0.2,0.9,0.4,1.2,0.6c0.3,0.2,0.5,0.6,0.7,0.9
				c0.1,0.4,0.2,0.8,0.2,1.2c0,0.4-0.1,0.6-0.1,0.9c-0.1,0.3-0.2,0.5-0.4,0.8c-0.2,0.2-0.4,0.5-0.6,0.6c-0.2,0.2-0.5,0.4-0.9,0.5
				c0.2,0.1,0.3,0.2,0.4,0.3c0.1,0.1,0.2,0.2,0.4,0.4l2.1,3.5h-2c-0.4,0-0.6-0.1-0.8-0.4l-1.7-2.9c-0.1-0.1-0.2-0.2-0.2-0.3
				c-0.1-0.1-0.2-0.1-0.4-0.1H73V42.3z M73,40.7h0.9c0.3,0,0.6-0.1,0.8-0.1c0.2-0.1,0.4-0.2,0.5-0.4c0.1-0.1,0.2-0.3,0.3-0.5
				c0.1-0.2,0.1-0.4,0.1-0.6c0-0.4-0.1-0.8-0.4-1C75,38,74.6,37.8,74,37.8H73L73,40.7L73,40.7z"/>
			<path class="st0" d="M86.7,38.1c-0.1,0.1-0.1,0.2-0.2,0.2c-0.1,0.1-0.2,0.1-0.3,0.1s-0.2-0.1-0.4-0.1c-0.1-0.1-0.2-0.1-0.4-0.2
				c-0.2-0.1-0.4-0.2-0.5-0.2c-0.2-0.1-0.4-0.1-0.6-0.1c-0.4,0-0.8,0.1-0.9,0.3c-0.2,0.2-0.3,0.4-0.3,0.8c0,0.2,0.1,0.4,0.2,0.5
				c0.1,0.1,0.3,0.2,0.5,0.4c0.2,0.1,0.5,0.2,0.7,0.2c0.2,0.1,0.5,0.2,0.8,0.3c0.3,0.1,0.5,0.2,0.8,0.4c0.3,0.1,0.5,0.3,0.7,0.5
				c0.2,0.2,0.4,0.5,0.5,0.8c0.1,0.3,0.2,0.6,0.2,1.1c0,0.5-0.1,0.9-0.2,1.3c-0.2,0.4-0.4,0.8-0.7,1.1c-0.3,0.3-0.6,0.5-1.1,0.7
				c-0.5,0.2-0.9,0.2-1.5,0.2c-0.3,0-0.6-0.1-0.9-0.1c-0.3-0.1-0.6-0.2-0.9-0.3s-0.6-0.2-0.8-0.4c-0.2-0.2-0.5-0.4-0.7-0.5l0.7-1.1
				c0.1-0.1,0.1-0.2,0.2-0.2s0.2-0.1,0.3-0.1c0.1,0,0.3,0.1,0.4,0.1s0.3,0.2,0.5,0.3s0.4,0.2,0.6,0.3c0.2,0.1,0.5,0.1,0.8,0.1
				c0.4,0,0.8-0.1,1-0.3c0.2-0.2,0.4-0.5,0.4-0.9c0-0.2-0.1-0.4-0.2-0.6c-0.1-0.1-0.3-0.3-0.5-0.4C84.4,42,84.2,42,84,41.9
				s-0.5-0.2-0.8-0.2c-0.3-0.1-0.5-0.2-0.8-0.4c-0.2-0.1-0.5-0.3-0.7-0.5c-0.2-0.2-0.4-0.5-0.5-0.8c-0.1-0.3-0.2-0.7-0.2-1.2
				c0-0.4,0.1-0.8,0.2-1.1c0.2-0.4,0.4-0.6,0.6-0.9s0.6-0.5,1.1-0.6c0.4-0.2,0.9-0.2,1.5-0.2c0.3,0,0.6,0,0.9,0.1
				c0.3,0.1,0.6,0.1,0.8,0.2c0.2,0.1,0.5,0.2,0.7,0.4c0.2,0.1,0.4,0.3,0.6,0.4L86.7,38.1z"/>
		</g>
	</g>
</g>
</svg>
