<?xml version="1.0" encoding="utf-8"?>
<!-- Generator: Adobe Illustrator 21.0.0, SVG Export Plug-In . SVG Version: 6.00 Build 0)  -->
<svg version="1.1" id="Layer_1" xmlns="http://www.w3.org/2000/svg" xmlns:xlink="http://www.w3.org/1999/xlink" x="0px" y="0px"
	 viewBox="0 0 68.5 60.7" style="enable-background:new 0 0 68.5 60.7;" xml:space="preserve">
<style type="text/css">
	.st0{fill:#828999;}
</style>
<g>
	<g>
		<path class="st0" d="M11,54.4c0,0.3-0.1,0.7-0.2,1c-0.1,0.3-0.3,0.6-0.5,0.8c-0.3,0.3-0.6,0.5-1,0.7c-0.3,0.2-0.9,0.2-1.4,0.2H6.6
			v2.6h-2v-7.8h3.3c0.5,0,0.9,0.1,1.2,0.1c0.3,0.1,0.6,0.2,0.9,0.4c0.3,0.2,0.5,0.5,0.7,0.8C10.8,53.6,11,54,11,54.4z M8.9,54.5
			c0-0.2-0.1-0.4-0.2-0.6c-0.1-0.2-0.2-0.3-0.4-0.3c-0.2-0.1-0.4-0.1-0.6-0.1c-0.2,0-0.5,0-0.8,0H6.6v2.3h0.6c0.3,0,0.6,0,0.8-0.1
			c0.2-0.1,0.4-0.1,0.5-0.2c0.1-0.1,0.2-0.2,0.3-0.4C8.9,54.9,8.9,54.7,8.9,54.5z"/>
		<path class="st0" d="M19.7,59.8h-2.1L17,58.2h-2.9l-0.5,1.6h-2l2.9-7.8h2.3L19.7,59.8z M16.5,56.8L15.6,54l-0.9,2.8H16.5z"/>
		<path class="st0" d="M28.3,59.8h-2.5l-2.2-2.9h-0.9v2.9h-2V52H24c0.5,0,0.9,0,1.2,0.1c0.3,0.1,0.6,0.2,0.9,0.3
			c0.3,0.2,0.5,0.4,0.7,0.6c0.2,0.3,0.2,0.6,0.2,1c0,0.6-0.1,1-0.4,1.4s-0.6,0.6-1.1,0.9L28.3,59.8z M25.1,54.4
			c0-0.2-0.1-0.3-0.1-0.5c-0.1-0.2-0.2-0.2-0.4-0.3c-0.1-0.1-0.3-0.1-0.5-0.1c-0.2,0-0.4,0-0.6,0h-0.7v2.2h0.6c0.3,0,0.6,0,0.8-0.1
			c0.2-0.1,0.4-0.1,0.5-0.2c0.1-0.1,0.2-0.2,0.3-0.3C25.1,54.8,25.1,54.6,25.1,54.4z"/>
		<path class="st0" d="M35.3,53.5h-2.4v6.3h-2v-6.3h-2.4V52h6.9L35.3,53.5L35.3,53.5z"/>
		<path class="st0" d="M43.6,59.8h-2l-3.3-5.4v5.4h-1.9V52h2.4l2.9,4.5V52h1.9V59.8z"/>
		<path class="st0" d="M51.3,59.8h-5.7V52h5.7v1.5h-3.7v1.3H51v1.5h-3.4v2h3.7V59.8z"/>
		<path class="st0" d="M60.5,59.8H58l-2.2-2.9h-0.9v2.9h-2V52h3.4c0.5,0,0.9,0,1.2,0.1c0.3,0.1,0.6,0.2,0.9,0.3
			c0.3,0.2,0.5,0.4,0.7,0.6c0.2,0.3,0.2,0.6,0.2,1c0,0.6-0.1,1-0.4,1.4s-0.6,0.6-1.1,0.9L60.5,59.8z M57.3,54.4
			c0-0.2-0.1-0.3-0.1-0.5c-0.1-0.2-0.2-0.2-0.4-0.3c-0.1-0.1-0.3-0.1-0.5-0.1c-0.2,0-0.4,0-0.6,0H55v2.2h0.6c0.3,0,0.6,0,0.8-0.1
			s0.4-0.1,0.5-0.2c0.1-0.1,0.2-0.2,0.3-0.3C57.3,54.7,57.3,54.6,57.3,54.4z"/>
		<path class="st0" d="M67.6,57.3c0,0.8-0.3,1.4-1,1.9C66,59.7,65.1,60,64,60c-0.6,0-1.2-0.1-1.7-0.2c-0.5-0.1-0.9-0.2-1.3-0.4v-1.9
			h0.2c0.4,0.3,0.9,0.6,1.4,0.8c0.5,0.2,1,0.3,1.5,0.3c0.1,0,0.3,0,0.5-0.1c0.2,0,0.3-0.1,0.5-0.1c0.2-0.1,0.3-0.1,0.3-0.2
			c0.1-0.1,0.2-0.2,0.2-0.4s-0.1-0.3-0.2-0.4c-0.1-0.1-0.3-0.2-0.6-0.3c-0.3-0.1-0.6-0.1-0.9-0.2c-0.3-0.1-0.6-0.1-0.9-0.2
			c-0.6-0.2-1.1-0.5-1.4-0.9c-0.3-0.3-0.4-0.8-0.4-1.3c0-0.7,0.3-1.3,1-1.7c0.6-0.5,1.5-0.7,2.5-0.7c0.5,0,1,0.1,1.5,0.2
			c0.5,0.1,0.9,0.2,1.3,0.3v1.7H67c-0.3-0.2-0.7-0.5-1.2-0.6c-0.5-0.2-0.9-0.2-1.4-0.2c-0.2,0-0.3,0-0.5,0.1c-0.2,0-0.3,0.1-0.5,0.1
			c-0.1,0.1-0.2,0.1-0.3,0.2C63,53.8,63,54,63,54.1c0,0.2,0.1,0.3,0.2,0.5c0.2,0.1,0.5,0.2,0.9,0.3c0.3,0.1,0.5,0.1,0.8,0.2
			c0.2,0.1,0.5,0.1,0.8,0.2c0.6,0.2,1,0.5,1.3,0.8C67.5,56.4,67.6,56.8,67.6,57.3z"/>
	</g>
</g>
<path class="st0" d="M34.9,24.5c6.9,0,11.9,5,11.8,11.6c-0.1,6.3-5.3,11.3-11.8,11.3c-6.8,0-12-5-12-11.5S28.1,24.5,34.9,24.5z
	 M40.6,35.9c0-3.7-2.3-6.3-5.7-6.3c-3.4-0.1-5.8,2.6-5.8,6.2c0,3.7,2.3,6.2,5.7,6.3C38.3,42.1,40.6,39.7,40.6,35.9z"/>
<path class="st0" d="M34.5,23.8c-4.5-0.1-8.3-1.9-10.6-6C21.8,14,22,10,24.3,6.3c2.9-4.7,9.4-6.7,14.8-4.6c5.2,2.1,8.1,7.1,7.2,12.8
	C45.4,19.8,40.4,23.8,34.5,23.8z M28.7,12.3c0,3.7,2.3,6.2,5.8,6.3s5.9-2.7,5.9-6.3c-0.1-3.6-2.4-6.1-5.8-6.1
	C31.1,6.1,28.7,8.6,28.7,12.3z"/>
<path class="st0" d="M4.1,24.9c3.6,0,7.2-0.3,10.7,0.1c4.5,0.5,7.2,4.2,7.1,8.9c-0.2,4.5-3.1,7.8-7.6,8.2c-1.3,0.1-2.7,0-4.1,0
	c0,1.7,0,3.2,0,4.8c-2,0-3.9,0-5.9,0C4.1,39.6,4.1,32.2,4.1,24.9z M10.1,29.9c0,2.5,0,4.8,0,7.2c1.9-0.1,3.7,0.5,5-1.3
	c0.9-1.2,0.9-3.4,0-4.6C13.8,29.4,11.9,30,10.1,29.9z"/>
<path class="st0" d="M16.3,23.4c-2.1,0-4,0-6,0c0-2.2,0.1-4.3,0-6.4c0-0.7-0.2-1.5-0.6-2.2C7.3,10.7,4.9,6.6,2.5,2.5
	C2.3,2.1,2.1,1.7,1.7,1.1c2.2,0,4.1-0.1,6.1,0.1c0.3,0,0.8,0.5,1,0.9c1.3,2.4,2.6,4.7,4,7.1c0.1,0.2,0.3,0.5,0.6,0.9
	c1.3-2.4,2.7-4.6,3.8-7C18,1.4,19,0.7,20.8,1c1.2,0.2,2.4,0,3.8,0c-0.2,0.5-0.4,0.9-0.6,1.3c-2.3,4-4.7,8-7,12.1
	c-0.4,0.7-0.6,1.5-0.6,2.4C16.2,19,16.3,21.2,16.3,23.4z"/>
<path class="st0" d="M52.1,23.3c0-5.7,0-11.3,0-17.1c-2,0-3.8,0-5.8,0c0-1.7,0-3.3,0-5c5.8,0,11.6,0,17.5,0c0,1.6,0,3.2,0,5
	c-1.5,0-3,0.1-4.5,0c-1-0.1-1.3,0.3-1.3,1.3c0.1,5.2,0,10.4,0,15.7C56.1,23.3,54.1,23.3,52.1,23.3z"/>
<path class="st0" d="M53.4,44.1c0.1,1.9-1.4,3.3-3.3,3.3c-1.9,0-3.3-1.3-3.4-3.2c-0.1-1.7,1.3-3.3,3.3-3.3
	C51.8,40.8,53.3,42.2,53.4,44.1z"/>
</svg>
