<?xml version="1.0" encoding="utf-8"?>
<!-- Generator: Adobe Illustrator 21.0.0, SVG Export Plug-In . SVG Version: 6.00 Build 0)  -->
<svg version="1.1" id="Layer_1" xmlns="http://www.w3.org/2000/svg" xmlns:xlink="http://www.w3.org/1999/xlink" x="0px" y="0px"
	 viewBox="0 0 160 50.2" style="enable-background:new 0 0 160 50.2;" xml:space="preserve">
<style type="text/css">
	.st0{fill:#818797;}
</style>
<g>
	<g>
		<path class="st0" d="M121.3,45.4c-0.3,1.2-0.6,2.2-0.8,3.2h-6.2V0.8h7.2v17.6c0.4-0.5,0.6-0.7,0.7-0.9c1.2-1.7,2.8-2.8,4.9-3.2
			c3.3-0.6,6.1,0.8,7.1,4c0.6,2,1.1,4.1,1.1,6.1c0.1,5.3,0,10.6-0.2,15.8c-0.1,1.6-0.6,3.3-1.2,4.8c-2,5-8.7,5.7-11.9,1.4
			C121.8,46.2,121.6,45.9,121.3,45.4L121.3,45.4z M121.6,32.2v8.7c0,1.4,0.8,2.3,2.2,2.6c1.4,0.3,2.5-0.2,3.1-1.5
			c0.2-0.5,0.5-1.1,0.5-1.7c0.1-5.3,0.3-10.7,0.3-16c0-1-0.2-2-0.5-3c-0.6-1.8-2.1-2.3-3.7-1.2c-1.2,0.8-1.9,1.9-1.9,3.4L121.6,32.2
			L121.6,32.2z M102,15h7.6v33.7h-5.9c-0.2-1.3-0.4-2.6-0.7-4.1c-0.4,0.6-0.6,1-0.9,1.3c-2,2.8-4.8,3.8-8,3.3
			c-2.8-0.5-4.5-2.6-4.9-6.2c-0.1-1.1-0.2-2.1-0.2-3.2c0-7.9,0-15.8,0-23.7v-1.2h7.7v1.4c0,7.6,0,15.2,0,22.8c0,1.1,0.1,2.2,0.3,3.3
			c0.2,1.1,1,1.5,2.1,1.4c1.8-0.1,3-1.4,3-3.2V16.5C102,16,102,15.5,102,15L102,15z M49.8,14.9h7.6v1.4c0,7.6,0,15.1,0,22.7
			c0,1.1,0.1,2.2,0.3,3.3c0.3,1.2,1,1.7,2.3,1.5c1.7-0.2,2.8-1.4,2.8-3.2V16.5V15h7.6v33.6h-5.9c-0.2-1.2-0.4-2.5-0.7-4.2
			c-0.4,0.6-0.6,0.9-0.8,1.2c-2,2.9-4.7,3.9-8.1,3.4c-2.7-0.4-4.3-2.4-4.9-5.7c-0.1-1-0.2-2-0.2-3.1c0-8.2,0-16.4,0-24.6L49.8,14.9z
			 M45.9,32.9c0,1.1-0.1,2.3-0.2,3.4c-0.3,3.4-0.4,8.2-3.2,10.7c-1.8,1.6-4,2.1-6.3,2.2c-1,0-2.1,0-3.1-0.1
			c-4.8-0.7-7.1-2.9-7.9-8.2c-0.9-6.1-1-12.4,0.1-18.5c1.1-6.3,5-8.6,11.1-8.2c5.7,0.4,8.2,4.1,8.9,9.4C45.8,26.8,46,29.8,45.9,32.9
			L45.9,32.9z M38.2,31.8c0-2.2,0.1-4.3,0-6.5c-0.1-1.2-0.2-2.5-0.5-3.7c-0.3-1.4-1.2-2.1-2.3-2.1c-1.1,0-1.9,0.7-2.3,2
			c-0.1,0.5-0.3,1-0.3,1.5c0,3.4,0,6.8-0.1,10.1c0,3.2-0.4,6.5,0.6,9.5c0.3,0.9,1.1,1.4,2.1,1.4s1.7-0.5,2-1.4
			c0.3-0.7,0.5-1.4,0.5-2.2C38,37.6,38.2,34.7,38.2,31.8z M14.2,25.4c0.7-3.3,1.3-6.5,2-9.7c0.9-4.1,1.8-8.1,2.7-12.2
			c0.2-1,0.6-1.2,1.6-1.2c2,0.1,4.1,0,6.3,0c-0.7,2.6-1.4,5.1-2.1,7.5c-2.2,7.6-4.3,15.3-6.4,23c-0.2,0.6-0.2,1.2-0.2,1.9
			c0,4.2,0,8.4,0,12.5v1.4h-7.4c0-0.4-0.1-0.8-0.1-1.1c0-2.4-0.2-4.8,0-7.1c0.5-5.6-1.2-10.8-2.7-16.1C6,17.4,4,10.4,2.1,3.5
			C2,3.2,2,2.8,1.9,2.4h7.6C11,10,12.6,17.7,14.2,25.4L14.2,25.4z M159,34.2h-12.8c0.1,2.6,0.2,5,0.5,7.4c0.2,1.7,1.1,2.4,2.6,2.4
			s2.4-0.7,2.7-2.4c0.1-0.5,0.2-1.1,0.2-1.6c0.1-0.5,0.1-1,0.1-1.7c2.2,0.1,4.3,0.2,6.3,0.3c1.2,3.6-1,8.2-4.6,9.6
			c-2.9,1.1-5.8,1.1-8.8,0.3c-2.2-0.6-3.8-2-4.5-4.2c-0.7-2-1.3-4.1-1.5-6.2c-0.4-5.1-0.5-10.3,0.3-15.5c0.1-0.9,0.4-1.7,0.6-2.5
			c1.1-3.4,3.4-5.5,6.9-5.9c1.9-0.2,3.9-0.1,5.9,0.2c3.1,0.5,4.8,2.8,5.5,5.7c0.3,1.4,0.6,2.8,0.6,4.2C159.1,27.6,159,30.8,159,34.2
			L159,34.2z M151.7,29.8c0-2.5,0-4.9,0-7.3c0-0.6-0.2-1.2-0.4-1.7c-0.4-1.1-1.3-1.3-2.4-1.3s-1.8,0.5-2,1.5
			c-0.8,2.9-0.5,5.9-0.5,8.9C148.3,29.8,150,29.8,151.7,29.8L151.7,29.8z"/>
		<path class="st0" d="M76.3,8.5h-7.5V2.4h22.4v6h-7.5v40.1h-7.4V8.5z"/>
	</g>
</g>
</svg>
